%TF.GenerationSoftware,KiCad,Pcbnew,10.0.0*%
%TF.CreationDate,2026-03-22T14:30:45-07:00*%
%TF.ProjectId,autoShutterPCB,6175746f-5368-4757-9474-65725043422e,rev?*%
%TF.SameCoordinates,Original*%
%TF.FileFunction,Copper,L2,Bot*%
%TF.FilePolarity,Positive*%
%FSLAX46Y46*%
G04 Gerber Fmt 4.6, Leading zero omitted, Abs format (unit mm)*
G04 Created by KiCad (PCBNEW 10.0.0) date 2026-03-22 14:30:45*
%MOMM*%
%LPD*%
G01*
G04 APERTURE LIST*
G04 Aperture macros list*
%AMRoundRect*
0 Rectangle with rounded corners*
0 $1 Rounding radius*
0 $2 $3 $4 $5 $6 $7 $8 $9 X,Y pos of 4 corners*
0 Add a 4 corners polygon primitive as box body*
4,1,4,$2,$3,$4,$5,$6,$7,$8,$9,$2,$3,0*
0 Add four circle primitives for the rounded corners*
1,1,$1+$1,$2,$3*
1,1,$1+$1,$4,$5*
1,1,$1+$1,$6,$7*
1,1,$1+$1,$8,$9*
0 Add four rect primitives between the rounded corners*
20,1,$1+$1,$2,$3,$4,$5,0*
20,1,$1+$1,$4,$5,$6,$7,0*
20,1,$1+$1,$6,$7,$8,$9,0*
20,1,$1+$1,$8,$9,$2,$3,0*%
G04 Aperture macros list end*
%TA.AperFunction,ComponentPad*%
%ADD10C,1.600000*%
%TD*%
%TA.AperFunction,ComponentPad*%
%ADD11R,1.730000X2.030000*%
%TD*%
%TA.AperFunction,ComponentPad*%
%ADD12O,1.730000X2.030000*%
%TD*%
%TA.AperFunction,ComponentPad*%
%ADD13C,2.000000*%
%TD*%
%TA.AperFunction,ComponentPad*%
%ADD14C,1.524000*%
%TD*%
%TA.AperFunction,SMDPad,CuDef*%
%ADD15RoundRect,0.152400X1.063600X0.609600X-1.063600X0.609600X-1.063600X-0.609600X1.063600X-0.609600X0*%
%TD*%
%TA.AperFunction,SMDPad,CuDef*%
%ADD16RoundRect,0.152400X-1.063600X-0.609600X1.063600X-0.609600X1.063600X0.609600X-1.063600X0.609600X0*%
%TD*%
%TA.AperFunction,ViaPad*%
%ADD17C,0.600000*%
%TD*%
%TA.AperFunction,Conductor*%
%ADD18C,0.200000*%
%TD*%
G04 APERTURE END LIST*
D10*
%TO.P,R3,1*%
%TO.N,Net-(Transistor(Ring)1-B)*%
X142500000Y-96500000D03*
%TO.P,R3,2*%
%TO.N,GND*%
X142500000Y-86340000D03*
%TD*%
D11*
%TO.P,OLED1,1,Pin_1_1*%
%TO.N,/scl*%
X161300000Y-86300000D03*
D12*
%TO.P,OLED1,2,Pin_2_2*%
%TO.N,/sda*%
X158760000Y-86300000D03*
%TO.P,OLED1,3,Pin_3_3*%
%TO.N,+3V3*%
X156220000Y-86300000D03*
%TO.P,OLED1,4,Pin_4_4*%
%TO.N,GND*%
X153680000Y-86300000D03*
%TD*%
D10*
%TO.P,R2,1*%
%TO.N,/d1*%
X142500000Y-120000000D03*
%TO.P,R2,2*%
%TO.N,Net-(Transistor(Ring)1-B)*%
X142500000Y-109840000D03*
%TD*%
D13*
%TO.P,Button1,1,1_1*%
%TO.N,GND*%
X154250000Y-94750000D03*
X160750000Y-94750000D03*
%TO.P,Button1,2,2_2*%
%TO.N,/d10B*%
X154250000Y-99250000D03*
X160750000Y-99250000D03*
%TD*%
D10*
%TO.P,R1,1*%
%TO.N,/d0*%
X173000000Y-120000000D03*
%TO.P,R1,2*%
%TO.N,Net-(Transistor(Tip)1-B)*%
X173000000Y-109840000D03*
%TD*%
%TO.P,R4,1*%
%TO.N,Net-(Transistor(Tip)1-B)*%
X173000000Y-96500000D03*
%TO.P,R4,2*%
%TO.N,GND*%
X173000000Y-86340000D03*
%TD*%
D14*
%TO.P,U1,1,P26_A0_D0_1*%
%TO.N,/d0*%
X149880000Y-122540000D03*
D15*
X149045000Y-122540000D03*
D14*
%TO.P,U1,2,P27_A1_D1_2*%
%TO.N,/d1*%
X149880000Y-120000000D03*
D15*
X149045000Y-120000000D03*
D14*
%TO.P,U1,3,P28_A2_D2_3*%
%TO.N,unconnected-(U1-P28_A2_D2-Pad3)*%
X149880000Y-117460000D03*
D15*
X149045000Y-117460000D03*
D14*
%TO.P,U1,4,P29_A3_D3_4*%
%TO.N,unconnected-(U1-P29_A3_D3-Pad4)*%
X149880000Y-114920000D03*
D15*
X149045000Y-114920000D03*
D14*
%TO.P,U1,5,P6_SDA_D4_5*%
%TO.N,/sda*%
X149880000Y-112380000D03*
D15*
X149045000Y-112380000D03*
D14*
%TO.P,U1,6,P7_SCL_D5_6*%
%TO.N,/scl*%
X149880000Y-109840000D03*
D15*
X149045000Y-109840000D03*
D14*
%TO.P,U1,7,P0_D6_TX_7*%
%TO.N,unconnected-(U1-P0_D6_TX-Pad7)*%
X149880000Y-107300000D03*
D15*
X149045000Y-107300000D03*
D16*
%TO.P,U1,8,P1_D7_RX_8*%
%TO.N,unconnected-(U1-P1_D7_RX-Pad8)*%
X165955000Y-107300000D03*
D14*
X165120000Y-107300000D03*
D16*
%TO.P,U1,9,P2_D8_SCK_9*%
%TO.N,unconnected-(U1-P2_D8_SCK-Pad9)*%
X165955000Y-109840000D03*
D14*
X165120000Y-109840000D03*
D16*
%TO.P,U1,10,P4_D9_MISO_10*%
%TO.N,unconnected-(U1-P4_D9_MISO-Pad10)*%
X165955000Y-112380000D03*
D14*
X165120000Y-112380000D03*
D16*
%TO.P,U1,11,P3_D10_MOSI_11*%
%TO.N,/d10B*%
X165955000Y-114920000D03*
D14*
X165120000Y-114920000D03*
D16*
%TO.P,U1,12,3V3_12*%
%TO.N,unconnected-(U1-3V3-Pad12)*%
X165955000Y-117460000D03*
D14*
X165120000Y-117460000D03*
D16*
%TO.P,U1,13,GND_13*%
%TO.N,GND*%
X165955000Y-120000000D03*
D14*
X165120000Y-120000000D03*
D16*
%TO.P,U1,14,VBUS_14*%
%TO.N,unconnected-(U1-VBUS-Pad14)*%
X165955000Y-122540000D03*
D14*
X165120000Y-122540000D03*
%TD*%
D17*
%TO.N,/d10B*%
X156000000Y-99500000D03*
%TO.N,/scl*%
X161000000Y-91500000D03*
X158000000Y-91500000D03*
%TO.N,GND*%
X171000000Y-99500000D03*
X173000000Y-82500000D03*
X155000000Y-77000000D03*
%TO.N,/ring*%
X158500000Y-77000000D03*
X141000000Y-103500000D03*
%TO.N,GND*%
X140500000Y-102000000D03*
X150500000Y-86500000D03*
X142500000Y-83500000D03*
X169500000Y-120000000D03*
%TO.N,/d0*%
X142500000Y-122500000D03*
%TD*%
%TO.N,/d10B*%
D18*
X156000000Y-99500000D02*
X156250000Y-99250000D01*
X156250000Y-99250000D02*
X160750000Y-99250000D01*
%TO.N,/scl*%
X158000000Y-91500000D02*
X161000000Y-91500000D01*
%TO.N,/ring*%
X155055000Y-80445000D02*
X158500000Y-77000000D01*
X155055000Y-89445000D02*
X155055000Y-80445000D01*
X141000000Y-103500000D02*
X155055000Y-89445000D01*
%TO.N,/d0*%
X169398000Y-123602000D02*
X173000000Y-120000000D01*
X142500000Y-122500000D02*
X143602000Y-123602000D01*
X143602000Y-123602000D02*
X169398000Y-123602000D01*
%TD*%
%TA.AperFunction,Conductor*%
%TO.N,GND*%
G36*
X174557629Y-71500638D02*
G01*
X174561721Y-71500830D01*
X174641607Y-71504597D01*
X174655146Y-71505985D01*
X174898088Y-71544463D01*
X174913263Y-71547854D01*
X175144723Y-71615100D01*
X175159371Y-71620374D01*
X175228503Y-71650289D01*
X175380591Y-71716103D01*
X175394454Y-71723167D01*
X175601920Y-71845862D01*
X175614790Y-71854608D01*
X175615024Y-71854789D01*
X175805251Y-72002345D01*
X175816931Y-72012643D01*
X175987356Y-72183068D01*
X175997654Y-72194748D01*
X176145383Y-72385198D01*
X176154134Y-72398076D01*
X176219162Y-72508031D01*
X176276828Y-72605538D01*
X176283898Y-72619413D01*
X176379624Y-72840627D01*
X176384898Y-72855277D01*
X176452140Y-73086721D01*
X176455537Y-73101919D01*
X176494012Y-73344842D01*
X176495401Y-73358397D01*
X176499362Y-73442369D01*
X176499500Y-73448212D01*
X176499500Y-123051786D01*
X176499362Y-123057629D01*
X176495401Y-123141601D01*
X176494012Y-123155156D01*
X176455537Y-123398079D01*
X176452140Y-123413277D01*
X176384898Y-123644721D01*
X176379624Y-123659371D01*
X176283898Y-123880585D01*
X176276828Y-123894460D01*
X176154136Y-124101920D01*
X176145383Y-124114800D01*
X175997654Y-124305250D01*
X175987356Y-124316930D01*
X175816931Y-124487355D01*
X175805251Y-124497653D01*
X175614796Y-124645386D01*
X175601916Y-124654139D01*
X175394460Y-124776828D01*
X175380585Y-124783898D01*
X175159371Y-124879624D01*
X175144721Y-124884898D01*
X174913277Y-124952140D01*
X174898079Y-124955537D01*
X174655156Y-124994012D01*
X174641601Y-124995401D01*
X174566783Y-124998930D01*
X174557627Y-124999362D01*
X174551787Y-124999500D01*
X140448213Y-124999500D01*
X140442372Y-124999362D01*
X140432399Y-124998891D01*
X140358397Y-124995401D01*
X140344842Y-124994012D01*
X140101919Y-124955537D01*
X140086724Y-124952140D01*
X139985899Y-124922848D01*
X139855277Y-124884898D01*
X139840627Y-124879624D01*
X139619413Y-124783898D01*
X139605538Y-124776828D01*
X139398076Y-124654134D01*
X139385198Y-124645383D01*
X139384976Y-124645211D01*
X139194748Y-124497654D01*
X139183068Y-124487356D01*
X139012643Y-124316931D01*
X139002345Y-124305251D01*
X138984989Y-124282876D01*
X138854608Y-124114790D01*
X138845862Y-124101920D01*
X138723167Y-123894454D01*
X138716100Y-123880585D01*
X138620374Y-123659371D01*
X138615100Y-123644721D01*
X138599649Y-123591539D01*
X138547854Y-123413263D01*
X138544463Y-123398088D01*
X138505985Y-123155146D01*
X138504597Y-123141607D01*
X138500638Y-123057628D01*
X138500500Y-123051788D01*
X138500500Y-122421153D01*
X141699500Y-122421153D01*
X141699500Y-122578846D01*
X141730261Y-122733489D01*
X141730264Y-122733501D01*
X141790602Y-122879172D01*
X141790609Y-122879185D01*
X141878210Y-123010288D01*
X141878213Y-123010292D01*
X141989707Y-123121786D01*
X141989711Y-123121789D01*
X142120814Y-123209390D01*
X142120827Y-123209397D01*
X142266498Y-123269735D01*
X142266503Y-123269737D01*
X142331147Y-123282595D01*
X142421849Y-123300638D01*
X142483760Y-123333023D01*
X142485339Y-123334574D01*
X143117139Y-123966374D01*
X143117149Y-123966385D01*
X143121479Y-123970715D01*
X143121480Y-123970716D01*
X143233284Y-124082520D01*
X143233286Y-124082521D01*
X143233290Y-124082524D01*
X143370209Y-124161573D01*
X143370216Y-124161577D01*
X143463398Y-124186545D01*
X143463397Y-124186545D01*
X143475980Y-124189916D01*
X143522942Y-124202500D01*
X143522943Y-124202500D01*
X169311331Y-124202500D01*
X169311347Y-124202501D01*
X169318943Y-124202501D01*
X169477054Y-124202501D01*
X169477057Y-124202501D01*
X169629785Y-124161577D01*
X169679904Y-124132639D01*
X169766716Y-124082520D01*
X169878520Y-123970716D01*
X169878520Y-123970714D01*
X169888728Y-123960507D01*
X169888730Y-123960504D01*
X172555158Y-121294075D01*
X172616479Y-121260592D01*
X172681151Y-121263825D01*
X172695466Y-121268477D01*
X172897648Y-121300500D01*
X172897649Y-121300500D01*
X173102351Y-121300500D01*
X173102352Y-121300500D01*
X173304534Y-121268477D01*
X173499219Y-121205220D01*
X173681610Y-121112287D01*
X173807590Y-121020758D01*
X173847213Y-120991971D01*
X173847215Y-120991968D01*
X173847219Y-120991966D01*
X173991966Y-120847219D01*
X173991968Y-120847215D01*
X173991971Y-120847213D01*
X174044732Y-120774590D01*
X174112287Y-120681610D01*
X174205220Y-120499219D01*
X174268477Y-120304534D01*
X174300500Y-120102352D01*
X174300500Y-119897648D01*
X174268477Y-119695466D01*
X174205220Y-119500781D01*
X174205218Y-119500778D01*
X174205218Y-119500776D01*
X174171503Y-119434607D01*
X174112287Y-119318390D01*
X174089810Y-119287453D01*
X173991971Y-119152786D01*
X173847213Y-119008028D01*
X173681613Y-118887715D01*
X173681612Y-118887714D01*
X173681610Y-118887713D01*
X173624653Y-118858691D01*
X173499223Y-118794781D01*
X173304534Y-118731522D01*
X173129995Y-118703878D01*
X173102352Y-118699500D01*
X172897648Y-118699500D01*
X172873329Y-118703351D01*
X172695465Y-118731522D01*
X172500776Y-118794781D01*
X172318386Y-118887715D01*
X172152786Y-119008028D01*
X172008028Y-119152786D01*
X171887715Y-119318386D01*
X171794781Y-119500776D01*
X171731522Y-119695465D01*
X171699500Y-119897648D01*
X171699500Y-120102351D01*
X171731522Y-120304534D01*
X171736173Y-120318848D01*
X171738165Y-120388690D01*
X171705921Y-120444842D01*
X169185584Y-122965181D01*
X169124261Y-122998666D01*
X169097903Y-123001500D01*
X167795500Y-123001500D01*
X167728461Y-122981815D01*
X167682706Y-122929011D01*
X167671500Y-122877500D01*
X167671500Y-121864473D01*
X167671499Y-121864458D01*
X167668587Y-121827453D01*
X167668586Y-121827447D01*
X167622565Y-121669045D01*
X167622564Y-121669042D01*
X167622564Y-121669041D01*
X167538592Y-121527053D01*
X167538590Y-121527051D01*
X167538587Y-121527047D01*
X167421952Y-121410412D01*
X167421949Y-121410410D01*
X167421947Y-121410408D01*
X167364511Y-121376440D01*
X167316829Y-121325371D01*
X167304326Y-121256630D01*
X167330972Y-121192040D01*
X167364514Y-121162976D01*
X167421637Y-121129193D01*
X167421643Y-121129189D01*
X167538189Y-121012643D01*
X167538196Y-121012634D01*
X167622102Y-120870756D01*
X167622103Y-120870753D01*
X167668088Y-120712473D01*
X167668089Y-120712467D01*
X167670999Y-120675488D01*
X167670999Y-119324530D01*
X167670998Y-119324508D01*
X167668089Y-119287533D01*
X167622102Y-119129242D01*
X167538196Y-118987365D01*
X167538189Y-118987356D01*
X167421643Y-118870810D01*
X167421634Y-118870803D01*
X167364513Y-118837022D01*
X167316829Y-118785953D01*
X167304326Y-118717211D01*
X167330972Y-118652622D01*
X167364514Y-118623558D01*
X167421941Y-118589596D01*
X167421942Y-118589594D01*
X167421947Y-118589592D01*
X167538592Y-118472947D01*
X167622564Y-118330959D01*
X167668587Y-118172548D01*
X167671500Y-118135534D01*
X167671500Y-116784466D01*
X167668587Y-116747452D01*
X167622564Y-116589041D01*
X167538592Y-116447053D01*
X167538590Y-116447051D01*
X167538587Y-116447047D01*
X167421952Y-116330412D01*
X167421944Y-116330406D01*
X167365004Y-116296732D01*
X167317321Y-116245663D01*
X167304817Y-116176921D01*
X167331462Y-116112332D01*
X167365004Y-116083268D01*
X167421947Y-116049592D01*
X167538592Y-115932947D01*
X167622564Y-115790959D01*
X167668587Y-115632548D01*
X167671500Y-115595534D01*
X167671500Y-114244466D01*
X167668587Y-114207452D01*
X167622564Y-114049041D01*
X167538592Y-113907053D01*
X167538590Y-113907051D01*
X167538587Y-113907047D01*
X167421952Y-113790412D01*
X167421944Y-113790406D01*
X167365004Y-113756732D01*
X167317321Y-113705663D01*
X167304817Y-113636921D01*
X167331462Y-113572332D01*
X167365004Y-113543268D01*
X167421947Y-113509592D01*
X167538592Y-113392947D01*
X167622564Y-113250959D01*
X167668587Y-113092548D01*
X167671500Y-113055534D01*
X167671500Y-111704466D01*
X167668587Y-111667452D01*
X167622564Y-111509041D01*
X167538592Y-111367053D01*
X167538590Y-111367051D01*
X167538587Y-111367047D01*
X167421952Y-111250412D01*
X167421944Y-111250406D01*
X167365004Y-111216732D01*
X167317321Y-111165663D01*
X167304817Y-111096921D01*
X167331462Y-111032332D01*
X167365004Y-111003268D01*
X167421947Y-110969592D01*
X167538592Y-110852947D01*
X167622564Y-110710959D01*
X167668587Y-110552548D01*
X167671500Y-110515534D01*
X167671500Y-109737648D01*
X171699500Y-109737648D01*
X171699500Y-109942351D01*
X171731522Y-110144534D01*
X171794781Y-110339223D01*
X171858691Y-110464653D01*
X171884617Y-110515534D01*
X171887715Y-110521613D01*
X172008028Y-110687213D01*
X172152786Y-110831971D01*
X172307749Y-110944556D01*
X172318390Y-110952287D01*
X172418446Y-111003268D01*
X172500776Y-111045218D01*
X172500778Y-111045218D01*
X172500781Y-111045220D01*
X172586618Y-111073110D01*
X172695465Y-111108477D01*
X172778964Y-111121702D01*
X172897648Y-111140500D01*
X172897649Y-111140500D01*
X173102351Y-111140500D01*
X173102352Y-111140500D01*
X173304534Y-111108477D01*
X173499219Y-111045220D01*
X173681610Y-110952287D01*
X173807590Y-110860758D01*
X173847213Y-110831971D01*
X173847215Y-110831968D01*
X173847219Y-110831966D01*
X173991966Y-110687219D01*
X173991968Y-110687215D01*
X173991971Y-110687213D01*
X174044732Y-110614590D01*
X174112287Y-110521610D01*
X174205220Y-110339219D01*
X174268477Y-110144534D01*
X174300500Y-109942352D01*
X174300500Y-109737648D01*
X174268477Y-109535466D01*
X174205220Y-109340781D01*
X174205218Y-109340778D01*
X174205218Y-109340776D01*
X174171503Y-109274607D01*
X174112287Y-109158390D01*
X174089810Y-109127453D01*
X173991971Y-108992786D01*
X173847213Y-108848028D01*
X173681613Y-108727715D01*
X173681612Y-108727714D01*
X173681610Y-108727713D01*
X173624653Y-108698691D01*
X173499223Y-108634781D01*
X173304534Y-108571522D01*
X173129995Y-108543878D01*
X173102352Y-108539500D01*
X172897648Y-108539500D01*
X172873329Y-108543351D01*
X172695465Y-108571522D01*
X172500776Y-108634781D01*
X172318386Y-108727715D01*
X172152786Y-108848028D01*
X172008028Y-108992786D01*
X171887715Y-109158386D01*
X171794781Y-109340776D01*
X171731522Y-109535465D01*
X171699500Y-109737648D01*
X167671500Y-109737648D01*
X167671500Y-109164466D01*
X167668587Y-109127452D01*
X167622564Y-108969041D01*
X167538592Y-108827053D01*
X167538590Y-108827051D01*
X167538587Y-108827047D01*
X167421952Y-108710412D01*
X167421944Y-108710406D01*
X167365004Y-108676732D01*
X167317321Y-108625663D01*
X167304817Y-108556921D01*
X167331462Y-108492332D01*
X167365004Y-108463268D01*
X167421947Y-108429592D01*
X167538592Y-108312947D01*
X167622564Y-108170959D01*
X167668587Y-108012548D01*
X167671500Y-107975534D01*
X167671500Y-106624466D01*
X167668587Y-106587452D01*
X167622564Y-106429041D01*
X167538592Y-106287053D01*
X167538590Y-106287051D01*
X167538587Y-106287047D01*
X167421952Y-106170412D01*
X167421943Y-106170405D01*
X167279957Y-106086435D01*
X167279954Y-106086434D01*
X167121552Y-106040413D01*
X167121546Y-106040412D01*
X167084541Y-106037500D01*
X167084534Y-106037500D01*
X164825466Y-106037500D01*
X164825458Y-106037500D01*
X164788453Y-106040412D01*
X164788447Y-106040413D01*
X164630045Y-106086434D01*
X164630042Y-106086435D01*
X164488056Y-106170405D01*
X164488046Y-106170413D01*
X164391854Y-106266604D01*
X164377061Y-106279239D01*
X164297536Y-106337018D01*
X164157021Y-106477533D01*
X164040213Y-106638305D01*
X163949994Y-106815367D01*
X163949993Y-106815370D01*
X163888587Y-107004362D01*
X163857500Y-107200639D01*
X163857500Y-107399360D01*
X163888587Y-107595637D01*
X163949993Y-107784629D01*
X163949994Y-107784632D01*
X164040213Y-107961694D01*
X164157019Y-108122464D01*
X164157021Y-108122466D01*
X164297539Y-108262984D01*
X164377060Y-108320758D01*
X164383824Y-108326039D01*
X164387998Y-108329537D01*
X164488053Y-108429592D01*
X164553737Y-108468437D01*
X164561522Y-108474962D01*
X164575488Y-108495926D01*
X164592679Y-108514338D01*
X164594528Y-108524506D01*
X164600260Y-108533110D01*
X164600674Y-108558297D01*
X164605182Y-108583079D01*
X164601239Y-108592634D01*
X164601410Y-108602970D01*
X164588143Y-108624381D01*
X164578536Y-108647669D01*
X164568122Y-108656692D01*
X164564609Y-108662363D01*
X164557871Y-108665575D01*
X164544996Y-108676732D01*
X164488053Y-108710408D01*
X164488046Y-108710413D01*
X164391854Y-108806604D01*
X164377061Y-108819239D01*
X164297536Y-108877018D01*
X164157021Y-109017533D01*
X164040213Y-109178305D01*
X163949994Y-109355367D01*
X163949993Y-109355370D01*
X163888587Y-109544362D01*
X163857500Y-109740639D01*
X163857500Y-109939360D01*
X163888587Y-110135637D01*
X163949993Y-110324629D01*
X163949994Y-110324632D01*
X164040213Y-110501694D01*
X164157019Y-110662464D01*
X164157021Y-110662466D01*
X164297539Y-110802984D01*
X164377060Y-110860758D01*
X164383824Y-110866039D01*
X164387998Y-110869537D01*
X164488053Y-110969592D01*
X164553737Y-111008437D01*
X164561522Y-111014962D01*
X164575488Y-111035926D01*
X164592679Y-111054338D01*
X164594528Y-111064506D01*
X164600260Y-111073110D01*
X164600674Y-111098297D01*
X164605182Y-111123079D01*
X164601239Y-111132634D01*
X164601410Y-111142970D01*
X164588143Y-111164381D01*
X164578536Y-111187669D01*
X164568122Y-111196692D01*
X164564609Y-111202363D01*
X164557871Y-111205575D01*
X164544996Y-111216732D01*
X164488053Y-111250408D01*
X164488046Y-111250413D01*
X164391854Y-111346604D01*
X164377061Y-111359239D01*
X164297536Y-111417018D01*
X164157021Y-111557533D01*
X164040213Y-111718305D01*
X163949994Y-111895367D01*
X163949993Y-111895370D01*
X163888587Y-112084362D01*
X163857500Y-112280639D01*
X163857500Y-112479360D01*
X163888587Y-112675637D01*
X163949993Y-112864629D01*
X163949994Y-112864632D01*
X164040213Y-113041694D01*
X164157019Y-113202464D01*
X164157021Y-113202466D01*
X164297539Y-113342984D01*
X164377060Y-113400758D01*
X164383824Y-113406039D01*
X164387998Y-113409537D01*
X164488053Y-113509592D01*
X164553737Y-113548437D01*
X164561522Y-113554962D01*
X164575488Y-113575926D01*
X164592679Y-113594338D01*
X164594528Y-113604506D01*
X164600260Y-113613110D01*
X164600674Y-113638297D01*
X164605182Y-113663079D01*
X164601239Y-113672634D01*
X164601410Y-113682970D01*
X164588143Y-113704381D01*
X164578536Y-113727669D01*
X164568122Y-113736692D01*
X164564609Y-113742363D01*
X164557871Y-113745575D01*
X164544996Y-113756732D01*
X164488053Y-113790408D01*
X164488046Y-113790413D01*
X164391854Y-113886604D01*
X164377061Y-113899239D01*
X164297536Y-113957018D01*
X164157021Y-114097533D01*
X164040213Y-114258305D01*
X163949994Y-114435367D01*
X163949993Y-114435370D01*
X163888587Y-114624362D01*
X163857500Y-114820639D01*
X163857500Y-115019360D01*
X163888587Y-115215637D01*
X163949993Y-115404629D01*
X163949994Y-115404632D01*
X164040213Y-115581694D01*
X164157019Y-115742464D01*
X164157021Y-115742466D01*
X164297539Y-115882984D01*
X164377060Y-115940758D01*
X164383824Y-115946039D01*
X164387998Y-115949537D01*
X164488053Y-116049592D01*
X164553737Y-116088437D01*
X164561522Y-116094962D01*
X164575488Y-116115926D01*
X164592679Y-116134338D01*
X164594528Y-116144506D01*
X164600260Y-116153110D01*
X164600674Y-116178297D01*
X164605182Y-116203079D01*
X164601239Y-116212634D01*
X164601410Y-116222970D01*
X164588143Y-116244381D01*
X164578536Y-116267669D01*
X164568122Y-116276692D01*
X164564609Y-116282363D01*
X164557871Y-116285575D01*
X164544996Y-116296732D01*
X164488053Y-116330408D01*
X164488046Y-116330413D01*
X164391854Y-116426604D01*
X164377061Y-116439239D01*
X164297536Y-116497018D01*
X164157021Y-116637533D01*
X164040213Y-116798305D01*
X163949994Y-116975367D01*
X163949993Y-116975370D01*
X163888587Y-117164362D01*
X163857500Y-117360639D01*
X163857500Y-117559360D01*
X163888587Y-117755637D01*
X163949993Y-117944629D01*
X163949994Y-117944632D01*
X164040213Y-118121694D01*
X164157019Y-118282464D01*
X164157021Y-118282466D01*
X164297539Y-118422984D01*
X164377060Y-118480758D01*
X164383786Y-118486007D01*
X164387979Y-118489518D01*
X164488053Y-118589592D01*
X164554208Y-118628716D01*
X164561975Y-118635220D01*
X164575962Y-118656197D01*
X164593170Y-118674627D01*
X164595015Y-118684773D01*
X164600736Y-118693353D01*
X164601161Y-118718564D01*
X164605673Y-118743369D01*
X164601740Y-118752900D01*
X164601915Y-118763212D01*
X164588643Y-118784649D01*
X164579028Y-118807958D01*
X164568643Y-118816956D01*
X164565137Y-118822620D01*
X164558391Y-118825838D01*
X164545487Y-118837021D01*
X164488370Y-118870800D01*
X164488357Y-118870810D01*
X164416360Y-118942806D01*
X164416360Y-118942807D01*
X165035905Y-119562352D01*
X164948429Y-119585792D01*
X164847070Y-119644311D01*
X164764311Y-119727070D01*
X164705792Y-119828429D01*
X164682352Y-119915905D01*
X164067730Y-119301282D01*
X164067729Y-119301283D01*
X164040643Y-119338564D01*
X163950457Y-119515562D01*
X163889075Y-119704476D01*
X163889075Y-119704479D01*
X163858000Y-119900678D01*
X163858000Y-120099321D01*
X163889075Y-120295520D01*
X163889075Y-120295523D01*
X163950457Y-120484437D01*
X164040641Y-120661432D01*
X164067730Y-120698715D01*
X164067731Y-120698716D01*
X164682352Y-120084094D01*
X164705792Y-120171571D01*
X164764311Y-120272930D01*
X164847070Y-120355689D01*
X164948429Y-120414208D01*
X165035904Y-120437647D01*
X164416360Y-121057191D01*
X164488360Y-121129192D01*
X164488364Y-121129195D01*
X164545486Y-121162977D01*
X164593169Y-121214046D01*
X164605673Y-121282788D01*
X164579028Y-121347377D01*
X164561975Y-121364779D01*
X164554204Y-121371285D01*
X164488053Y-121410408D01*
X164387990Y-121510469D01*
X164383784Y-121513992D01*
X164382598Y-121514509D01*
X164377061Y-121519239D01*
X164297536Y-121577018D01*
X164157021Y-121717533D01*
X164040213Y-121878305D01*
X163949994Y-122055367D01*
X163949993Y-122055370D01*
X163888587Y-122244362D01*
X163857500Y-122440639D01*
X163857500Y-122639360D01*
X163888587Y-122835638D01*
X163889738Y-122839180D01*
X163891735Y-122909021D01*
X163855655Y-122968854D01*
X163792955Y-122999684D01*
X163771808Y-123001500D01*
X151228192Y-123001500D01*
X151161153Y-122981815D01*
X151115398Y-122929011D01*
X151105454Y-122859853D01*
X151110262Y-122839180D01*
X151111412Y-122835638D01*
X151111413Y-122835636D01*
X151142500Y-122639361D01*
X151142500Y-122440639D01*
X151111413Y-122244364D01*
X151050005Y-122055368D01*
X151050005Y-122055367D01*
X150959786Y-121878305D01*
X150959717Y-121878210D01*
X150842981Y-121717536D01*
X150702464Y-121577019D01*
X150622937Y-121519239D01*
X150616175Y-121513960D01*
X150612000Y-121510461D01*
X150511947Y-121410408D01*
X150446259Y-121371560D01*
X150438477Y-121365038D01*
X150424510Y-121344073D01*
X150407321Y-121325663D01*
X150405471Y-121315492D01*
X150399740Y-121306890D01*
X150399324Y-121281702D01*
X150394817Y-121256921D01*
X150398758Y-121247366D01*
X150398588Y-121237030D01*
X150411856Y-121215616D01*
X150421462Y-121192332D01*
X150431874Y-121183309D01*
X150435389Y-121177638D01*
X150442127Y-121174425D01*
X150455004Y-121163268D01*
X150455498Y-121162976D01*
X150511947Y-121129592D01*
X150608148Y-121033389D01*
X150622939Y-121020758D01*
X150702464Y-120962981D01*
X150842981Y-120822464D01*
X150959787Y-120661694D01*
X151050005Y-120484632D01*
X151111413Y-120295636D01*
X151142500Y-120099361D01*
X151142500Y-119900639D01*
X151111413Y-119704364D01*
X151050005Y-119515368D01*
X151050005Y-119515367D01*
X150959786Y-119338305D01*
X150949762Y-119324508D01*
X150842981Y-119177536D01*
X150702464Y-119037019D01*
X150622938Y-118979240D01*
X150616175Y-118973960D01*
X150612000Y-118970461D01*
X150511947Y-118870408D01*
X150446259Y-118831560D01*
X150438477Y-118825038D01*
X150424510Y-118804073D01*
X150407321Y-118785663D01*
X150405471Y-118775492D01*
X150399740Y-118766890D01*
X150399324Y-118741702D01*
X150394817Y-118716921D01*
X150398758Y-118707366D01*
X150398588Y-118697030D01*
X150411856Y-118675616D01*
X150421462Y-118652332D01*
X150431874Y-118643309D01*
X150435389Y-118637638D01*
X150442127Y-118634425D01*
X150455004Y-118623268D01*
X150511947Y-118589592D01*
X150608148Y-118493389D01*
X150622939Y-118480758D01*
X150702464Y-118422981D01*
X150842981Y-118282464D01*
X150959787Y-118121694D01*
X151050005Y-117944632D01*
X151111413Y-117755636D01*
X151142500Y-117559361D01*
X151142500Y-117360639D01*
X151111413Y-117164364D01*
X151050005Y-116975368D01*
X151050005Y-116975367D01*
X150959786Y-116798305D01*
X150842981Y-116637536D01*
X150702464Y-116497019D01*
X150622937Y-116439239D01*
X150616175Y-116433960D01*
X150612000Y-116430461D01*
X150511947Y-116330408D01*
X150446259Y-116291560D01*
X150438477Y-116285038D01*
X150424510Y-116264073D01*
X150407321Y-116245663D01*
X150405471Y-116235492D01*
X150399740Y-116226890D01*
X150399324Y-116201702D01*
X150394817Y-116176921D01*
X150398758Y-116167366D01*
X150398588Y-116157030D01*
X150411856Y-116135616D01*
X150421462Y-116112332D01*
X150431874Y-116103309D01*
X150435389Y-116097638D01*
X150442127Y-116094425D01*
X150455004Y-116083268D01*
X150511947Y-116049592D01*
X150608148Y-115953389D01*
X150622939Y-115940758D01*
X150702464Y-115882981D01*
X150842981Y-115742464D01*
X150959787Y-115581694D01*
X151050005Y-115404632D01*
X151111413Y-115215636D01*
X151142500Y-115019361D01*
X151142500Y-114820639D01*
X151111413Y-114624364D01*
X151050005Y-114435368D01*
X151050005Y-114435367D01*
X150959786Y-114258305D01*
X150842981Y-114097536D01*
X150702464Y-113957019D01*
X150622937Y-113899239D01*
X150616175Y-113893960D01*
X150612000Y-113890461D01*
X150511947Y-113790408D01*
X150446259Y-113751560D01*
X150438477Y-113745038D01*
X150424510Y-113724073D01*
X150407321Y-113705663D01*
X150405471Y-113695492D01*
X150399740Y-113686890D01*
X150399324Y-113661702D01*
X150394817Y-113636921D01*
X150398758Y-113627366D01*
X150398588Y-113617030D01*
X150411856Y-113595616D01*
X150421462Y-113572332D01*
X150431874Y-113563309D01*
X150435389Y-113557638D01*
X150442127Y-113554425D01*
X150455004Y-113543268D01*
X150511947Y-113509592D01*
X150608148Y-113413389D01*
X150622939Y-113400758D01*
X150702464Y-113342981D01*
X150842981Y-113202464D01*
X150959787Y-113041694D01*
X151050005Y-112864632D01*
X151111413Y-112675636D01*
X151142500Y-112479361D01*
X151142500Y-112280639D01*
X151111413Y-112084364D01*
X151050005Y-111895368D01*
X151050005Y-111895367D01*
X150959786Y-111718305D01*
X150842981Y-111557536D01*
X150702464Y-111417019D01*
X150622937Y-111359239D01*
X150616175Y-111353960D01*
X150612000Y-111350461D01*
X150511947Y-111250408D01*
X150446259Y-111211560D01*
X150438477Y-111205038D01*
X150424510Y-111184073D01*
X150407321Y-111165663D01*
X150405471Y-111155492D01*
X150399740Y-111146890D01*
X150399324Y-111121702D01*
X150394817Y-111096921D01*
X150398758Y-111087366D01*
X150398588Y-111077030D01*
X150411856Y-111055616D01*
X150421462Y-111032332D01*
X150431874Y-111023309D01*
X150435389Y-111017638D01*
X150442127Y-111014425D01*
X150455004Y-111003268D01*
X150511947Y-110969592D01*
X150608148Y-110873389D01*
X150622939Y-110860758D01*
X150702464Y-110802981D01*
X150842981Y-110662464D01*
X150959787Y-110501694D01*
X151050005Y-110324632D01*
X151111413Y-110135636D01*
X151142500Y-109939361D01*
X151142500Y-109740639D01*
X151111413Y-109544364D01*
X151050005Y-109355368D01*
X151050005Y-109355367D01*
X150959786Y-109178305D01*
X150842981Y-109017536D01*
X150702464Y-108877019D01*
X150622937Y-108819239D01*
X150616175Y-108813960D01*
X150612000Y-108810461D01*
X150511947Y-108710408D01*
X150446259Y-108671560D01*
X150438477Y-108665038D01*
X150424510Y-108644073D01*
X150407321Y-108625663D01*
X150405471Y-108615492D01*
X150399740Y-108606890D01*
X150399324Y-108581702D01*
X150394817Y-108556921D01*
X150398758Y-108547366D01*
X150398588Y-108537030D01*
X150411856Y-108515616D01*
X150421462Y-108492332D01*
X150431874Y-108483309D01*
X150435389Y-108477638D01*
X150442127Y-108474425D01*
X150455004Y-108463268D01*
X150511947Y-108429592D01*
X150608148Y-108333389D01*
X150622939Y-108320758D01*
X150702464Y-108262981D01*
X150842981Y-108122464D01*
X150959787Y-107961694D01*
X151050005Y-107784632D01*
X151111413Y-107595636D01*
X151142500Y-107399361D01*
X151142500Y-107200639D01*
X151111413Y-107004364D01*
X151050005Y-106815368D01*
X151050005Y-106815367D01*
X150959786Y-106638305D01*
X150842981Y-106477536D01*
X150702464Y-106337019D01*
X150622937Y-106279239D01*
X150608147Y-106266608D01*
X150511947Y-106170408D01*
X150511946Y-106170407D01*
X150511943Y-106170405D01*
X150369957Y-106086435D01*
X150369954Y-106086434D01*
X150211552Y-106040413D01*
X150211546Y-106040412D01*
X150174541Y-106037500D01*
X150174534Y-106037500D01*
X147915466Y-106037500D01*
X147915458Y-106037500D01*
X147878453Y-106040412D01*
X147878447Y-106040413D01*
X147720045Y-106086434D01*
X147720042Y-106086435D01*
X147578056Y-106170405D01*
X147578047Y-106170412D01*
X147461412Y-106287047D01*
X147461405Y-106287056D01*
X147377435Y-106429042D01*
X147377434Y-106429045D01*
X147331413Y-106587447D01*
X147331412Y-106587453D01*
X147328500Y-106624458D01*
X147328500Y-107975541D01*
X147331412Y-108012546D01*
X147331413Y-108012552D01*
X147377434Y-108170954D01*
X147377435Y-108170957D01*
X147461405Y-108312943D01*
X147461412Y-108312952D01*
X147578047Y-108429587D01*
X147578050Y-108429589D01*
X147578053Y-108429592D01*
X147634996Y-108463268D01*
X147682679Y-108514338D01*
X147695182Y-108583079D01*
X147668536Y-108647669D01*
X147634996Y-108676732D01*
X147578053Y-108710408D01*
X147578047Y-108710412D01*
X147461412Y-108827047D01*
X147461405Y-108827056D01*
X147377435Y-108969042D01*
X147377434Y-108969045D01*
X147331413Y-109127447D01*
X147331412Y-109127453D01*
X147328500Y-109164458D01*
X147328500Y-110515541D01*
X147331412Y-110552546D01*
X147331413Y-110552552D01*
X147377434Y-110710954D01*
X147377435Y-110710957D01*
X147461405Y-110852943D01*
X147461412Y-110852952D01*
X147578047Y-110969587D01*
X147578050Y-110969589D01*
X147578053Y-110969592D01*
X147634996Y-111003268D01*
X147682679Y-111054338D01*
X147695182Y-111123079D01*
X147668536Y-111187669D01*
X147634996Y-111216732D01*
X147578053Y-111250408D01*
X147578047Y-111250412D01*
X147461412Y-111367047D01*
X147461405Y-111367056D01*
X147377435Y-111509042D01*
X147377434Y-111509045D01*
X147331413Y-111667447D01*
X147331412Y-111667453D01*
X147328500Y-111704458D01*
X147328500Y-113055541D01*
X147331412Y-113092546D01*
X147331413Y-113092552D01*
X147377434Y-113250954D01*
X147377435Y-113250957D01*
X147461405Y-113392943D01*
X147461412Y-113392952D01*
X147578047Y-113509587D01*
X147578050Y-113509589D01*
X147578053Y-113509592D01*
X147634996Y-113543268D01*
X147682679Y-113594338D01*
X147695182Y-113663079D01*
X147668536Y-113727669D01*
X147634996Y-113756732D01*
X147578053Y-113790408D01*
X147578047Y-113790412D01*
X147461412Y-113907047D01*
X147461405Y-113907056D01*
X147377435Y-114049042D01*
X147377434Y-114049045D01*
X147331413Y-114207447D01*
X147331412Y-114207453D01*
X147328500Y-114244458D01*
X147328500Y-115595541D01*
X147331412Y-115632546D01*
X147331413Y-115632552D01*
X147377434Y-115790954D01*
X147377435Y-115790957D01*
X147461405Y-115932943D01*
X147461412Y-115932952D01*
X147578047Y-116049587D01*
X147578050Y-116049589D01*
X147578053Y-116049592D01*
X147634996Y-116083268D01*
X147682679Y-116134338D01*
X147695182Y-116203079D01*
X147668536Y-116267669D01*
X147634996Y-116296732D01*
X147578053Y-116330408D01*
X147578047Y-116330412D01*
X147461412Y-116447047D01*
X147461405Y-116447056D01*
X147377435Y-116589042D01*
X147377434Y-116589045D01*
X147331413Y-116747447D01*
X147331412Y-116747453D01*
X147328500Y-116784458D01*
X147328500Y-118135541D01*
X147331412Y-118172546D01*
X147331413Y-118172552D01*
X147377434Y-118330954D01*
X147377435Y-118330957D01*
X147461405Y-118472943D01*
X147461412Y-118472952D01*
X147578047Y-118589587D01*
X147578050Y-118589589D01*
X147578053Y-118589592D01*
X147634996Y-118623268D01*
X147682679Y-118674338D01*
X147695182Y-118743079D01*
X147668536Y-118807669D01*
X147634996Y-118836731D01*
X147578053Y-118870408D01*
X147578047Y-118870412D01*
X147461412Y-118987047D01*
X147461405Y-118987056D01*
X147377435Y-119129042D01*
X147377434Y-119129045D01*
X147331413Y-119287447D01*
X147331412Y-119287453D01*
X147328500Y-119324458D01*
X147328500Y-120675541D01*
X147331412Y-120712546D01*
X147331413Y-120712552D01*
X147377434Y-120870954D01*
X147377435Y-120870957D01*
X147461405Y-121012943D01*
X147461412Y-121012952D01*
X147578047Y-121129587D01*
X147578050Y-121129589D01*
X147578053Y-121129592D01*
X147634502Y-121162976D01*
X147634996Y-121163268D01*
X147682679Y-121214338D01*
X147695182Y-121283079D01*
X147668536Y-121347669D01*
X147634996Y-121376732D01*
X147578053Y-121410408D01*
X147578047Y-121410412D01*
X147461412Y-121527047D01*
X147461405Y-121527056D01*
X147377435Y-121669042D01*
X147377434Y-121669045D01*
X147331413Y-121827447D01*
X147331412Y-121827453D01*
X147328500Y-121864458D01*
X147328500Y-122877500D01*
X147308815Y-122944539D01*
X147256011Y-122990294D01*
X147204500Y-123001500D01*
X143902097Y-123001500D01*
X143835058Y-122981815D01*
X143814416Y-122965181D01*
X143334574Y-122485339D01*
X143301089Y-122424016D01*
X143300638Y-122421849D01*
X143269738Y-122266510D01*
X143269737Y-122266503D01*
X143260566Y-122244362D01*
X143209397Y-122120827D01*
X143209390Y-122120814D01*
X143121789Y-121989711D01*
X143121786Y-121989707D01*
X143010292Y-121878213D01*
X143010288Y-121878210D01*
X142879185Y-121790609D01*
X142879172Y-121790602D01*
X142733501Y-121730264D01*
X142733489Y-121730261D01*
X142578845Y-121699500D01*
X142578842Y-121699500D01*
X142421158Y-121699500D01*
X142421155Y-121699500D01*
X142266510Y-121730261D01*
X142266498Y-121730264D01*
X142120827Y-121790602D01*
X142120814Y-121790609D01*
X141989711Y-121878210D01*
X141989707Y-121878213D01*
X141878213Y-121989707D01*
X141878210Y-121989711D01*
X141790609Y-122120814D01*
X141790602Y-122120827D01*
X141730264Y-122266498D01*
X141730261Y-122266510D01*
X141699500Y-122421153D01*
X138500500Y-122421153D01*
X138500500Y-119897648D01*
X141199500Y-119897648D01*
X141199500Y-120102351D01*
X141231522Y-120304534D01*
X141294781Y-120499223D01*
X141358691Y-120624653D01*
X141384617Y-120675534D01*
X141387715Y-120681613D01*
X141508028Y-120847213D01*
X141652786Y-120991971D01*
X141807749Y-121104556D01*
X141818390Y-121112287D01*
X141917873Y-121162976D01*
X142000776Y-121205218D01*
X142000778Y-121205218D01*
X142000781Y-121205220D01*
X142032777Y-121215616D01*
X142195465Y-121268477D01*
X142278964Y-121281702D01*
X142397648Y-121300500D01*
X142397649Y-121300500D01*
X142602351Y-121300500D01*
X142602352Y-121300500D01*
X142804534Y-121268477D01*
X142999219Y-121205220D01*
X143181610Y-121112287D01*
X143307590Y-121020758D01*
X143347213Y-120991971D01*
X143347215Y-120991968D01*
X143347219Y-120991966D01*
X143491966Y-120847219D01*
X143491968Y-120847215D01*
X143491971Y-120847213D01*
X143544732Y-120774590D01*
X143612287Y-120681610D01*
X143705220Y-120499219D01*
X143768477Y-120304534D01*
X143800500Y-120102352D01*
X143800500Y-119897648D01*
X143768477Y-119695466D01*
X143705220Y-119500781D01*
X143705218Y-119500778D01*
X143705218Y-119500776D01*
X143671503Y-119434607D01*
X143612287Y-119318390D01*
X143589810Y-119287453D01*
X143491971Y-119152786D01*
X143347213Y-119008028D01*
X143181613Y-118887715D01*
X143181612Y-118887714D01*
X143181610Y-118887713D01*
X143124653Y-118858691D01*
X142999223Y-118794781D01*
X142804534Y-118731522D01*
X142629995Y-118703878D01*
X142602352Y-118699500D01*
X142397648Y-118699500D01*
X142373329Y-118703351D01*
X142195465Y-118731522D01*
X142000776Y-118794781D01*
X141818386Y-118887715D01*
X141652786Y-119008028D01*
X141508028Y-119152786D01*
X141387715Y-119318386D01*
X141294781Y-119500776D01*
X141231522Y-119695465D01*
X141199500Y-119897648D01*
X138500500Y-119897648D01*
X138500500Y-109737648D01*
X141199500Y-109737648D01*
X141199500Y-109942351D01*
X141231522Y-110144534D01*
X141294781Y-110339223D01*
X141358691Y-110464653D01*
X141384617Y-110515534D01*
X141387715Y-110521613D01*
X141508028Y-110687213D01*
X141652786Y-110831971D01*
X141807749Y-110944556D01*
X141818390Y-110952287D01*
X141918446Y-111003268D01*
X142000776Y-111045218D01*
X142000778Y-111045218D01*
X142000781Y-111045220D01*
X142086618Y-111073110D01*
X142195465Y-111108477D01*
X142278964Y-111121702D01*
X142397648Y-111140500D01*
X142397649Y-111140500D01*
X142602351Y-111140500D01*
X142602352Y-111140500D01*
X142804534Y-111108477D01*
X142999219Y-111045220D01*
X143181610Y-110952287D01*
X143307590Y-110860758D01*
X143347213Y-110831971D01*
X143347215Y-110831968D01*
X143347219Y-110831966D01*
X143491966Y-110687219D01*
X143491968Y-110687215D01*
X143491971Y-110687213D01*
X143544732Y-110614590D01*
X143612287Y-110521610D01*
X143705220Y-110339219D01*
X143768477Y-110144534D01*
X143800500Y-109942352D01*
X143800500Y-109737648D01*
X143768477Y-109535466D01*
X143705220Y-109340781D01*
X143705218Y-109340778D01*
X143705218Y-109340776D01*
X143671503Y-109274607D01*
X143612287Y-109158390D01*
X143589810Y-109127453D01*
X143491971Y-108992786D01*
X143347213Y-108848028D01*
X143181613Y-108727715D01*
X143181612Y-108727714D01*
X143181610Y-108727713D01*
X143124653Y-108698691D01*
X142999223Y-108634781D01*
X142804534Y-108571522D01*
X142629995Y-108543878D01*
X142602352Y-108539500D01*
X142397648Y-108539500D01*
X142373329Y-108543351D01*
X142195465Y-108571522D01*
X142000776Y-108634781D01*
X141818386Y-108727715D01*
X141652786Y-108848028D01*
X141508028Y-108992786D01*
X141387715Y-109158386D01*
X141294781Y-109340776D01*
X141231522Y-109535465D01*
X141199500Y-109737648D01*
X138500500Y-109737648D01*
X138500500Y-103421153D01*
X140199500Y-103421153D01*
X140199500Y-103578846D01*
X140230261Y-103733489D01*
X140230264Y-103733501D01*
X140290602Y-103879172D01*
X140290609Y-103879185D01*
X140378210Y-104010288D01*
X140378213Y-104010292D01*
X140489707Y-104121786D01*
X140489711Y-104121789D01*
X140620814Y-104209390D01*
X140620827Y-104209397D01*
X140766498Y-104269735D01*
X140766503Y-104269737D01*
X140921153Y-104300499D01*
X140921156Y-104300500D01*
X140921158Y-104300500D01*
X141078844Y-104300500D01*
X141078845Y-104300499D01*
X141233497Y-104269737D01*
X141379179Y-104209394D01*
X141510289Y-104121789D01*
X141621789Y-104010289D01*
X141709394Y-103879179D01*
X141769737Y-103733497D01*
X141789113Y-103636085D01*
X141800638Y-103578150D01*
X141833023Y-103516239D01*
X141834518Y-103514716D01*
X146217333Y-99131902D01*
X152749500Y-99131902D01*
X152749500Y-99368097D01*
X152786446Y-99601368D01*
X152859433Y-99825996D01*
X152953336Y-100010289D01*
X152966657Y-100036433D01*
X153105483Y-100227510D01*
X153272490Y-100394517D01*
X153463567Y-100533343D01*
X153562991Y-100584002D01*
X153674003Y-100640566D01*
X153674005Y-100640566D01*
X153674008Y-100640568D01*
X153794412Y-100679689D01*
X153898631Y-100713553D01*
X154131903Y-100750500D01*
X154131908Y-100750500D01*
X154368097Y-100750500D01*
X154601368Y-100713553D01*
X154825992Y-100640568D01*
X155036433Y-100533343D01*
X155227510Y-100394517D01*
X155394517Y-100227510D01*
X155407255Y-100209976D01*
X155462583Y-100167309D01*
X155532197Y-100161328D01*
X155576464Y-100179756D01*
X155620821Y-100209394D01*
X155620823Y-100209395D01*
X155620827Y-100209397D01*
X155766498Y-100269735D01*
X155766503Y-100269737D01*
X155921153Y-100300499D01*
X155921156Y-100300500D01*
X155921158Y-100300500D01*
X156078844Y-100300500D01*
X156078845Y-100300499D01*
X156233497Y-100269737D01*
X156379179Y-100209394D01*
X156510289Y-100121789D01*
X156621789Y-100010289D01*
X156691734Y-99905608D01*
X156745346Y-99860804D01*
X156794836Y-99850500D01*
X159295932Y-99850500D01*
X159362971Y-99870185D01*
X159406416Y-99918203D01*
X159466657Y-100036433D01*
X159605483Y-100227510D01*
X159772490Y-100394517D01*
X159963567Y-100533343D01*
X160062991Y-100584002D01*
X160174003Y-100640566D01*
X160174005Y-100640566D01*
X160174008Y-100640568D01*
X160294412Y-100679689D01*
X160398631Y-100713553D01*
X160631903Y-100750500D01*
X160631908Y-100750500D01*
X160868097Y-100750500D01*
X161101368Y-100713553D01*
X161325992Y-100640568D01*
X161536433Y-100533343D01*
X161727510Y-100394517D01*
X161894517Y-100227510D01*
X162033343Y-100036433D01*
X162140568Y-99825992D01*
X162213553Y-99601368D01*
X162250500Y-99368097D01*
X162250500Y-99131902D01*
X162213553Y-98898631D01*
X162156581Y-98723291D01*
X162140568Y-98674008D01*
X162140566Y-98674005D01*
X162140566Y-98674003D01*
X162033342Y-98463566D01*
X161894517Y-98272490D01*
X161727510Y-98105483D01*
X161536433Y-97966657D01*
X161325996Y-97859433D01*
X161101368Y-97786446D01*
X160868097Y-97749500D01*
X160868092Y-97749500D01*
X160631908Y-97749500D01*
X160631903Y-97749500D01*
X160398631Y-97786446D01*
X160174003Y-97859433D01*
X159963566Y-97966657D01*
X159854550Y-98045862D01*
X159772490Y-98105483D01*
X159772488Y-98105485D01*
X159772487Y-98105485D01*
X159605485Y-98272487D01*
X159605485Y-98272488D01*
X159605483Y-98272490D01*
X159545862Y-98354550D01*
X159466657Y-98463566D01*
X159406417Y-98581795D01*
X159358442Y-98632591D01*
X159295932Y-98649500D01*
X156170940Y-98649500D01*
X156130019Y-98660464D01*
X156130019Y-98660465D01*
X156018216Y-98690423D01*
X156018214Y-98690424D01*
X156010366Y-98692527D01*
X156010347Y-98692458D01*
X155989266Y-98698240D01*
X155980494Y-98699500D01*
X155921158Y-98699500D01*
X155766994Y-98730165D01*
X155763682Y-98730641D01*
X155732267Y-98726119D01*
X155700653Y-98723291D01*
X155697933Y-98721178D01*
X155694525Y-98720688D01*
X155670544Y-98699901D01*
X155645475Y-98680428D01*
X155642552Y-98675639D01*
X155641728Y-98674925D01*
X155641368Y-98673699D01*
X155635571Y-98664201D01*
X155533343Y-98463567D01*
X155394517Y-98272490D01*
X155227510Y-98105483D01*
X155036433Y-97966657D01*
X154825996Y-97859433D01*
X154601368Y-97786446D01*
X154368097Y-97749500D01*
X154368092Y-97749500D01*
X154131908Y-97749500D01*
X154131903Y-97749500D01*
X153898631Y-97786446D01*
X153674003Y-97859433D01*
X153463566Y-97966657D01*
X153354550Y-98045862D01*
X153272490Y-98105483D01*
X153272488Y-98105485D01*
X153272487Y-98105485D01*
X153105485Y-98272487D01*
X153105485Y-98272488D01*
X153105483Y-98272490D01*
X153045862Y-98354550D01*
X152966657Y-98463566D01*
X152859433Y-98674003D01*
X152786446Y-98898631D01*
X152749500Y-99131902D01*
X146217333Y-99131902D01*
X148951587Y-96397648D01*
X171699500Y-96397648D01*
X171699500Y-96602351D01*
X171731522Y-96804534D01*
X171794781Y-96999223D01*
X171887715Y-97181613D01*
X172008028Y-97347213D01*
X172152786Y-97491971D01*
X172307749Y-97604556D01*
X172318390Y-97612287D01*
X172434607Y-97671503D01*
X172500776Y-97705218D01*
X172500778Y-97705218D01*
X172500781Y-97705220D01*
X172605137Y-97739127D01*
X172695465Y-97768477D01*
X172796557Y-97784488D01*
X172897648Y-97800500D01*
X172897649Y-97800500D01*
X173102351Y-97800500D01*
X173102352Y-97800500D01*
X173304534Y-97768477D01*
X173499219Y-97705220D01*
X173681610Y-97612287D01*
X173774590Y-97544732D01*
X173847213Y-97491971D01*
X173847215Y-97491968D01*
X173847219Y-97491966D01*
X173991966Y-97347219D01*
X173991968Y-97347215D01*
X173991971Y-97347213D01*
X174044732Y-97274590D01*
X174112287Y-97181610D01*
X174205220Y-96999219D01*
X174268477Y-96804534D01*
X174300500Y-96602352D01*
X174300500Y-96397648D01*
X174268477Y-96195465D01*
X174215662Y-96032918D01*
X174205220Y-96000781D01*
X174205218Y-96000778D01*
X174205218Y-96000776D01*
X174171503Y-95934607D01*
X174112287Y-95818390D01*
X174104556Y-95807749D01*
X173991971Y-95652786D01*
X173847213Y-95508028D01*
X173681613Y-95387715D01*
X173681612Y-95387714D01*
X173681610Y-95387713D01*
X173624653Y-95358691D01*
X173499223Y-95294781D01*
X173304534Y-95231522D01*
X173129995Y-95203878D01*
X173102352Y-95199500D01*
X172897648Y-95199500D01*
X172873329Y-95203351D01*
X172695465Y-95231522D01*
X172500776Y-95294781D01*
X172318386Y-95387715D01*
X172152786Y-95508028D01*
X172008028Y-95652786D01*
X171887715Y-95818386D01*
X171794781Y-96000776D01*
X171731522Y-96195465D01*
X171699500Y-96397648D01*
X148951587Y-96397648D01*
X150717288Y-94631947D01*
X152750000Y-94631947D01*
X152750000Y-94868052D01*
X152786934Y-95101247D01*
X152859897Y-95325802D01*
X152967087Y-95536174D01*
X153027338Y-95619104D01*
X153027340Y-95619105D01*
X153726212Y-94920233D01*
X153737482Y-94962292D01*
X153809890Y-95087708D01*
X153912292Y-95190110D01*
X154037708Y-95262518D01*
X154079765Y-95273787D01*
X153380893Y-95972658D01*
X153463828Y-96032914D01*
X153674197Y-96140102D01*
X153898752Y-96213065D01*
X153898751Y-96213065D01*
X154131948Y-96250000D01*
X154368052Y-96250000D01*
X154601247Y-96213065D01*
X154825802Y-96140102D01*
X155036163Y-96032918D01*
X155036169Y-96032914D01*
X155119104Y-95972658D01*
X155119105Y-95972658D01*
X154420233Y-95273787D01*
X154462292Y-95262518D01*
X154587708Y-95190110D01*
X154690110Y-95087708D01*
X154762518Y-94962292D01*
X154773787Y-94920234D01*
X155472658Y-95619105D01*
X155472658Y-95619104D01*
X155532914Y-95536169D01*
X155532918Y-95536163D01*
X155640102Y-95325802D01*
X155713065Y-95101247D01*
X155750000Y-94868052D01*
X155750000Y-94631947D01*
X159250000Y-94631947D01*
X159250000Y-94868052D01*
X159286934Y-95101247D01*
X159359897Y-95325802D01*
X159467087Y-95536174D01*
X159527338Y-95619104D01*
X159527340Y-95619105D01*
X160226212Y-94920233D01*
X160237482Y-94962292D01*
X160309890Y-95087708D01*
X160412292Y-95190110D01*
X160537708Y-95262518D01*
X160579765Y-95273787D01*
X159880893Y-95972658D01*
X159963828Y-96032914D01*
X160174197Y-96140102D01*
X160398752Y-96213065D01*
X160398751Y-96213065D01*
X160631948Y-96250000D01*
X160868052Y-96250000D01*
X161101247Y-96213065D01*
X161325802Y-96140102D01*
X161536163Y-96032918D01*
X161536169Y-96032914D01*
X161619104Y-95972658D01*
X161619105Y-95972658D01*
X160920233Y-95273787D01*
X160962292Y-95262518D01*
X161087708Y-95190110D01*
X161190110Y-95087708D01*
X161262518Y-94962292D01*
X161273787Y-94920233D01*
X161972658Y-95619105D01*
X161972658Y-95619104D01*
X162032914Y-95536169D01*
X162032918Y-95536163D01*
X162140102Y-95325802D01*
X162213065Y-95101247D01*
X162250000Y-94868052D01*
X162250000Y-94631947D01*
X162213065Y-94398752D01*
X162140102Y-94174197D01*
X162032914Y-93963828D01*
X161972658Y-93880894D01*
X161972658Y-93880893D01*
X161273787Y-94579765D01*
X161262518Y-94537708D01*
X161190110Y-94412292D01*
X161087708Y-94309890D01*
X160962292Y-94237482D01*
X160920234Y-94226212D01*
X161619105Y-93527340D01*
X161619104Y-93527338D01*
X161536174Y-93467087D01*
X161325802Y-93359897D01*
X161101247Y-93286934D01*
X161101248Y-93286934D01*
X160868052Y-93250000D01*
X160631948Y-93250000D01*
X160398752Y-93286934D01*
X160174197Y-93359897D01*
X159963830Y-93467084D01*
X159880894Y-93527340D01*
X160579766Y-94226212D01*
X160537708Y-94237482D01*
X160412292Y-94309890D01*
X160309890Y-94412292D01*
X160237482Y-94537708D01*
X160226212Y-94579766D01*
X159527340Y-93880894D01*
X159467084Y-93963830D01*
X159359897Y-94174197D01*
X159286934Y-94398752D01*
X159250000Y-94631947D01*
X155750000Y-94631947D01*
X155713065Y-94398752D01*
X155640102Y-94174197D01*
X155532914Y-93963828D01*
X155472658Y-93880894D01*
X155472658Y-93880893D01*
X154773787Y-94579765D01*
X154762518Y-94537708D01*
X154690110Y-94412292D01*
X154587708Y-94309890D01*
X154462292Y-94237482D01*
X154420234Y-94226212D01*
X155119105Y-93527340D01*
X155119104Y-93527339D01*
X155036174Y-93467087D01*
X154825802Y-93359897D01*
X154601247Y-93286934D01*
X154601248Y-93286934D01*
X154368052Y-93250000D01*
X154131948Y-93250000D01*
X153898752Y-93286934D01*
X153674197Y-93359897D01*
X153463830Y-93467084D01*
X153380894Y-93527340D01*
X154079766Y-94226212D01*
X154037708Y-94237482D01*
X153912292Y-94309890D01*
X153809890Y-94412292D01*
X153737482Y-94537708D01*
X153726212Y-94579766D01*
X153027340Y-93880894D01*
X152967084Y-93963830D01*
X152859897Y-94174197D01*
X152786934Y-94398752D01*
X152750000Y-94631947D01*
X150717288Y-94631947D01*
X153928083Y-91421153D01*
X157199500Y-91421153D01*
X157199500Y-91578846D01*
X157230261Y-91733489D01*
X157230264Y-91733501D01*
X157290602Y-91879172D01*
X157290609Y-91879185D01*
X157378210Y-92010288D01*
X157378213Y-92010292D01*
X157489707Y-92121786D01*
X157489711Y-92121789D01*
X157620814Y-92209390D01*
X157620827Y-92209397D01*
X157766498Y-92269735D01*
X157766503Y-92269737D01*
X157921153Y-92300499D01*
X157921156Y-92300500D01*
X157921158Y-92300500D01*
X158078844Y-92300500D01*
X158078845Y-92300499D01*
X158233497Y-92269737D01*
X158379179Y-92209394D01*
X158379185Y-92209390D01*
X158510875Y-92121398D01*
X158577553Y-92100520D01*
X158579766Y-92100500D01*
X160420234Y-92100500D01*
X160487273Y-92120185D01*
X160489125Y-92121398D01*
X160620814Y-92209390D01*
X160620827Y-92209397D01*
X160766498Y-92269735D01*
X160766503Y-92269737D01*
X160921153Y-92300499D01*
X160921156Y-92300500D01*
X160921158Y-92300500D01*
X161078844Y-92300500D01*
X161078845Y-92300499D01*
X161233497Y-92269737D01*
X161379179Y-92209394D01*
X161510289Y-92121789D01*
X161621789Y-92010289D01*
X161709394Y-91879179D01*
X161769737Y-91733497D01*
X161800500Y-91578842D01*
X161800500Y-91421158D01*
X161800500Y-91421155D01*
X161800499Y-91421153D01*
X161769738Y-91266510D01*
X161769737Y-91266503D01*
X161769735Y-91266498D01*
X161709397Y-91120827D01*
X161709390Y-91120814D01*
X161621789Y-90989711D01*
X161621786Y-90989707D01*
X161510292Y-90878213D01*
X161510288Y-90878210D01*
X161379185Y-90790609D01*
X161379172Y-90790602D01*
X161233501Y-90730264D01*
X161233489Y-90730261D01*
X161078845Y-90699500D01*
X161078842Y-90699500D01*
X160921158Y-90699500D01*
X160921155Y-90699500D01*
X160766510Y-90730261D01*
X160766498Y-90730264D01*
X160620827Y-90790602D01*
X160620814Y-90790609D01*
X160489125Y-90878602D01*
X160422447Y-90899480D01*
X160420234Y-90899500D01*
X158579766Y-90899500D01*
X158512727Y-90879815D01*
X158510875Y-90878602D01*
X158379185Y-90790609D01*
X158379172Y-90790602D01*
X158233501Y-90730264D01*
X158233489Y-90730261D01*
X158078845Y-90699500D01*
X158078842Y-90699500D01*
X157921158Y-90699500D01*
X157921155Y-90699500D01*
X157766510Y-90730261D01*
X157766498Y-90730264D01*
X157620827Y-90790602D01*
X157620814Y-90790609D01*
X157489711Y-90878210D01*
X157489707Y-90878213D01*
X157378213Y-90989707D01*
X157378210Y-90989711D01*
X157290609Y-91120814D01*
X157290602Y-91120827D01*
X157230264Y-91266498D01*
X157230261Y-91266510D01*
X157199500Y-91421153D01*
X153928083Y-91421153D01*
X155535520Y-89813716D01*
X155614577Y-89676784D01*
X155655501Y-89524057D01*
X155655501Y-89365942D01*
X155655501Y-89358347D01*
X155655500Y-89358329D01*
X155655500Y-89277219D01*
X155675185Y-89210180D01*
X155727989Y-89164425D01*
X155797147Y-89154481D01*
X155837960Y-89167864D01*
X155840814Y-89169389D01*
X155840821Y-89169394D01*
X155840827Y-89169396D01*
X155840830Y-89169398D01*
X155905691Y-89196264D01*
X155986503Y-89229737D01*
X156141153Y-89260499D01*
X156141156Y-89260500D01*
X156141158Y-89260500D01*
X156298844Y-89260500D01*
X156298845Y-89260499D01*
X156453497Y-89229737D01*
X156566166Y-89183067D01*
X156599172Y-89169397D01*
X156599172Y-89169396D01*
X156599179Y-89169394D01*
X156730289Y-89081789D01*
X156841789Y-88970289D01*
X156929394Y-88839179D01*
X156989737Y-88693497D01*
X157020500Y-88538842D01*
X157020500Y-88381158D01*
X157020500Y-88381155D01*
X157020499Y-88381153D01*
X156989738Y-88226510D01*
X156989737Y-88226503D01*
X156989735Y-88226498D01*
X156929397Y-88080827D01*
X156929390Y-88080814D01*
X156841789Y-87949711D01*
X156841786Y-87949707D01*
X156774339Y-87882260D01*
X156740854Y-87820937D01*
X156745838Y-87751245D01*
X156787710Y-87695312D01*
X156805725Y-87684094D01*
X156935678Y-87617880D01*
X157109563Y-87491545D01*
X157261545Y-87339563D01*
X157387880Y-87165678D01*
X157387879Y-87165678D01*
X157389682Y-87163198D01*
X157445012Y-87120532D01*
X157514625Y-87114553D01*
X157576420Y-87147159D01*
X157590318Y-87163198D01*
X157592120Y-87165678D01*
X157718455Y-87339563D01*
X157870437Y-87491545D01*
X158044322Y-87617880D01*
X158138251Y-87665739D01*
X158235829Y-87715458D01*
X158235832Y-87715459D01*
X158426494Y-87777408D01*
X158440245Y-87781876D01*
X158652533Y-87815500D01*
X158652534Y-87815500D01*
X158867466Y-87815500D01*
X158867467Y-87815500D01*
X159079755Y-87781876D01*
X159079758Y-87781875D01*
X159079759Y-87781875D01*
X159284167Y-87715459D01*
X159284170Y-87715458D01*
X159285079Y-87714995D01*
X159475678Y-87617880D01*
X159649563Y-87491545D01*
X159744092Y-87397015D01*
X159805411Y-87363533D01*
X159875103Y-87368517D01*
X159931037Y-87410388D01*
X159947952Y-87441366D01*
X159991202Y-87557328D01*
X159991206Y-87557335D01*
X160077452Y-87672544D01*
X160077455Y-87672547D01*
X160192664Y-87758793D01*
X160192671Y-87758797D01*
X160327517Y-87809091D01*
X160327516Y-87809091D01*
X160334444Y-87809835D01*
X160387127Y-87815500D01*
X162212872Y-87815499D01*
X162272483Y-87809091D01*
X162407331Y-87758796D01*
X162522546Y-87672546D01*
X162608796Y-87557331D01*
X162659091Y-87422483D01*
X162665500Y-87362873D01*
X162665499Y-86237682D01*
X171700000Y-86237682D01*
X171700000Y-86442317D01*
X171732009Y-86644417D01*
X171795244Y-86839031D01*
X171888141Y-87021350D01*
X171888147Y-87021359D01*
X171920523Y-87065921D01*
X171920524Y-87065922D01*
X172600000Y-86386446D01*
X172600000Y-86392661D01*
X172627259Y-86494394D01*
X172679920Y-86585606D01*
X172754394Y-86660080D01*
X172845606Y-86712741D01*
X172947339Y-86740000D01*
X172953553Y-86740000D01*
X172274076Y-87419474D01*
X172318650Y-87451859D01*
X172500968Y-87544755D01*
X172695582Y-87607990D01*
X172897683Y-87640000D01*
X173102317Y-87640000D01*
X173304417Y-87607990D01*
X173499031Y-87544755D01*
X173681349Y-87451859D01*
X173725921Y-87419474D01*
X173046447Y-86740000D01*
X173052661Y-86740000D01*
X173154394Y-86712741D01*
X173245606Y-86660080D01*
X173320080Y-86585606D01*
X173372741Y-86494394D01*
X173400000Y-86392661D01*
X173400000Y-86386448D01*
X174079474Y-87065922D01*
X174079474Y-87065921D01*
X174111859Y-87021349D01*
X174204755Y-86839031D01*
X174267990Y-86644417D01*
X174300000Y-86442317D01*
X174300000Y-86237682D01*
X174267990Y-86035582D01*
X174204755Y-85840968D01*
X174111859Y-85658650D01*
X174079474Y-85614077D01*
X174079474Y-85614076D01*
X173400000Y-86293551D01*
X173400000Y-86287339D01*
X173372741Y-86185606D01*
X173320080Y-86094394D01*
X173245606Y-86019920D01*
X173154394Y-85967259D01*
X173052661Y-85940000D01*
X173046446Y-85940000D01*
X173725922Y-85260524D01*
X173725921Y-85260523D01*
X173681359Y-85228147D01*
X173681350Y-85228141D01*
X173499031Y-85135244D01*
X173304417Y-85072009D01*
X173102317Y-85040000D01*
X172897683Y-85040000D01*
X172695582Y-85072009D01*
X172500968Y-85135244D01*
X172318644Y-85228143D01*
X172274077Y-85260523D01*
X172274077Y-85260524D01*
X172953554Y-85940000D01*
X172947339Y-85940000D01*
X172845606Y-85967259D01*
X172754394Y-86019920D01*
X172679920Y-86094394D01*
X172627259Y-86185606D01*
X172600000Y-86287339D01*
X172600000Y-86293553D01*
X171920524Y-85614077D01*
X171920523Y-85614077D01*
X171888143Y-85658644D01*
X171795244Y-85840968D01*
X171732009Y-86035582D01*
X171700000Y-86237682D01*
X162665499Y-86237682D01*
X162665499Y-85237128D01*
X162659091Y-85177517D01*
X162643324Y-85135244D01*
X162608797Y-85042671D01*
X162608793Y-85042664D01*
X162522547Y-84927455D01*
X162522544Y-84927452D01*
X162407335Y-84841206D01*
X162407328Y-84841202D01*
X162272482Y-84790908D01*
X162272483Y-84790908D01*
X162212883Y-84784501D01*
X162212881Y-84784500D01*
X162212873Y-84784500D01*
X162212864Y-84784500D01*
X160387129Y-84784500D01*
X160387123Y-84784501D01*
X160327516Y-84790908D01*
X160192671Y-84841202D01*
X160192664Y-84841206D01*
X160077455Y-84927452D01*
X160077452Y-84927455D01*
X159991206Y-85042664D01*
X159991202Y-85042671D01*
X159947952Y-85158633D01*
X159906081Y-85214567D01*
X159840617Y-85238984D01*
X159772344Y-85224133D01*
X159744089Y-85202981D01*
X159649565Y-85108457D01*
X159649563Y-85108455D01*
X159475678Y-84982120D01*
X159284170Y-84884541D01*
X159284167Y-84884540D01*
X159079757Y-84818124D01*
X158938229Y-84795708D01*
X158867467Y-84784500D01*
X158652533Y-84784500D01*
X158581770Y-84795708D01*
X158440243Y-84818124D01*
X158440240Y-84818124D01*
X158235832Y-84884540D01*
X158235829Y-84884541D01*
X158044321Y-84982120D01*
X157960981Y-85042671D01*
X157870437Y-85108455D01*
X157870435Y-85108457D01*
X157870434Y-85108457D01*
X157718457Y-85260434D01*
X157718457Y-85260435D01*
X157718455Y-85260437D01*
X157621023Y-85394539D01*
X157590318Y-85436802D01*
X157534988Y-85479467D01*
X157465374Y-85485446D01*
X157403579Y-85452840D01*
X157389682Y-85436802D01*
X157376836Y-85419121D01*
X157261545Y-85260437D01*
X157109563Y-85108455D01*
X156935678Y-84982120D01*
X156744170Y-84884541D01*
X156744167Y-84884540D01*
X156539757Y-84818124D01*
X156398229Y-84795708D01*
X156327467Y-84784500D01*
X156112533Y-84784500D01*
X156041770Y-84795708D01*
X155900243Y-84818124D01*
X155900236Y-84818125D01*
X155817817Y-84844905D01*
X155747976Y-84846900D01*
X155688144Y-84810819D01*
X155657316Y-84748118D01*
X155655500Y-84726974D01*
X155655500Y-80745097D01*
X155675185Y-80678058D01*
X155691819Y-80657416D01*
X156384757Y-79964478D01*
X158514664Y-77834571D01*
X158575985Y-77801088D01*
X158578152Y-77800637D01*
X158578841Y-77800500D01*
X158578842Y-77800500D01*
X158733497Y-77769737D01*
X158879179Y-77709394D01*
X159010289Y-77621789D01*
X159121789Y-77510289D01*
X159209394Y-77379179D01*
X159269737Y-77233497D01*
X159300500Y-77078842D01*
X159300500Y-76921158D01*
X159300500Y-76921155D01*
X159300499Y-76921153D01*
X159269738Y-76766510D01*
X159269738Y-76766508D01*
X159269737Y-76766503D01*
X159269735Y-76766498D01*
X159209397Y-76620827D01*
X159209390Y-76620814D01*
X159121789Y-76489711D01*
X159121786Y-76489707D01*
X159010292Y-76378213D01*
X159010288Y-76378210D01*
X158879185Y-76290609D01*
X158879172Y-76290602D01*
X158733501Y-76230264D01*
X158733489Y-76230261D01*
X158578845Y-76199500D01*
X158578842Y-76199500D01*
X158421158Y-76199500D01*
X158421155Y-76199500D01*
X158266510Y-76230261D01*
X158266498Y-76230264D01*
X158120827Y-76290602D01*
X158120814Y-76290609D01*
X157989711Y-76378210D01*
X157989707Y-76378213D01*
X157878213Y-76489707D01*
X157878210Y-76489711D01*
X157790609Y-76620814D01*
X157790602Y-76620827D01*
X157730264Y-76766498D01*
X157730261Y-76766508D01*
X157699362Y-76921848D01*
X157666977Y-76983759D01*
X157665426Y-76985337D01*
X154686286Y-79964478D01*
X154574481Y-80076282D01*
X154574479Y-80076285D01*
X154524361Y-80163094D01*
X154524359Y-80163096D01*
X154495425Y-80213209D01*
X154495424Y-80213210D01*
X154495423Y-80213215D01*
X154454499Y-80365943D01*
X154454499Y-80365945D01*
X154454499Y-80534046D01*
X154454500Y-80534059D01*
X154454500Y-84810302D01*
X154434815Y-84877341D01*
X154382011Y-84923096D01*
X154312853Y-84933040D01*
X154274206Y-84920787D01*
X154203978Y-84885004D01*
X153999635Y-84818610D01*
X153999636Y-84818610D01*
X153930000Y-84807581D01*
X153930000Y-85855439D01*
X153876853Y-85824755D01*
X153747143Y-85790000D01*
X153612857Y-85790000D01*
X153483147Y-85824755D01*
X153430000Y-85855439D01*
X153430000Y-84807581D01*
X153360364Y-84818610D01*
X153156024Y-84885003D01*
X152964583Y-84982547D01*
X152790759Y-85108838D01*
X152638838Y-85260759D01*
X152512547Y-85434583D01*
X152415003Y-85626024D01*
X152348611Y-85830357D01*
X152348611Y-85830360D01*
X152315000Y-86042572D01*
X152315000Y-86050000D01*
X153235440Y-86050000D01*
X153204755Y-86103147D01*
X153170000Y-86232857D01*
X153170000Y-86367143D01*
X153204755Y-86496853D01*
X153235440Y-86550000D01*
X152315000Y-86550000D01*
X152315000Y-86557427D01*
X152348611Y-86769639D01*
X152348611Y-86769642D01*
X152415003Y-86973975D01*
X152512547Y-87165416D01*
X152638838Y-87339240D01*
X152790759Y-87491161D01*
X152964583Y-87617452D01*
X153156024Y-87714996D01*
X153360359Y-87781388D01*
X153429999Y-87792418D01*
X153430000Y-87792418D01*
X153430000Y-86744560D01*
X153483147Y-86775245D01*
X153612857Y-86810000D01*
X153747143Y-86810000D01*
X153876853Y-86775245D01*
X153930000Y-86744560D01*
X153930000Y-87792418D01*
X153999638Y-87781388D01*
X153999641Y-87781388D01*
X154203977Y-87714995D01*
X154274204Y-87679213D01*
X154342873Y-87666316D01*
X154407614Y-87692592D01*
X154447872Y-87749698D01*
X154454500Y-87789697D01*
X154454500Y-89144902D01*
X154434815Y-89211941D01*
X154418181Y-89232583D01*
X140985339Y-102665425D01*
X140924016Y-102698910D01*
X140921850Y-102699361D01*
X140766508Y-102730261D01*
X140766498Y-102730264D01*
X140620827Y-102790602D01*
X140620814Y-102790609D01*
X140489711Y-102878210D01*
X140489707Y-102878213D01*
X140378213Y-102989707D01*
X140378210Y-102989711D01*
X140290609Y-103120814D01*
X140290602Y-103120827D01*
X140230264Y-103266498D01*
X140230261Y-103266510D01*
X140199500Y-103421153D01*
X138500500Y-103421153D01*
X138500500Y-96397648D01*
X141199500Y-96397648D01*
X141199500Y-96602351D01*
X141231522Y-96804534D01*
X141294781Y-96999223D01*
X141387715Y-97181613D01*
X141508028Y-97347213D01*
X141652786Y-97491971D01*
X141807749Y-97604556D01*
X141818390Y-97612287D01*
X141934607Y-97671503D01*
X142000776Y-97705218D01*
X142000778Y-97705218D01*
X142000781Y-97705220D01*
X142105137Y-97739127D01*
X142195465Y-97768477D01*
X142296557Y-97784488D01*
X142397648Y-97800500D01*
X142397649Y-97800500D01*
X142602351Y-97800500D01*
X142602352Y-97800500D01*
X142804534Y-97768477D01*
X142999219Y-97705220D01*
X143181610Y-97612287D01*
X143274590Y-97544732D01*
X143347213Y-97491971D01*
X143347215Y-97491968D01*
X143347219Y-97491966D01*
X143491966Y-97347219D01*
X143491968Y-97347215D01*
X143491971Y-97347213D01*
X143544732Y-97274590D01*
X143612287Y-97181610D01*
X143705220Y-96999219D01*
X143768477Y-96804534D01*
X143800500Y-96602352D01*
X143800500Y-96397648D01*
X143768477Y-96195465D01*
X143715662Y-96032918D01*
X143705220Y-96000781D01*
X143705218Y-96000778D01*
X143705218Y-96000776D01*
X143671503Y-95934607D01*
X143612287Y-95818390D01*
X143604556Y-95807749D01*
X143491971Y-95652786D01*
X143347213Y-95508028D01*
X143181613Y-95387715D01*
X143181612Y-95387714D01*
X143181610Y-95387713D01*
X143124653Y-95358691D01*
X142999223Y-95294781D01*
X142804534Y-95231522D01*
X142629995Y-95203878D01*
X142602352Y-95199500D01*
X142397648Y-95199500D01*
X142373329Y-95203351D01*
X142195465Y-95231522D01*
X142000776Y-95294781D01*
X141818386Y-95387715D01*
X141652786Y-95508028D01*
X141508028Y-95652786D01*
X141387715Y-95818386D01*
X141294781Y-96000776D01*
X141231522Y-96195465D01*
X141199500Y-96397648D01*
X138500500Y-96397648D01*
X138500500Y-86237682D01*
X141200000Y-86237682D01*
X141200000Y-86442317D01*
X141232009Y-86644417D01*
X141295244Y-86839031D01*
X141388141Y-87021350D01*
X141388147Y-87021359D01*
X141420523Y-87065921D01*
X141420524Y-87065922D01*
X142100000Y-86386446D01*
X142100000Y-86392661D01*
X142127259Y-86494394D01*
X142179920Y-86585606D01*
X142254394Y-86660080D01*
X142345606Y-86712741D01*
X142447339Y-86740000D01*
X142453553Y-86740000D01*
X141774076Y-87419474D01*
X141818650Y-87451859D01*
X142000968Y-87544755D01*
X142195582Y-87607990D01*
X142397683Y-87640000D01*
X142602317Y-87640000D01*
X142804417Y-87607990D01*
X142999031Y-87544755D01*
X143181349Y-87451859D01*
X143225921Y-87419474D01*
X142546447Y-86740000D01*
X142552661Y-86740000D01*
X142654394Y-86712741D01*
X142745606Y-86660080D01*
X142820080Y-86585606D01*
X142872741Y-86494394D01*
X142900000Y-86392661D01*
X142900000Y-86386448D01*
X143579474Y-87065922D01*
X143579474Y-87065921D01*
X143611859Y-87021349D01*
X143704755Y-86839031D01*
X143767990Y-86644417D01*
X143794152Y-86479240D01*
X143800000Y-86442317D01*
X143800000Y-86237682D01*
X143771398Y-86057098D01*
X143767989Y-86035581D01*
X143704755Y-85840968D01*
X143611859Y-85658650D01*
X143579474Y-85614077D01*
X143579474Y-85614076D01*
X142900000Y-86293551D01*
X142900000Y-86287339D01*
X142872741Y-86185606D01*
X142820080Y-86094394D01*
X142745606Y-86019920D01*
X142654394Y-85967259D01*
X142552661Y-85940000D01*
X142546446Y-85940000D01*
X143225922Y-85260524D01*
X143225921Y-85260523D01*
X143181359Y-85228147D01*
X143181350Y-85228141D01*
X142999031Y-85135244D01*
X142804417Y-85072009D01*
X142602317Y-85040000D01*
X142397683Y-85040000D01*
X142195582Y-85072009D01*
X142000968Y-85135244D01*
X141818644Y-85228143D01*
X141774077Y-85260523D01*
X141774077Y-85260524D01*
X142453554Y-85940000D01*
X142447339Y-85940000D01*
X142345606Y-85967259D01*
X142254394Y-86019920D01*
X142179920Y-86094394D01*
X142127259Y-86185606D01*
X142100000Y-86287339D01*
X142100000Y-86293553D01*
X141420524Y-85614077D01*
X141420523Y-85614077D01*
X141388143Y-85658644D01*
X141295244Y-85840968D01*
X141232009Y-86035582D01*
X141200000Y-86237682D01*
X138500500Y-86237682D01*
X138500500Y-73448210D01*
X138500638Y-73442370D01*
X138501612Y-73421722D01*
X138504598Y-73358390D01*
X138505984Y-73344853D01*
X138544463Y-73101906D01*
X138547853Y-73086739D01*
X138615102Y-72855270D01*
X138620374Y-72840627D01*
X138716106Y-72619400D01*
X138723163Y-72605550D01*
X138845868Y-72398068D01*
X138854602Y-72385215D01*
X139002351Y-72194739D01*
X139012635Y-72183075D01*
X139183076Y-72012634D01*
X139194740Y-72002350D01*
X139385211Y-71854605D01*
X139398064Y-71845870D01*
X139605550Y-71723163D01*
X139619400Y-71716106D01*
X139840629Y-71620372D01*
X139855270Y-71615102D01*
X140086739Y-71547853D01*
X140101906Y-71544463D01*
X140344853Y-71505984D01*
X140358390Y-71504598D01*
X140438433Y-71500823D01*
X140442371Y-71500638D01*
X140448211Y-71500500D01*
X174551789Y-71500500D01*
X174557629Y-71500638D01*
G37*
%TD.AperFunction*%
%TD*%
M02*
