%TF.GenerationSoftware,KiCad,Pcbnew,10.0.0*%
%TF.CreationDate,2026-03-22T21:15:01-07:00*%
%TF.ProjectId,autoShutterPCB,6175746f-5368-4757-9474-65725043422e,rev?*%
%TF.SameCoordinates,Original*%
%TF.FileFunction,Plated,1,2,PTH,Drill*%
%TF.FilePolarity,Positive*%
%FSLAX46Y46*%
G04 Gerber Fmt 4.6, Leading zero omitted, Abs format (unit mm)*
G04 Created by KiCad (PCBNEW 10.0.0) date 2026-03-22 21:15:01*
%MOMM*%
%LPD*%
G01*
G04 APERTURE LIST*
%TA.AperFunction,ViaDrill*%
%ADD10C,0.300000*%
%TD*%
%TA.AperFunction,ComponentDrill*%
%ADD11C,0.800000*%
%TD*%
%TA.AperFunction,ComponentDrill*%
%ADD12C,0.889000*%
%TD*%
%TA.AperFunction,ComponentDrill*%
%ADD13C,1.020000*%
%TD*%
%TA.AperFunction,ComponentDrill*%
%ADD14C,1.100000*%
%TD*%
G04 APERTURE END LIST*
D10*
X140000000Y-82000000D03*
X140500000Y-96000000D03*
X140500000Y-98000000D03*
X146500000Y-122500000D03*
X150500000Y-86500000D03*
X151000000Y-94500000D03*
X155000000Y-77000000D03*
X156505971Y-89522178D03*
X157000000Y-99000000D03*
X158000000Y-91500000D03*
X158500000Y-77000000D03*
X159500000Y-89500000D03*
X161000000Y-91500000D03*
X164500000Y-94500000D03*
X169000000Y-118000000D03*
X172000000Y-94500000D03*
X173000000Y-115500000D03*
X175500000Y-82000000D03*
D11*
%TO.C,R2*%
X142000000Y-103000000D03*
X142000000Y-113160000D03*
%TO.C,R3*%
X142500000Y-82000000D03*
X142500000Y-92160000D03*
%TO.C,R4*%
X173000000Y-82000000D03*
X173000000Y-92160000D03*
%TO.C,R1*%
X173000000Y-103000000D03*
X173000000Y-113160000D03*
D12*
%TO.C,U1*%
X149880000Y-107300000D03*
X149880000Y-109840000D03*
X149880000Y-112380000D03*
X149880000Y-114920000D03*
X149880000Y-117460000D03*
X149880000Y-120000000D03*
X149880000Y-122540000D03*
X165120000Y-107300000D03*
X165120000Y-109840000D03*
X165120000Y-112380000D03*
X165120000Y-114920000D03*
X165120000Y-117460000D03*
X165120000Y-120000000D03*
X165120000Y-122540000D03*
D13*
%TO.C,OLED1*%
X153680000Y-86300000D03*
X156220000Y-86300000D03*
X158760000Y-86300000D03*
X161300000Y-86300000D03*
D14*
%TO.C,Button1*%
X154250000Y-94750000D03*
X154250000Y-99250000D03*
X160750000Y-94750000D03*
X160750000Y-99250000D03*
M02*
