M48
; DRILL file KiCad 10.0.0 date 2026-03-22T14:27:44
; FORMAT={-:-/ absolute / metric / decimal}
; #@! TF.CreationDate,2026-03-22T14:27:44-07:00
; #@! TF.GenerationSoftware,Kicad,Pcbnew,10.0.0
; #@! TF.FileFunction,Plated,1,2,PTH
FMAT,2
METRIC
; #@! TA.AperFunction,Plated,PTH,ViaDrill
T1C0.300
; #@! TA.AperFunction,Plated,PTH,ComponentDrill
T2C0.800
; #@! TA.AperFunction,Plated,PTH,ComponentDrill
T3C0.889
; #@! TA.AperFunction,Plated,PTH,ComponentDrill
T4C1.020
; #@! TA.AperFunction,Plated,PTH,ComponentDrill
T5C1.100
%
G90
G05
T1
X140.5Y-102.0
X141.0Y-103.5
X142.5Y-83.5
X142.5Y-122.5
X150.5Y-86.5
X155.0Y-77.0
X156.0Y-99.5
X158.0Y-91.5
X158.5Y-77.0
X161.0Y-91.5
X169.5Y-120.0
X171.0Y-99.5
X173.0Y-82.5
T2
X142.5Y-86.34
X142.5Y-96.5
X142.5Y-109.84
X142.5Y-120.0
X173.0Y-86.34
X173.0Y-96.5
X173.0Y-109.84
X173.0Y-120.0
T3
X149.88Y-107.3
X149.88Y-109.84
X149.88Y-112.38
X149.88Y-114.92
X149.88Y-117.46
X149.88Y-120.0
X149.88Y-122.54
X165.12Y-107.3
X165.12Y-109.84
X165.12Y-112.38
X165.12Y-114.92
X165.12Y-117.46
X165.12Y-120.0
X165.12Y-122.54
T4
X153.68Y-86.3
X156.22Y-86.3
X158.76Y-86.3
X161.3Y-86.3
T5
X154.25Y-94.75
X154.25Y-99.25
X160.75Y-94.75
X160.75Y-99.25
M30
