%TF.GenerationSoftware,KiCad,Pcbnew,10.0.0*%
%TF.CreationDate,2026-03-22T14:26:28-07:00*%
%TF.ProjectId,autoShutterPCB,6175746f-5368-4757-9474-65725043422e,rev?*%
%TF.SameCoordinates,Original*%
%TF.FileFunction,Copper,L1,Top*%
%TF.FilePolarity,Positive*%
%FSLAX46Y46*%
G04 Gerber Fmt 4.6, Leading zero omitted, Abs format (unit mm)*
G04 Created by KiCad (PCBNEW 10.0.0) date 2026-03-22 14:26:28*
%MOMM*%
%LPD*%
G01*
G04 APERTURE LIST*
G04 Aperture macros list*
%AMRoundRect*
0 Rectangle with rounded corners*
0 $1 Rounding radius*
0 $2 $3 $4 $5 $6 $7 $8 $9 X,Y pos of 4 corners*
0 Add a 4 corners polygon primitive as box body*
4,1,4,$2,$3,$4,$5,$6,$7,$8,$9,$2,$3,0*
0 Add four circle primitives for the rounded corners*
1,1,$1+$1,$2,$3*
1,1,$1+$1,$4,$5*
1,1,$1+$1,$6,$7*
1,1,$1+$1,$8,$9*
0 Add four rect primitives between the rounded corners*
20,1,$1+$1,$2,$3,$4,$5,0*
20,1,$1+$1,$4,$5,$6,$7,0*
20,1,$1+$1,$6,$7,$8,$9,0*
20,1,$1+$1,$8,$9,$2,$3,0*%
G04 Aperture macros list end*
%TA.AperFunction,SMDPad,CuDef*%
%ADD10RoundRect,0.150000X-0.587500X-0.150000X0.587500X-0.150000X0.587500X0.150000X-0.587500X0.150000X0*%
%TD*%
%TA.AperFunction,ComponentPad*%
%ADD11C,1.600000*%
%TD*%
%TA.AperFunction,ComponentPad*%
%ADD12R,1.730000X2.030000*%
%TD*%
%TA.AperFunction,ComponentPad*%
%ADD13O,1.730000X2.030000*%
%TD*%
%TA.AperFunction,ComponentPad*%
%ADD14C,2.000000*%
%TD*%
%TA.AperFunction,SMDPad,CuDef*%
%ADD15RoundRect,0.300000X-0.700000X-0.700000X0.700000X-0.700000X0.700000X0.700000X-0.700000X0.700000X0*%
%TD*%
%TA.AperFunction,ComponentPad*%
%ADD16C,1.524000*%
%TD*%
%TA.AperFunction,ViaPad*%
%ADD17C,0.600000*%
%TD*%
%TA.AperFunction,Conductor*%
%ADD18C,0.200000*%
%TD*%
G04 APERTURE END LIST*
D10*
%TO.P,Transistor(Ring)1,2,B_1*%
%TO.N,GND*%
X142500000Y-102100000D03*
%TO.P,Transistor(Ring)1,3,E_2*%
%TO.N,/ring*%
X142500000Y-104000000D03*
%TO.P,Transistor(Ring)1,1,C_3*%
%TO.N,Net-(Transistor(Ring)1-B)*%
X144375000Y-103050000D03*
%TD*%
D11*
%TO.P,R3,1*%
%TO.N,Net-(Transistor(Ring)1-B)*%
X142500000Y-96500000D03*
%TO.P,R3,2*%
%TO.N,GND*%
X142500000Y-86340000D03*
%TD*%
D10*
%TO.P,Transistor(Tip)1,1,B_1*%
%TO.N,Net-(Transistor(Tip)1-B)*%
X173000000Y-103000000D03*
%TO.P,Transistor(Tip)1,2,E_2*%
%TO.N,GND*%
X171125000Y-102050000D03*
%TO.P,Transistor(Tip)1,3,C_3*%
%TO.N,/tip*%
X171125000Y-103950000D03*
%TD*%
D12*
%TO.P,OLED1,1,Pin_1_1*%
%TO.N,/scl*%
X161300000Y-86300000D03*
D13*
%TO.P,OLED1,2,Pin_2_2*%
%TO.N,/sda*%
X158760000Y-86300000D03*
%TO.P,OLED1,3,Pin_3_3*%
%TO.N,+3V3*%
X156220000Y-86300000D03*
%TO.P,OLED1,4,Pin_4_4*%
%TO.N,GND*%
X153680000Y-86300000D03*
%TD*%
D11*
%TO.P,R2,1*%
%TO.N,/d1*%
X142500000Y-120000000D03*
%TO.P,R2,2*%
%TO.N,Net-(Transistor(Ring)1-B)*%
X142500000Y-109840000D03*
%TD*%
D14*
%TO.P,Button1,1,1_1*%
%TO.N,GND*%
X154250000Y-94750000D03*
X160750000Y-94750000D03*
%TO.P,Button1,2,2_2*%
%TO.N,/d10B*%
X154250000Y-99250000D03*
X160750000Y-99250000D03*
%TD*%
D11*
%TO.P,R1,1*%
%TO.N,/d0*%
X173000000Y-120000000D03*
%TO.P,R1,2*%
%TO.N,Net-(Transistor(Tip)1-B)*%
X173000000Y-109840000D03*
%TD*%
%TO.P,R4,1*%
%TO.N,Net-(Transistor(Tip)1-B)*%
X173000000Y-96500000D03*
%TO.P,R4,2*%
%TO.N,GND*%
X173000000Y-86340000D03*
%TD*%
D15*
%TO.P,TRS1,1,Pin_1_1*%
%TO.N,unconnected-(TRS1-Pin_1-Pad1)*%
X153500000Y-74500000D03*
%TO.P,TRS1,2,Pin_2_2*%
%TO.N,GND*%
X156000000Y-74500000D03*
%TO.P,TRS1,3,Pin_3_3*%
%TO.N,/ring*%
X158500000Y-74500000D03*
%TO.P,TRS1,4,Pin_4_4*%
%TO.N,/tip*%
X161000000Y-74500000D03*
%TD*%
D16*
%TO.P,U1,1,P26_A0_D0_1*%
%TO.N,/d0*%
X149880000Y-122540000D03*
%TO.P,U1,2,P27_A1_D1_2*%
%TO.N,/d1*%
X149880000Y-120000000D03*
%TO.P,U1,3,P28_A2_D2_3*%
%TO.N,unconnected-(U1-P28_A2_D2-Pad3)*%
X149880000Y-117460000D03*
%TO.P,U1,4,P29_A3_D3_4*%
%TO.N,unconnected-(U1-P29_A3_D3-Pad4)*%
X149880000Y-114920000D03*
%TO.P,U1,5,P6_SDA_D4_5*%
%TO.N,/sda*%
X149880000Y-112380000D03*
%TO.P,U1,6,P7_SCL_D5_6*%
%TO.N,/scl*%
X149880000Y-109840000D03*
%TO.P,U1,7,P0_D6_TX_7*%
%TO.N,unconnected-(U1-P0_D6_TX-Pad7)*%
X149880000Y-107300000D03*
%TO.P,U1,8,P1_D7_RX_8*%
%TO.N,unconnected-(U1-P1_D7_RX-Pad8)*%
X165120000Y-107300000D03*
%TO.P,U1,9,P2_D8_SCK_9*%
%TO.N,unconnected-(U1-P2_D8_SCK-Pad9)*%
X165120000Y-109840000D03*
%TO.P,U1,10,P4_D9_MISO_10*%
%TO.N,unconnected-(U1-P4_D9_MISO-Pad10)*%
X165120000Y-112380000D03*
%TO.P,U1,11,P3_D10_MOSI_11*%
%TO.N,/d10B*%
X165120000Y-114920000D03*
%TO.P,U1,12,3V3_12*%
%TO.N,unconnected-(U1-3V3-Pad12)*%
X165120000Y-117460000D03*
%TO.P,U1,13,GND_13*%
%TO.N,GND*%
X165120000Y-120000000D03*
%TO.P,U1,14,VBUS_14*%
%TO.N,unconnected-(U1-VBUS-Pad14)*%
X165120000Y-122540000D03*
%TD*%
D17*
%TO.N,/d10B*%
X156000000Y-99500000D03*
%TO.N,/scl*%
X161000000Y-91500000D03*
X158000000Y-91500000D03*
%TO.N,GND*%
X171000000Y-99500000D03*
X173000000Y-82500000D03*
X155000000Y-77000000D03*
%TO.N,/ring*%
X158500000Y-77000000D03*
X141000000Y-103500000D03*
%TO.N,GND*%
X140500000Y-102000000D03*
X150500000Y-86500000D03*
X142500000Y-83500000D03*
X169500000Y-120000000D03*
%TO.N,/d0*%
X142500000Y-122500000D03*
%TD*%
%TO.N,/d10B*%
D18*
X155750000Y-99250000D02*
X156000000Y-99500000D01*
X154250000Y-99250000D02*
X155750000Y-99250000D01*
%TO.N,/scl*%
X149880000Y-109840000D02*
X158000000Y-101720000D01*
X158000000Y-101720000D02*
X158000000Y-91500000D01*
X161000000Y-91500000D02*
X161300000Y-91200000D01*
X161300000Y-91200000D02*
X161300000Y-86300000D01*
%TO.N,/sda*%
X149880000Y-112380000D02*
X157084000Y-112380000D01*
X158760000Y-110704000D02*
X158760000Y-86300000D01*
X157084000Y-112380000D02*
X158760000Y-110704000D01*
%TO.N,/d10B*%
X165120000Y-114920000D02*
X160750000Y-110550000D01*
X160750000Y-110550000D02*
X160750000Y-99250000D01*
%TO.N,GND*%
X171125000Y-99625000D02*
X171000000Y-99500000D01*
X171125000Y-102050000D02*
X171125000Y-99625000D01*
%TO.N,Net-(Transistor(Tip)1-B)*%
X173000000Y-103000000D02*
X173000000Y-96500000D01*
X173000000Y-109840000D02*
X173000000Y-103000000D01*
%TO.N,GND*%
X173000000Y-86340000D02*
X173000000Y-82500000D01*
X156000000Y-76000000D02*
X155000000Y-77000000D01*
X156000000Y-74500000D02*
X156000000Y-76000000D01*
%TO.N,/ring*%
X141500000Y-104000000D02*
X141000000Y-103500000D01*
X142500000Y-104000000D02*
X141500000Y-104000000D01*
X158500000Y-77000000D02*
X158500000Y-74500000D01*
%TO.N,GND*%
X140600000Y-102100000D02*
X140500000Y-102000000D01*
X142500000Y-102100000D02*
X140600000Y-102100000D01*
%TO.N,Net-(Transistor(Ring)1-B)*%
X144375000Y-103050000D02*
X144375000Y-102375000D01*
X144375000Y-102375000D02*
X142500000Y-100500000D01*
X142500000Y-100500000D02*
X142500000Y-96500000D01*
X142500000Y-109840000D02*
X144375000Y-107965000D01*
X144375000Y-107965000D02*
X144375000Y-103050000D01*
%TO.N,/tip*%
X161000000Y-74500000D02*
X170087500Y-83587500D01*
X170087500Y-83587500D02*
X170087500Y-102912500D01*
X170087500Y-102912500D02*
X171125000Y-103950000D01*
%TO.N,GND*%
X150700000Y-86300000D02*
X150500000Y-86500000D01*
X153680000Y-86300000D02*
X150700000Y-86300000D01*
X142500000Y-86340000D02*
X142500000Y-83500000D01*
X165120000Y-120000000D02*
X169500000Y-120000000D01*
%TO.N,/d0*%
X149880000Y-122540000D02*
X142540000Y-122540000D01*
X142540000Y-122540000D02*
X142500000Y-122500000D01*
%TO.N,/d1*%
X142500000Y-120000000D02*
X149880000Y-120000000D01*
%TD*%
M02*
