%TF.GenerationSoftware,KiCad,Pcbnew,10.0.0*%
%TF.CreationDate,2026-03-22T14:26:29-07:00*%
%TF.ProjectId,autoShutterPCB,6175746f-5368-4757-9474-65725043422e,rev?*%
%TF.SameCoordinates,Original*%
%TF.FileFunction,Legend,Top*%
%TF.FilePolarity,Positive*%
%FSLAX46Y46*%
G04 Gerber Fmt 4.6, Leading zero omitted, Abs format (unit mm)*
G04 Created by KiCad (PCBNEW 10.0.0) date 2026-03-22 14:26:29*
%MOMM*%
%LPD*%
G01*
G04 APERTURE LIST*
%ADD10C,0.150000*%
%ADD11C,0.100000*%
%ADD12C,0.120000*%
G04 APERTURE END LIST*
D10*
X137056547Y-100104819D02*
X137627975Y-100104819D01*
X137342261Y-101104819D02*
X137342261Y-100104819D01*
X137961309Y-101104819D02*
X137961309Y-100438152D01*
X137961309Y-100628628D02*
X138008928Y-100533390D01*
X138008928Y-100533390D02*
X138056547Y-100485771D01*
X138056547Y-100485771D02*
X138151785Y-100438152D01*
X138151785Y-100438152D02*
X138247023Y-100438152D01*
X139008928Y-101104819D02*
X139008928Y-100581009D01*
X139008928Y-100581009D02*
X138961309Y-100485771D01*
X138961309Y-100485771D02*
X138866071Y-100438152D01*
X138866071Y-100438152D02*
X138675595Y-100438152D01*
X138675595Y-100438152D02*
X138580357Y-100485771D01*
X139008928Y-101057200D02*
X138913690Y-101104819D01*
X138913690Y-101104819D02*
X138675595Y-101104819D01*
X138675595Y-101104819D02*
X138580357Y-101057200D01*
X138580357Y-101057200D02*
X138532738Y-100961961D01*
X138532738Y-100961961D02*
X138532738Y-100866723D01*
X138532738Y-100866723D02*
X138580357Y-100771485D01*
X138580357Y-100771485D02*
X138675595Y-100723866D01*
X138675595Y-100723866D02*
X138913690Y-100723866D01*
X138913690Y-100723866D02*
X139008928Y-100676247D01*
X139485119Y-100438152D02*
X139485119Y-101104819D01*
X139485119Y-100533390D02*
X139532738Y-100485771D01*
X139532738Y-100485771D02*
X139627976Y-100438152D01*
X139627976Y-100438152D02*
X139770833Y-100438152D01*
X139770833Y-100438152D02*
X139866071Y-100485771D01*
X139866071Y-100485771D02*
X139913690Y-100581009D01*
X139913690Y-100581009D02*
X139913690Y-101104819D01*
X140342262Y-101057200D02*
X140437500Y-101104819D01*
X140437500Y-101104819D02*
X140627976Y-101104819D01*
X140627976Y-101104819D02*
X140723214Y-101057200D01*
X140723214Y-101057200D02*
X140770833Y-100961961D01*
X140770833Y-100961961D02*
X140770833Y-100914342D01*
X140770833Y-100914342D02*
X140723214Y-100819104D01*
X140723214Y-100819104D02*
X140627976Y-100771485D01*
X140627976Y-100771485D02*
X140485119Y-100771485D01*
X140485119Y-100771485D02*
X140389881Y-100723866D01*
X140389881Y-100723866D02*
X140342262Y-100628628D01*
X140342262Y-100628628D02*
X140342262Y-100581009D01*
X140342262Y-100581009D02*
X140389881Y-100485771D01*
X140389881Y-100485771D02*
X140485119Y-100438152D01*
X140485119Y-100438152D02*
X140627976Y-100438152D01*
X140627976Y-100438152D02*
X140723214Y-100485771D01*
X141199405Y-101104819D02*
X141199405Y-100438152D01*
X141199405Y-100104819D02*
X141151786Y-100152438D01*
X141151786Y-100152438D02*
X141199405Y-100200057D01*
X141199405Y-100200057D02*
X141247024Y-100152438D01*
X141247024Y-100152438D02*
X141199405Y-100104819D01*
X141199405Y-100104819D02*
X141199405Y-100200057D01*
X141627976Y-101057200D02*
X141723214Y-101104819D01*
X141723214Y-101104819D02*
X141913690Y-101104819D01*
X141913690Y-101104819D02*
X142008928Y-101057200D01*
X142008928Y-101057200D02*
X142056547Y-100961961D01*
X142056547Y-100961961D02*
X142056547Y-100914342D01*
X142056547Y-100914342D02*
X142008928Y-100819104D01*
X142008928Y-100819104D02*
X141913690Y-100771485D01*
X141913690Y-100771485D02*
X141770833Y-100771485D01*
X141770833Y-100771485D02*
X141675595Y-100723866D01*
X141675595Y-100723866D02*
X141627976Y-100628628D01*
X141627976Y-100628628D02*
X141627976Y-100581009D01*
X141627976Y-100581009D02*
X141675595Y-100485771D01*
X141675595Y-100485771D02*
X141770833Y-100438152D01*
X141770833Y-100438152D02*
X141913690Y-100438152D01*
X141913690Y-100438152D02*
X142008928Y-100485771D01*
X142342262Y-100438152D02*
X142723214Y-100438152D01*
X142485119Y-100104819D02*
X142485119Y-100961961D01*
X142485119Y-100961961D02*
X142532738Y-101057200D01*
X142532738Y-101057200D02*
X142627976Y-101104819D01*
X142627976Y-101104819D02*
X142723214Y-101104819D01*
X143199405Y-101104819D02*
X143104167Y-101057200D01*
X143104167Y-101057200D02*
X143056548Y-101009580D01*
X143056548Y-101009580D02*
X143008929Y-100914342D01*
X143008929Y-100914342D02*
X143008929Y-100628628D01*
X143008929Y-100628628D02*
X143056548Y-100533390D01*
X143056548Y-100533390D02*
X143104167Y-100485771D01*
X143104167Y-100485771D02*
X143199405Y-100438152D01*
X143199405Y-100438152D02*
X143342262Y-100438152D01*
X143342262Y-100438152D02*
X143437500Y-100485771D01*
X143437500Y-100485771D02*
X143485119Y-100533390D01*
X143485119Y-100533390D02*
X143532738Y-100628628D01*
X143532738Y-100628628D02*
X143532738Y-100914342D01*
X143532738Y-100914342D02*
X143485119Y-101009580D01*
X143485119Y-101009580D02*
X143437500Y-101057200D01*
X143437500Y-101057200D02*
X143342262Y-101104819D01*
X143342262Y-101104819D02*
X143199405Y-101104819D01*
X143961310Y-101104819D02*
X143961310Y-100438152D01*
X143961310Y-100628628D02*
X144008929Y-100533390D01*
X144008929Y-100533390D02*
X144056548Y-100485771D01*
X144056548Y-100485771D02*
X144151786Y-100438152D01*
X144151786Y-100438152D02*
X144247024Y-100438152D01*
X144866072Y-101485771D02*
X144818453Y-101438152D01*
X144818453Y-101438152D02*
X144723215Y-101295295D01*
X144723215Y-101295295D02*
X144675596Y-101200057D01*
X144675596Y-101200057D02*
X144627977Y-101057200D01*
X144627977Y-101057200D02*
X144580358Y-100819104D01*
X144580358Y-100819104D02*
X144580358Y-100628628D01*
X144580358Y-100628628D02*
X144627977Y-100390533D01*
X144627977Y-100390533D02*
X144675596Y-100247676D01*
X144675596Y-100247676D02*
X144723215Y-100152438D01*
X144723215Y-100152438D02*
X144818453Y-100009580D01*
X144818453Y-100009580D02*
X144866072Y-99961961D01*
X145818453Y-101104819D02*
X145485120Y-100628628D01*
X145247025Y-101104819D02*
X145247025Y-100104819D01*
X145247025Y-100104819D02*
X145627977Y-100104819D01*
X145627977Y-100104819D02*
X145723215Y-100152438D01*
X145723215Y-100152438D02*
X145770834Y-100200057D01*
X145770834Y-100200057D02*
X145818453Y-100295295D01*
X145818453Y-100295295D02*
X145818453Y-100438152D01*
X145818453Y-100438152D02*
X145770834Y-100533390D01*
X145770834Y-100533390D02*
X145723215Y-100581009D01*
X145723215Y-100581009D02*
X145627977Y-100628628D01*
X145627977Y-100628628D02*
X145247025Y-100628628D01*
X146247025Y-101104819D02*
X146247025Y-100438152D01*
X146247025Y-100104819D02*
X146199406Y-100152438D01*
X146199406Y-100152438D02*
X146247025Y-100200057D01*
X146247025Y-100200057D02*
X146294644Y-100152438D01*
X146294644Y-100152438D02*
X146247025Y-100104819D01*
X146247025Y-100104819D02*
X146247025Y-100200057D01*
X146723215Y-100438152D02*
X146723215Y-101104819D01*
X146723215Y-100533390D02*
X146770834Y-100485771D01*
X146770834Y-100485771D02*
X146866072Y-100438152D01*
X146866072Y-100438152D02*
X147008929Y-100438152D01*
X147008929Y-100438152D02*
X147104167Y-100485771D01*
X147104167Y-100485771D02*
X147151786Y-100581009D01*
X147151786Y-100581009D02*
X147151786Y-101104819D01*
X148056548Y-100438152D02*
X148056548Y-101247676D01*
X148056548Y-101247676D02*
X148008929Y-101342914D01*
X148008929Y-101342914D02*
X147961310Y-101390533D01*
X147961310Y-101390533D02*
X147866072Y-101438152D01*
X147866072Y-101438152D02*
X147723215Y-101438152D01*
X147723215Y-101438152D02*
X147627977Y-101390533D01*
X148056548Y-101057200D02*
X147961310Y-101104819D01*
X147961310Y-101104819D02*
X147770834Y-101104819D01*
X147770834Y-101104819D02*
X147675596Y-101057200D01*
X147675596Y-101057200D02*
X147627977Y-101009580D01*
X147627977Y-101009580D02*
X147580358Y-100914342D01*
X147580358Y-100914342D02*
X147580358Y-100628628D01*
X147580358Y-100628628D02*
X147627977Y-100533390D01*
X147627977Y-100533390D02*
X147675596Y-100485771D01*
X147675596Y-100485771D02*
X147770834Y-100438152D01*
X147770834Y-100438152D02*
X147961310Y-100438152D01*
X147961310Y-100438152D02*
X148056548Y-100485771D01*
X148437501Y-101485771D02*
X148485120Y-101438152D01*
X148485120Y-101438152D02*
X148580358Y-101295295D01*
X148580358Y-101295295D02*
X148627977Y-101200057D01*
X148627977Y-101200057D02*
X148675596Y-101057200D01*
X148675596Y-101057200D02*
X148723215Y-100819104D01*
X148723215Y-100819104D02*
X148723215Y-100628628D01*
X148723215Y-100628628D02*
X148675596Y-100390533D01*
X148675596Y-100390533D02*
X148627977Y-100247676D01*
X148627977Y-100247676D02*
X148580358Y-100152438D01*
X148580358Y-100152438D02*
X148485120Y-100009580D01*
X148485120Y-100009580D02*
X148437501Y-99961961D01*
X149723215Y-101104819D02*
X149151787Y-101104819D01*
X149437501Y-101104819D02*
X149437501Y-100104819D01*
X149437501Y-100104819D02*
X149342263Y-100247676D01*
X149342263Y-100247676D02*
X149247025Y-100342914D01*
X149247025Y-100342914D02*
X149151787Y-100390533D01*
X140504819Y-92086666D02*
X140028628Y-92419999D01*
X140504819Y-92658094D02*
X139504819Y-92658094D01*
X139504819Y-92658094D02*
X139504819Y-92277142D01*
X139504819Y-92277142D02*
X139552438Y-92181904D01*
X139552438Y-92181904D02*
X139600057Y-92134285D01*
X139600057Y-92134285D02*
X139695295Y-92086666D01*
X139695295Y-92086666D02*
X139838152Y-92086666D01*
X139838152Y-92086666D02*
X139933390Y-92134285D01*
X139933390Y-92134285D02*
X139981009Y-92181904D01*
X139981009Y-92181904D02*
X140028628Y-92277142D01*
X140028628Y-92277142D02*
X140028628Y-92658094D01*
X139504819Y-91753332D02*
X139504819Y-91134285D01*
X139504819Y-91134285D02*
X139885771Y-91467618D01*
X139885771Y-91467618D02*
X139885771Y-91324761D01*
X139885771Y-91324761D02*
X139933390Y-91229523D01*
X139933390Y-91229523D02*
X139981009Y-91181904D01*
X139981009Y-91181904D02*
X140076247Y-91134285D01*
X140076247Y-91134285D02*
X140314342Y-91134285D01*
X140314342Y-91134285D02*
X140409580Y-91181904D01*
X140409580Y-91181904D02*
X140457200Y-91229523D01*
X140457200Y-91229523D02*
X140504819Y-91324761D01*
X140504819Y-91324761D02*
X140504819Y-91610475D01*
X140504819Y-91610475D02*
X140457200Y-91705713D01*
X140457200Y-91705713D02*
X140409580Y-91753332D01*
X166252975Y-100054819D02*
X166824403Y-100054819D01*
X166538689Y-101054819D02*
X166538689Y-100054819D01*
X167157737Y-101054819D02*
X167157737Y-100388152D01*
X167157737Y-100578628D02*
X167205356Y-100483390D01*
X167205356Y-100483390D02*
X167252975Y-100435771D01*
X167252975Y-100435771D02*
X167348213Y-100388152D01*
X167348213Y-100388152D02*
X167443451Y-100388152D01*
X168205356Y-101054819D02*
X168205356Y-100531009D01*
X168205356Y-100531009D02*
X168157737Y-100435771D01*
X168157737Y-100435771D02*
X168062499Y-100388152D01*
X168062499Y-100388152D02*
X167872023Y-100388152D01*
X167872023Y-100388152D02*
X167776785Y-100435771D01*
X168205356Y-101007200D02*
X168110118Y-101054819D01*
X168110118Y-101054819D02*
X167872023Y-101054819D01*
X167872023Y-101054819D02*
X167776785Y-101007200D01*
X167776785Y-101007200D02*
X167729166Y-100911961D01*
X167729166Y-100911961D02*
X167729166Y-100816723D01*
X167729166Y-100816723D02*
X167776785Y-100721485D01*
X167776785Y-100721485D02*
X167872023Y-100673866D01*
X167872023Y-100673866D02*
X168110118Y-100673866D01*
X168110118Y-100673866D02*
X168205356Y-100626247D01*
X168681547Y-100388152D02*
X168681547Y-101054819D01*
X168681547Y-100483390D02*
X168729166Y-100435771D01*
X168729166Y-100435771D02*
X168824404Y-100388152D01*
X168824404Y-100388152D02*
X168967261Y-100388152D01*
X168967261Y-100388152D02*
X169062499Y-100435771D01*
X169062499Y-100435771D02*
X169110118Y-100531009D01*
X169110118Y-100531009D02*
X169110118Y-101054819D01*
X169538690Y-101007200D02*
X169633928Y-101054819D01*
X169633928Y-101054819D02*
X169824404Y-101054819D01*
X169824404Y-101054819D02*
X169919642Y-101007200D01*
X169919642Y-101007200D02*
X169967261Y-100911961D01*
X169967261Y-100911961D02*
X169967261Y-100864342D01*
X169967261Y-100864342D02*
X169919642Y-100769104D01*
X169919642Y-100769104D02*
X169824404Y-100721485D01*
X169824404Y-100721485D02*
X169681547Y-100721485D01*
X169681547Y-100721485D02*
X169586309Y-100673866D01*
X169586309Y-100673866D02*
X169538690Y-100578628D01*
X169538690Y-100578628D02*
X169538690Y-100531009D01*
X169538690Y-100531009D02*
X169586309Y-100435771D01*
X169586309Y-100435771D02*
X169681547Y-100388152D01*
X169681547Y-100388152D02*
X169824404Y-100388152D01*
X169824404Y-100388152D02*
X169919642Y-100435771D01*
X170395833Y-101054819D02*
X170395833Y-100388152D01*
X170395833Y-100054819D02*
X170348214Y-100102438D01*
X170348214Y-100102438D02*
X170395833Y-100150057D01*
X170395833Y-100150057D02*
X170443452Y-100102438D01*
X170443452Y-100102438D02*
X170395833Y-100054819D01*
X170395833Y-100054819D02*
X170395833Y-100150057D01*
X170824404Y-101007200D02*
X170919642Y-101054819D01*
X170919642Y-101054819D02*
X171110118Y-101054819D01*
X171110118Y-101054819D02*
X171205356Y-101007200D01*
X171205356Y-101007200D02*
X171252975Y-100911961D01*
X171252975Y-100911961D02*
X171252975Y-100864342D01*
X171252975Y-100864342D02*
X171205356Y-100769104D01*
X171205356Y-100769104D02*
X171110118Y-100721485D01*
X171110118Y-100721485D02*
X170967261Y-100721485D01*
X170967261Y-100721485D02*
X170872023Y-100673866D01*
X170872023Y-100673866D02*
X170824404Y-100578628D01*
X170824404Y-100578628D02*
X170824404Y-100531009D01*
X170824404Y-100531009D02*
X170872023Y-100435771D01*
X170872023Y-100435771D02*
X170967261Y-100388152D01*
X170967261Y-100388152D02*
X171110118Y-100388152D01*
X171110118Y-100388152D02*
X171205356Y-100435771D01*
X171538690Y-100388152D02*
X171919642Y-100388152D01*
X171681547Y-100054819D02*
X171681547Y-100911961D01*
X171681547Y-100911961D02*
X171729166Y-101007200D01*
X171729166Y-101007200D02*
X171824404Y-101054819D01*
X171824404Y-101054819D02*
X171919642Y-101054819D01*
X172395833Y-101054819D02*
X172300595Y-101007200D01*
X172300595Y-101007200D02*
X172252976Y-100959580D01*
X172252976Y-100959580D02*
X172205357Y-100864342D01*
X172205357Y-100864342D02*
X172205357Y-100578628D01*
X172205357Y-100578628D02*
X172252976Y-100483390D01*
X172252976Y-100483390D02*
X172300595Y-100435771D01*
X172300595Y-100435771D02*
X172395833Y-100388152D01*
X172395833Y-100388152D02*
X172538690Y-100388152D01*
X172538690Y-100388152D02*
X172633928Y-100435771D01*
X172633928Y-100435771D02*
X172681547Y-100483390D01*
X172681547Y-100483390D02*
X172729166Y-100578628D01*
X172729166Y-100578628D02*
X172729166Y-100864342D01*
X172729166Y-100864342D02*
X172681547Y-100959580D01*
X172681547Y-100959580D02*
X172633928Y-101007200D01*
X172633928Y-101007200D02*
X172538690Y-101054819D01*
X172538690Y-101054819D02*
X172395833Y-101054819D01*
X173157738Y-101054819D02*
X173157738Y-100388152D01*
X173157738Y-100578628D02*
X173205357Y-100483390D01*
X173205357Y-100483390D02*
X173252976Y-100435771D01*
X173252976Y-100435771D02*
X173348214Y-100388152D01*
X173348214Y-100388152D02*
X173443452Y-100388152D01*
X174062500Y-101435771D02*
X174014881Y-101388152D01*
X174014881Y-101388152D02*
X173919643Y-101245295D01*
X173919643Y-101245295D02*
X173872024Y-101150057D01*
X173872024Y-101150057D02*
X173824405Y-101007200D01*
X173824405Y-101007200D02*
X173776786Y-100769104D01*
X173776786Y-100769104D02*
X173776786Y-100578628D01*
X173776786Y-100578628D02*
X173824405Y-100340533D01*
X173824405Y-100340533D02*
X173872024Y-100197676D01*
X173872024Y-100197676D02*
X173919643Y-100102438D01*
X173919643Y-100102438D02*
X174014881Y-99959580D01*
X174014881Y-99959580D02*
X174062500Y-99911961D01*
X174300596Y-100054819D02*
X174872024Y-100054819D01*
X174586310Y-101054819D02*
X174586310Y-100054819D01*
X175205358Y-101054819D02*
X175205358Y-100388152D01*
X175205358Y-100054819D02*
X175157739Y-100102438D01*
X175157739Y-100102438D02*
X175205358Y-100150057D01*
X175205358Y-100150057D02*
X175252977Y-100102438D01*
X175252977Y-100102438D02*
X175205358Y-100054819D01*
X175205358Y-100054819D02*
X175205358Y-100150057D01*
X175681548Y-100388152D02*
X175681548Y-101388152D01*
X175681548Y-100435771D02*
X175776786Y-100388152D01*
X175776786Y-100388152D02*
X175967262Y-100388152D01*
X175967262Y-100388152D02*
X176062500Y-100435771D01*
X176062500Y-100435771D02*
X176110119Y-100483390D01*
X176110119Y-100483390D02*
X176157738Y-100578628D01*
X176157738Y-100578628D02*
X176157738Y-100864342D01*
X176157738Y-100864342D02*
X176110119Y-100959580D01*
X176110119Y-100959580D02*
X176062500Y-101007200D01*
X176062500Y-101007200D02*
X175967262Y-101054819D01*
X175967262Y-101054819D02*
X175776786Y-101054819D01*
X175776786Y-101054819D02*
X175681548Y-101007200D01*
X176491072Y-101435771D02*
X176538691Y-101388152D01*
X176538691Y-101388152D02*
X176633929Y-101245295D01*
X176633929Y-101245295D02*
X176681548Y-101150057D01*
X176681548Y-101150057D02*
X176729167Y-101007200D01*
X176729167Y-101007200D02*
X176776786Y-100769104D01*
X176776786Y-100769104D02*
X176776786Y-100578628D01*
X176776786Y-100578628D02*
X176729167Y-100340533D01*
X176729167Y-100340533D02*
X176681548Y-100197676D01*
X176681548Y-100197676D02*
X176633929Y-100102438D01*
X176633929Y-100102438D02*
X176538691Y-99959580D01*
X176538691Y-99959580D02*
X176491072Y-99911961D01*
X177776786Y-101054819D02*
X177205358Y-101054819D01*
X177491072Y-101054819D02*
X177491072Y-100054819D01*
X177491072Y-100054819D02*
X177395834Y-100197676D01*
X177395834Y-100197676D02*
X177300596Y-100292914D01*
X177300596Y-100292914D02*
X177205358Y-100340533D01*
X155371428Y-89304819D02*
X155561904Y-89304819D01*
X155561904Y-89304819D02*
X155657142Y-89352438D01*
X155657142Y-89352438D02*
X155752380Y-89447676D01*
X155752380Y-89447676D02*
X155799999Y-89638152D01*
X155799999Y-89638152D02*
X155799999Y-89971485D01*
X155799999Y-89971485D02*
X155752380Y-90161961D01*
X155752380Y-90161961D02*
X155657142Y-90257200D01*
X155657142Y-90257200D02*
X155561904Y-90304819D01*
X155561904Y-90304819D02*
X155371428Y-90304819D01*
X155371428Y-90304819D02*
X155276190Y-90257200D01*
X155276190Y-90257200D02*
X155180952Y-90161961D01*
X155180952Y-90161961D02*
X155133333Y-89971485D01*
X155133333Y-89971485D02*
X155133333Y-89638152D01*
X155133333Y-89638152D02*
X155180952Y-89447676D01*
X155180952Y-89447676D02*
X155276190Y-89352438D01*
X155276190Y-89352438D02*
X155371428Y-89304819D01*
X156704761Y-90304819D02*
X156228571Y-90304819D01*
X156228571Y-90304819D02*
X156228571Y-89304819D01*
X157038095Y-89781009D02*
X157371428Y-89781009D01*
X157514285Y-90304819D02*
X157038095Y-90304819D01*
X157038095Y-90304819D02*
X157038095Y-89304819D01*
X157038095Y-89304819D02*
X157514285Y-89304819D01*
X157942857Y-90304819D02*
X157942857Y-89304819D01*
X157942857Y-89304819D02*
X158180952Y-89304819D01*
X158180952Y-89304819D02*
X158323809Y-89352438D01*
X158323809Y-89352438D02*
X158419047Y-89447676D01*
X158419047Y-89447676D02*
X158466666Y-89542914D01*
X158466666Y-89542914D02*
X158514285Y-89733390D01*
X158514285Y-89733390D02*
X158514285Y-89876247D01*
X158514285Y-89876247D02*
X158466666Y-90066723D01*
X158466666Y-90066723D02*
X158419047Y-90161961D01*
X158419047Y-90161961D02*
X158323809Y-90257200D01*
X158323809Y-90257200D02*
X158180952Y-90304819D01*
X158180952Y-90304819D02*
X157942857Y-90304819D01*
X159466666Y-90304819D02*
X158895238Y-90304819D01*
X159180952Y-90304819D02*
X159180952Y-89304819D01*
X159180952Y-89304819D02*
X159085714Y-89447676D01*
X159085714Y-89447676D02*
X158990476Y-89542914D01*
X158990476Y-89542914D02*
X158895238Y-89590533D01*
X140584819Y-115086666D02*
X140108628Y-115419999D01*
X140584819Y-115658094D02*
X139584819Y-115658094D01*
X139584819Y-115658094D02*
X139584819Y-115277142D01*
X139584819Y-115277142D02*
X139632438Y-115181904D01*
X139632438Y-115181904D02*
X139680057Y-115134285D01*
X139680057Y-115134285D02*
X139775295Y-115086666D01*
X139775295Y-115086666D02*
X139918152Y-115086666D01*
X139918152Y-115086666D02*
X140013390Y-115134285D01*
X140013390Y-115134285D02*
X140061009Y-115181904D01*
X140061009Y-115181904D02*
X140108628Y-115277142D01*
X140108628Y-115277142D02*
X140108628Y-115658094D01*
X139680057Y-114705713D02*
X139632438Y-114658094D01*
X139632438Y-114658094D02*
X139584819Y-114562856D01*
X139584819Y-114562856D02*
X139584819Y-114324761D01*
X139584819Y-114324761D02*
X139632438Y-114229523D01*
X139632438Y-114229523D02*
X139680057Y-114181904D01*
X139680057Y-114181904D02*
X139775295Y-114134285D01*
X139775295Y-114134285D02*
X139870533Y-114134285D01*
X139870533Y-114134285D02*
X140013390Y-114181904D01*
X140013390Y-114181904D02*
X140584819Y-114753332D01*
X140584819Y-114753332D02*
X140584819Y-114134285D01*
X155166666Y-92681009D02*
X155309523Y-92728628D01*
X155309523Y-92728628D02*
X155357142Y-92776247D01*
X155357142Y-92776247D02*
X155404761Y-92871485D01*
X155404761Y-92871485D02*
X155404761Y-93014342D01*
X155404761Y-93014342D02*
X155357142Y-93109580D01*
X155357142Y-93109580D02*
X155309523Y-93157200D01*
X155309523Y-93157200D02*
X155214285Y-93204819D01*
X155214285Y-93204819D02*
X154833333Y-93204819D01*
X154833333Y-93204819D02*
X154833333Y-92204819D01*
X154833333Y-92204819D02*
X155166666Y-92204819D01*
X155166666Y-92204819D02*
X155261904Y-92252438D01*
X155261904Y-92252438D02*
X155309523Y-92300057D01*
X155309523Y-92300057D02*
X155357142Y-92395295D01*
X155357142Y-92395295D02*
X155357142Y-92490533D01*
X155357142Y-92490533D02*
X155309523Y-92585771D01*
X155309523Y-92585771D02*
X155261904Y-92633390D01*
X155261904Y-92633390D02*
X155166666Y-92681009D01*
X155166666Y-92681009D02*
X154833333Y-92681009D01*
X156261904Y-92538152D02*
X156261904Y-93204819D01*
X155833333Y-92538152D02*
X155833333Y-93061961D01*
X155833333Y-93061961D02*
X155880952Y-93157200D01*
X155880952Y-93157200D02*
X155976190Y-93204819D01*
X155976190Y-93204819D02*
X156119047Y-93204819D01*
X156119047Y-93204819D02*
X156214285Y-93157200D01*
X156214285Y-93157200D02*
X156261904Y-93109580D01*
X156595238Y-92538152D02*
X156976190Y-92538152D01*
X156738095Y-92204819D02*
X156738095Y-93061961D01*
X156738095Y-93061961D02*
X156785714Y-93157200D01*
X156785714Y-93157200D02*
X156880952Y-93204819D01*
X156880952Y-93204819D02*
X156976190Y-93204819D01*
X157166667Y-92538152D02*
X157547619Y-92538152D01*
X157309524Y-92204819D02*
X157309524Y-93061961D01*
X157309524Y-93061961D02*
X157357143Y-93157200D01*
X157357143Y-93157200D02*
X157452381Y-93204819D01*
X157452381Y-93204819D02*
X157547619Y-93204819D01*
X158023810Y-93204819D02*
X157928572Y-93157200D01*
X157928572Y-93157200D02*
X157880953Y-93109580D01*
X157880953Y-93109580D02*
X157833334Y-93014342D01*
X157833334Y-93014342D02*
X157833334Y-92728628D01*
X157833334Y-92728628D02*
X157880953Y-92633390D01*
X157880953Y-92633390D02*
X157928572Y-92585771D01*
X157928572Y-92585771D02*
X158023810Y-92538152D01*
X158023810Y-92538152D02*
X158166667Y-92538152D01*
X158166667Y-92538152D02*
X158261905Y-92585771D01*
X158261905Y-92585771D02*
X158309524Y-92633390D01*
X158309524Y-92633390D02*
X158357143Y-92728628D01*
X158357143Y-92728628D02*
X158357143Y-93014342D01*
X158357143Y-93014342D02*
X158309524Y-93109580D01*
X158309524Y-93109580D02*
X158261905Y-93157200D01*
X158261905Y-93157200D02*
X158166667Y-93204819D01*
X158166667Y-93204819D02*
X158023810Y-93204819D01*
X158785715Y-92538152D02*
X158785715Y-93204819D01*
X158785715Y-92633390D02*
X158833334Y-92585771D01*
X158833334Y-92585771D02*
X158928572Y-92538152D01*
X158928572Y-92538152D02*
X159071429Y-92538152D01*
X159071429Y-92538152D02*
X159166667Y-92585771D01*
X159166667Y-92585771D02*
X159214286Y-92681009D01*
X159214286Y-92681009D02*
X159214286Y-93204819D01*
X160214286Y-93204819D02*
X159642858Y-93204819D01*
X159928572Y-93204819D02*
X159928572Y-92204819D01*
X159928572Y-92204819D02*
X159833334Y-92347676D01*
X159833334Y-92347676D02*
X159738096Y-92442914D01*
X159738096Y-92442914D02*
X159642858Y-92490533D01*
X171084819Y-115086666D02*
X170608628Y-115419999D01*
X171084819Y-115658094D02*
X170084819Y-115658094D01*
X170084819Y-115658094D02*
X170084819Y-115277142D01*
X170084819Y-115277142D02*
X170132438Y-115181904D01*
X170132438Y-115181904D02*
X170180057Y-115134285D01*
X170180057Y-115134285D02*
X170275295Y-115086666D01*
X170275295Y-115086666D02*
X170418152Y-115086666D01*
X170418152Y-115086666D02*
X170513390Y-115134285D01*
X170513390Y-115134285D02*
X170561009Y-115181904D01*
X170561009Y-115181904D02*
X170608628Y-115277142D01*
X170608628Y-115277142D02*
X170608628Y-115658094D01*
X171084819Y-114134285D02*
X171084819Y-114705713D01*
X171084819Y-114419999D02*
X170084819Y-114419999D01*
X170084819Y-114419999D02*
X170227676Y-114515237D01*
X170227676Y-114515237D02*
X170322914Y-114610475D01*
X170322914Y-114610475D02*
X170370533Y-114705713D01*
X171084819Y-91586666D02*
X170608628Y-91919999D01*
X171084819Y-92158094D02*
X170084819Y-92158094D01*
X170084819Y-92158094D02*
X170084819Y-91777142D01*
X170084819Y-91777142D02*
X170132438Y-91681904D01*
X170132438Y-91681904D02*
X170180057Y-91634285D01*
X170180057Y-91634285D02*
X170275295Y-91586666D01*
X170275295Y-91586666D02*
X170418152Y-91586666D01*
X170418152Y-91586666D02*
X170513390Y-91634285D01*
X170513390Y-91634285D02*
X170561009Y-91681904D01*
X170561009Y-91681904D02*
X170608628Y-91777142D01*
X170608628Y-91777142D02*
X170608628Y-92158094D01*
X170418152Y-90729523D02*
X171084819Y-90729523D01*
X170037200Y-90967618D02*
X170751485Y-91205713D01*
X170751485Y-91205713D02*
X170751485Y-90586666D01*
D11*
X155761905Y-75957419D02*
X156333333Y-75957419D01*
X156047619Y-76957419D02*
X156047619Y-75957419D01*
X157238095Y-76957419D02*
X156904762Y-76481228D01*
X156666667Y-76957419D02*
X156666667Y-75957419D01*
X156666667Y-75957419D02*
X157047619Y-75957419D01*
X157047619Y-75957419D02*
X157142857Y-76005038D01*
X157142857Y-76005038D02*
X157190476Y-76052657D01*
X157190476Y-76052657D02*
X157238095Y-76147895D01*
X157238095Y-76147895D02*
X157238095Y-76290752D01*
X157238095Y-76290752D02*
X157190476Y-76385990D01*
X157190476Y-76385990D02*
X157142857Y-76433609D01*
X157142857Y-76433609D02*
X157047619Y-76481228D01*
X157047619Y-76481228D02*
X156666667Y-76481228D01*
X157619048Y-76909800D02*
X157761905Y-76957419D01*
X157761905Y-76957419D02*
X158000000Y-76957419D01*
X158000000Y-76957419D02*
X158095238Y-76909800D01*
X158095238Y-76909800D02*
X158142857Y-76862180D01*
X158142857Y-76862180D02*
X158190476Y-76766942D01*
X158190476Y-76766942D02*
X158190476Y-76671704D01*
X158190476Y-76671704D02*
X158142857Y-76576466D01*
X158142857Y-76576466D02*
X158095238Y-76528847D01*
X158095238Y-76528847D02*
X158000000Y-76481228D01*
X158000000Y-76481228D02*
X157809524Y-76433609D01*
X157809524Y-76433609D02*
X157714286Y-76385990D01*
X157714286Y-76385990D02*
X157666667Y-76338371D01*
X157666667Y-76338371D02*
X157619048Y-76243133D01*
X157619048Y-76243133D02*
X157619048Y-76147895D01*
X157619048Y-76147895D02*
X157666667Y-76052657D01*
X157666667Y-76052657D02*
X157714286Y-76005038D01*
X157714286Y-76005038D02*
X157809524Y-75957419D01*
X157809524Y-75957419D02*
X158047619Y-75957419D01*
X158047619Y-75957419D02*
X158190476Y-76005038D01*
X159142857Y-76957419D02*
X158571429Y-76957419D01*
X158857143Y-76957419D02*
X158857143Y-75957419D01*
X158857143Y-75957419D02*
X158761905Y-76100276D01*
X158761905Y-76100276D02*
X158666667Y-76195514D01*
X158666667Y-76195514D02*
X158571429Y-76243133D01*
%TO.C,Transistor(Ring)1*%
D12*
X142677500Y-101490000D02*
X144197500Y-101490000D01*
X142677500Y-101540000D02*
X142677500Y-101490000D01*
X142677500Y-103440000D02*
X142677500Y-102660000D01*
X142677500Y-104610000D02*
X142677500Y-104560000D01*
X144197500Y-101490000D02*
X144197500Y-102490000D01*
X144197500Y-103610000D02*
X144197500Y-104610000D01*
X144197500Y-104610000D02*
X142677500Y-104610000D01*
X142377500Y-103000000D02*
X141897500Y-103000000D01*
X142137500Y-102670000D01*
X142377500Y-103000000D01*
G36*
X142377500Y-103000000D02*
G01*
X141897500Y-103000000D01*
X142137500Y-102670000D01*
X142377500Y-103000000D01*
G37*
%TO.C,R3*%
X142500000Y-87380000D02*
X142500000Y-88150000D01*
X142500000Y-95460000D02*
X142500000Y-94690000D01*
X141130000Y-88150000D02*
X143870000Y-88150000D01*
X143870000Y-94690000D01*
X141130000Y-94690000D01*
X141130000Y-88150000D01*
%TO.C,Transistor(Tip)1*%
X171302500Y-101440000D02*
X172822500Y-101440000D01*
X171302500Y-101490000D02*
X171302500Y-101440000D01*
X171302500Y-103390000D02*
X171302500Y-102610000D01*
X171302500Y-104560000D02*
X171302500Y-104510000D01*
X172822500Y-101440000D02*
X172822500Y-102440000D01*
X172822500Y-103560000D02*
X172822500Y-104560000D01*
X172822500Y-104560000D02*
X171302500Y-104560000D01*
X171002500Y-102950000D02*
X170522500Y-102950000D01*
X170762500Y-102620000D01*
X171002500Y-102950000D01*
G36*
X171002500Y-102950000D02*
G01*
X170522500Y-102950000D01*
X170762500Y-102620000D01*
X171002500Y-102950000D01*
G37*
%TO.C,OLED1*%
X152350000Y-82900000D02*
X162650000Y-82900000D01*
X152350000Y-88850000D02*
X152350000Y-82900000D01*
X155550000Y-88850000D02*
X152350000Y-88850000D01*
X156220000Y-84010000D02*
X156220000Y-83000000D01*
X161300000Y-83000000D02*
X161300000Y-84010000D01*
X161300000Y-84010000D02*
X156220000Y-84010000D01*
X162650000Y-82900000D02*
X162650000Y-88900000D01*
X162650000Y-88900000D02*
X156900000Y-88900000D01*
%TO.C,R2*%
X142500000Y-110880000D02*
X142500000Y-111650000D01*
X142500000Y-118960000D02*
X142500000Y-118190000D01*
X141130000Y-111650000D02*
X143870000Y-111650000D01*
X143870000Y-118190000D01*
X141130000Y-118190000D01*
X141130000Y-111650000D01*
%TO.C,Button1*%
X154000000Y-96250000D02*
X154000000Y-97750000D01*
X155250000Y-100250000D02*
X159750000Y-100250000D01*
X159750000Y-93750000D02*
X155250000Y-93750000D01*
X161000000Y-97750000D02*
X161000000Y-96250000D01*
%TO.C,R1*%
X173000000Y-110880000D02*
X173000000Y-111650000D01*
X173000000Y-118960000D02*
X173000000Y-118190000D01*
X171630000Y-111650000D02*
X174370000Y-111650000D01*
X174370000Y-118190000D01*
X171630000Y-118190000D01*
X171630000Y-111650000D01*
%TO.C,R4*%
X173000000Y-87380000D02*
X173000000Y-88150000D01*
X173000000Y-95460000D02*
X173000000Y-94690000D01*
X171630000Y-88150000D02*
X174370000Y-88150000D01*
X174370000Y-94690000D01*
X171630000Y-94690000D01*
X171630000Y-88150000D01*
%TD*%
M02*
