%TF.GenerationSoftware,KiCad,Pcbnew,10.0.0*%
%TF.CreationDate,2026-03-22T14:26:29-07:00*%
%TF.ProjectId,autoShutterPCB,6175746f-5368-4757-9474-65725043422e,rev?*%
%TF.SameCoordinates,Original*%
%TF.FileFunction,Legend,Bot*%
%TF.FilePolarity,Positive*%
%FSLAX46Y46*%
G04 Gerber Fmt 4.6, Leading zero omitted, Abs format (unit mm)*
G04 Created by KiCad (PCBNEW 10.0.0) date 2026-03-22 14:26:29*
%MOMM*%
%LPD*%
G01*
G04 APERTURE LIST*
%ADD10C,0.101600*%
%ADD11C,0.127000*%
%ADD12C,0.100000*%
%ADD13C,0.504000*%
G04 APERTURE END LIST*
D10*
X146903479Y-114311190D02*
X147417526Y-114311190D01*
X147417526Y-114311190D02*
X147478002Y-114341428D01*
X147478002Y-114341428D02*
X147508241Y-114371666D01*
X147508241Y-114371666D02*
X147538479Y-114432142D01*
X147538479Y-114432142D02*
X147538479Y-114553095D01*
X147538479Y-114553095D02*
X147508241Y-114613571D01*
X147508241Y-114613571D02*
X147478002Y-114643809D01*
X147478002Y-114643809D02*
X147417526Y-114674047D01*
X147417526Y-114674047D02*
X146903479Y-114674047D01*
X147538479Y-115309047D02*
X147538479Y-114946190D01*
X147538479Y-115127618D02*
X146903479Y-115127618D01*
X146903479Y-115127618D02*
X146994193Y-115067142D01*
X146994193Y-115067142D02*
X147054669Y-115006666D01*
X147054669Y-115006666D02*
X147084907Y-114946190D01*
%TO.C,U1*%
D11*
X148610000Y-106411000D02*
X148610000Y-123556000D01*
X150515000Y-104506000D02*
X164485000Y-104506000D01*
X153005000Y-125461000D02*
X153008728Y-126371272D01*
X153508728Y-126871000D02*
X161504000Y-126871000D01*
X162004000Y-126371000D02*
X162004000Y-125461000D01*
D12*
X164485000Y-125461000D02*
X150515000Y-125461000D01*
D11*
X164485000Y-125461000D02*
X150515000Y-125461000D01*
X166390000Y-106411000D02*
X166390000Y-123556000D01*
X148610000Y-106411000D02*
G75*
G02*
X150515000Y-104506000I1905001J-1D01*
G01*
X150515000Y-125461000D02*
G75*
G02*
X148610000Y-123556000I0J1905000D01*
G01*
X153508728Y-126871000D02*
G75*
G02*
X153008700Y-126371272I-28J500000D01*
G01*
X162004000Y-126371000D02*
G75*
G02*
X161504000Y-126871000I-500000J0D01*
G01*
X164485000Y-104506000D02*
G75*
G02*
X166390000Y-106411000I-1J-1905001D01*
G01*
X166390000Y-123556000D02*
G75*
G02*
X164485000Y-125461000I-1905000J0D01*
G01*
D13*
X148802000Y-125220000D02*
G75*
G02*
X148298000Y-125220000I-252000J0D01*
G01*
X148298000Y-125220000D02*
G75*
G02*
X148802000Y-125220000I252000J0D01*
G01*
X149945000Y-124340000D02*
G75*
G02*
X149441000Y-124340000I-252000J0D01*
G01*
X149441000Y-124340000D02*
G75*
G02*
X149945000Y-124340000I252000J0D01*
G01*
%TD*%
M02*
