%TF.GenerationSoftware,KiCad,Pcbnew,10.0.0*%
%TF.CreationDate,2026-04-01T07:05:39-07:00*%
%TF.ProjectId,digitalLevel,64696769-7461-46c4-9c65-76656c2e6b69,rev?*%
%TF.SameCoordinates,Original*%
%TF.FileFunction,Soldermask,Top*%
%TF.FilePolarity,Negative*%
%FSLAX46Y46*%
G04 Gerber Fmt 4.6, Leading zero omitted, Abs format (unit mm)*
G04 Created by KiCad (PCBNEW 10.0.0) date 2026-04-01 07:05:39*
%MOMM*%
%LPD*%
G01*
G04 APERTURE LIST*
G04 Aperture macros list*
%AMRoundRect*
0 Rectangle with rounded corners*
0 $1 Rounding radius*
0 $2 $3 $4 $5 $6 $7 $8 $9 X,Y pos of 4 corners*
0 Add a 4 corners polygon primitive as box body*
4,1,4,$2,$3,$4,$5,$6,$7,$8,$9,$2,$3,0*
0 Add four circle primitives for the rounded corners*
1,1,$1+$1,$2,$3*
1,1,$1+$1,$4,$5*
1,1,$1+$1,$6,$7*
1,1,$1+$1,$8,$9*
0 Add four rect primitives between the rounded corners*
20,1,$1+$1,$2,$3,$4,$5,0*
20,1,$1+$1,$4,$5,$6,$7,0*
20,1,$1+$1,$6,$7,$8,$9,0*
20,1,$1+$1,$8,$9,$2,$3,0*%
G04 Aperture macros list end*
%ADD10RoundRect,0.152400X1.063600X0.609600X-1.063600X0.609600X-1.063600X-0.609600X1.063600X-0.609600X0*%
%ADD11C,1.524000*%
%ADD12RoundRect,0.152400X-1.063600X-0.609600X1.063600X-0.609600X1.063600X0.609600X-1.063600X0.609600X0*%
%ADD13C,2.000000*%
%ADD14C,3.200000*%
%ADD15C,2.540000*%
%ADD16RoundRect,0.102000X-0.754000X-0.754000X0.754000X-0.754000X0.754000X0.754000X-0.754000X0.754000X0*%
%ADD17C,1.712000*%
%ADD18C,1.778000*%
G04 APERTURE END LIST*
D10*
%TO.C,U1*%
X194795000Y-93130000D03*
D11*
X195630000Y-93130000D03*
D10*
X194795000Y-95670000D03*
D11*
X195630000Y-95670000D03*
D10*
X194795000Y-98210000D03*
D11*
X195630000Y-98210000D03*
D10*
X194795000Y-100750000D03*
D11*
X195630000Y-100750000D03*
D10*
X194795000Y-103290000D03*
D11*
X195630000Y-103290000D03*
D10*
X194795000Y-105830000D03*
D11*
X195630000Y-105830000D03*
D10*
X194795000Y-108370000D03*
D11*
X195630000Y-108370000D03*
X210870000Y-108370000D03*
D12*
X211705000Y-108370000D03*
D11*
X210870000Y-105830000D03*
D12*
X211705000Y-105830000D03*
D11*
X210870000Y-103290000D03*
D12*
X211705000Y-103290000D03*
D11*
X210870000Y-100750000D03*
D12*
X211705000Y-100750000D03*
D11*
X210870000Y-98210000D03*
D12*
X211705000Y-98210000D03*
D11*
X210870000Y-95670000D03*
D12*
X211705000Y-95670000D03*
D11*
X210870000Y-93130000D03*
D12*
X211705000Y-93130000D03*
%TD*%
D13*
%TO.C,SW2*%
X176250000Y-103500000D03*
X182750000Y-103500000D03*
X182750000Y-108000000D03*
X176250000Y-108000000D03*
%TD*%
D14*
%TO.C,Mount*%
X71624080Y-100000000D03*
%TD*%
D15*
%TO.C,DS1*%
X139825000Y-112075000D03*
X139900000Y-87925000D03*
X162125000Y-112075000D03*
X162150000Y-87900000D03*
D16*
X147190000Y-87965480D03*
D17*
X149730000Y-87965480D03*
X152270000Y-87965480D03*
X154810000Y-87965480D03*
%TD*%
D18*
%TO.C,J1*%
X121839840Y-106350000D03*
X119299840Y-106350000D03*
X116759840Y-106350000D03*
X114219840Y-106350000D03*
X111679840Y-106350000D03*
X109139840Y-106350000D03*
X119299840Y-93650000D03*
X116759840Y-93650000D03*
X114219840Y-93650000D03*
X111679840Y-93650000D03*
%TD*%
D14*
%TO.C,Mount*%
X230375540Y-100000000D03*
%TD*%
D13*
%TO.C,SW1*%
X176250000Y-92500000D03*
X182750000Y-92500000D03*
X182750000Y-97000000D03*
X176250000Y-97000000D03*
%TD*%
M02*
