%TF.GenerationSoftware,KiCad,Pcbnew,10.0.0*%
%TF.CreationDate,2026-04-01T07:05:38-07:00*%
%TF.ProjectId,digitalLevel,64696769-7461-46c4-9c65-76656c2e6b69,rev?*%
%TF.SameCoordinates,Original*%
%TF.FileFunction,Copper,L2,Bot*%
%TF.FilePolarity,Positive*%
%FSLAX46Y46*%
G04 Gerber Fmt 4.6, Leading zero omitted, Abs format (unit mm)*
G04 Created by KiCad (PCBNEW 10.0.0) date 2026-04-01 07:05:38*
%MOMM*%
%LPD*%
G01*
G04 APERTURE LIST*
G04 Aperture macros list*
%AMRoundRect*
0 Rectangle with rounded corners*
0 $1 Rounding radius*
0 $2 $3 $4 $5 $6 $7 $8 $9 X,Y pos of 4 corners*
0 Add a 4 corners polygon primitive as box body*
4,1,4,$2,$3,$4,$5,$6,$7,$8,$9,$2,$3,0*
0 Add four circle primitives for the rounded corners*
1,1,$1+$1,$2,$3*
1,1,$1+$1,$4,$5*
1,1,$1+$1,$6,$7*
1,1,$1+$1,$8,$9*
0 Add four rect primitives between the rounded corners*
20,1,$1+$1,$2,$3,$4,$5,0*
20,1,$1+$1,$4,$5,$6,$7,0*
20,1,$1+$1,$6,$7,$8,$9,0*
20,1,$1+$1,$8,$9,$2,$3,0*%
G04 Aperture macros list end*
%TA.AperFunction,ComponentPad*%
%ADD10C,1.524000*%
%TD*%
%TA.AperFunction,ComponentPad*%
%ADD11C,2.000000*%
%TD*%
%TA.AperFunction,ComponentPad*%
%ADD12R,1.508000X1.508000*%
%TD*%
%TA.AperFunction,ComponentPad*%
%ADD13C,1.508000*%
%TD*%
%TA.AperFunction,ComponentPad*%
%ADD14C,1.778000*%
%TD*%
%TA.AperFunction,SMDPad,CuDef*%
%ADD15RoundRect,0.590500X0.909370X-1.403400X0.909370X1.403400X-0.909370X1.403400X-0.909370X-1.403400X0*%
%TD*%
%TA.AperFunction,ViaPad*%
%ADD16C,0.600000*%
%TD*%
%TA.AperFunction,Conductor*%
%ADD17C,0.200000*%
%TD*%
G04 APERTURE END LIST*
D10*
%TO.P,U1,1,P26_A0_D0_1*%
%TO.N,unconnected-(U1-P26_A0_D0-Pad1)*%
X195630000Y-93130000D03*
%TO.P,U1,2,P27_A1_D1_2*%
%TO.N,/PIN1*%
X195630000Y-95670000D03*
%TO.P,U1,3,P28_A2_D2_3*%
%TO.N,unconnected-(U1-P28_A2_D2-Pad3)*%
X195630000Y-98210000D03*
%TO.P,U1,4,P29_A3_D3_4*%
%TO.N,/PIN2*%
X195630000Y-100750000D03*
%TO.P,U1,5,P6_SDA_D4_5*%
%TO.N,/SDA*%
X195630000Y-103290000D03*
%TO.P,U1,6,P7_SCL_D5_6*%
%TO.N,/SCL*%
X195630000Y-105830000D03*
%TO.P,U1,7,P0_D6_TX_7*%
%TO.N,unconnected-(U1-P0_D6_TX-Pad7)*%
X195630000Y-108370000D03*
%TO.P,U1,8,P1_D7_RX_8*%
%TO.N,unconnected-(U1-P1_D7_RX-Pad8)*%
X210870000Y-108370000D03*
%TO.P,U1,9,P2_D8_SCK_9*%
%TO.N,unconnected-(U1-P2_D8_SCK-Pad9)*%
X210870000Y-105830000D03*
%TO.P,U1,10,P4_D9_MISO_10*%
%TO.N,unconnected-(U1-P4_D9_MISO-Pad10)*%
X210870000Y-103290000D03*
%TO.P,U1,11,P3_D10_MOSI_11*%
%TO.N,unconnected-(U1-P3_D10_MOSI-Pad11)*%
X210870000Y-100750000D03*
%TO.P,U1,12,3V3_12*%
%TO.N,/3.3V*%
X210870000Y-98210000D03*
%TO.P,U1,13,GND_13*%
%TO.N,/GND*%
X210870000Y-95670000D03*
%TO.P,U1,14,VBUS_14*%
%TO.N,unconnected-(U1-VBUS-Pad14)*%
X210870000Y-93130000D03*
%TD*%
D11*
%TO.P,SW2,1*%
%TO.N,/PIN2*%
X176250000Y-103500000D03*
%TO.P,SW2,2*%
X182750000Y-103500000D03*
%TO.P,SW2,3*%
%TO.N,/GND*%
X182750000Y-108000000D03*
%TO.P,SW2,4*%
X176250000Y-108000000D03*
%TD*%
D12*
%TO.P,DS1,1,VDD_1*%
%TO.N,/3.3V*%
X147190000Y-87965480D03*
D13*
%TO.P,DS1,2,GND_2*%
%TO.N,/GND*%
X149730000Y-87965480D03*
%TO.P,DS1,3,SCK_3*%
%TO.N,/SCL*%
X152270000Y-87965480D03*
%TO.P,DS1,4,SDA_4*%
%TO.N,/SDA*%
X154810000Y-87965480D03*
%TD*%
D14*
%TO.P,J1,10*%
%TO.N,N/C*%
X121839840Y-106350000D03*
%TO.P,J1,9*%
%TO.N,/SDA*%
X119299840Y-106350000D03*
%TO.P,J1,8*%
%TO.N,/SCL*%
X116759840Y-106350000D03*
%TO.P,J1,7*%
%TO.N,/GND*%
X114219840Y-106350000D03*
%TO.P,J1,6*%
%TO.N,/3.3V*%
X111679840Y-106350000D03*
%TO.P,J1,5*%
%TO.N,N/C*%
X109139840Y-106350000D03*
%TO.P,J1,4,Pin_4_4*%
X119299840Y-93650000D03*
%TO.P,J1,3,Pin_3_3*%
X116759840Y-93650000D03*
%TO.P,J1,2,Pin_2_2*%
X114219840Y-93650000D03*
%TO.P,J1,1,Pin_1_1*%
X111679840Y-93650000D03*
%TD*%
D15*
%TO.P,U2,2,-_2*%
%TO.N,/GND*%
X219450000Y-97650000D03*
%TO.P,U2,1,+_1*%
%TO.N,/3.3V*%
X219450000Y-102400000D03*
%TD*%
D11*
%TO.P,SW1,1*%
%TO.N,/PIN1*%
X176250000Y-92500000D03*
%TO.P,SW1,2*%
X182750000Y-92500000D03*
%TO.P,SW1,3*%
%TO.N,/GND*%
X182750000Y-97000000D03*
%TO.P,SW1,4*%
X176250000Y-97000000D03*
%TD*%
D16*
%TO.N,/3.3V*%
X169000000Y-99500000D03*
X161000000Y-99500000D03*
%TD*%
%TO.N,/3.3V*%
D17*
X147190000Y-87965480D02*
X158724520Y-99500000D01*
X209580000Y-99500000D02*
X210870000Y-98210000D01*
X158724520Y-99500000D02*
X161000000Y-99500000D01*
X169000000Y-99500000D02*
X209580000Y-99500000D01*
%TO.N,/SCL*%
X152270000Y-87965480D02*
X170134520Y-105830000D01*
X170134520Y-105830000D02*
X195630000Y-105830000D01*
%TO.N,/SDA*%
X154810000Y-87965480D02*
X169044520Y-102200000D01*
X194540000Y-102200000D02*
X195630000Y-103290000D01*
X169044520Y-102200000D02*
X194540000Y-102200000D01*
%TO.N,/3.3V*%
X219450000Y-102400000D02*
X215060000Y-102400000D01*
X215060000Y-102400000D02*
X210870000Y-98210000D01*
%TD*%
%TA.AperFunction,Conductor*%
%TO.N,/GND*%
G36*
X139532683Y-86232685D02*
G01*
X139578438Y-86285489D01*
X139588382Y-86354647D01*
X139559357Y-86418203D01*
X139503963Y-86454931D01*
X139316325Y-86515898D01*
X139103080Y-86624554D01*
X138909467Y-86765221D01*
X138909462Y-86765225D01*
X138740225Y-86934462D01*
X138740221Y-86934467D01*
X138599554Y-87128080D01*
X138490898Y-87341325D01*
X138416939Y-87568948D01*
X138379500Y-87805328D01*
X138379500Y-88044671D01*
X138416939Y-88281051D01*
X138490898Y-88508674D01*
X138507919Y-88542078D01*
X138586815Y-88696919D01*
X138599554Y-88721919D01*
X138740221Y-88915532D01*
X138740225Y-88915537D01*
X138909462Y-89084774D01*
X138909467Y-89084778D01*
X139052371Y-89188603D01*
X139103084Y-89225448D01*
X139219507Y-89284769D01*
X139316325Y-89334101D01*
X139316327Y-89334101D01*
X139316330Y-89334103D01*
X139543949Y-89408061D01*
X139659196Y-89426314D01*
X139780329Y-89445500D01*
X139780334Y-89445500D01*
X140019671Y-89445500D01*
X140124135Y-89428953D01*
X140256051Y-89408061D01*
X140483670Y-89334103D01*
X140696916Y-89225448D01*
X140890539Y-89084773D01*
X141059773Y-88915539D01*
X141200448Y-88721916D01*
X141309103Y-88508670D01*
X141383061Y-88281051D01*
X141417404Y-88064216D01*
X141420500Y-88044671D01*
X141420500Y-87805328D01*
X141400644Y-87679970D01*
X141383061Y-87568949D01*
X141309103Y-87341330D01*
X141309101Y-87341327D01*
X141309101Y-87341325D01*
X141245540Y-87216581D01*
X141245539Y-87216577D01*
X141218553Y-87163615D01*
X145935500Y-87163615D01*
X145935500Y-88767350D01*
X145935501Y-88767356D01*
X145941908Y-88826963D01*
X145992202Y-88961808D01*
X145992206Y-88961815D01*
X146078452Y-89077024D01*
X146078455Y-89077027D01*
X146193664Y-89163273D01*
X146193671Y-89163277D01*
X146328517Y-89213571D01*
X146328516Y-89213571D01*
X146335444Y-89214315D01*
X146388127Y-89219980D01*
X147543902Y-89219979D01*
X147610941Y-89239664D01*
X147631582Y-89256297D01*
X158355804Y-99980520D01*
X158355806Y-99980521D01*
X158355810Y-99980524D01*
X158449640Y-100034696D01*
X158492736Y-100059577D01*
X158645463Y-100100501D01*
X158645465Y-100100501D01*
X158811174Y-100100501D01*
X158811190Y-100100500D01*
X160420234Y-100100500D01*
X160487273Y-100120185D01*
X160489125Y-100121398D01*
X160620814Y-100209390D01*
X160620827Y-100209397D01*
X160749799Y-100262818D01*
X160766503Y-100269737D01*
X160912652Y-100298808D01*
X160921153Y-100300499D01*
X160921156Y-100300500D01*
X160921158Y-100300500D01*
X161078844Y-100300500D01*
X161078845Y-100300499D01*
X161233497Y-100269737D01*
X161379179Y-100209394D01*
X161510289Y-100121789D01*
X161621789Y-100010289D01*
X161709394Y-99879179D01*
X161709588Y-99878712D01*
X161769735Y-99733501D01*
X161769737Y-99733497D01*
X161800500Y-99578842D01*
X161800500Y-99421158D01*
X161800500Y-99421155D01*
X161800499Y-99421153D01*
X161769738Y-99266510D01*
X161769737Y-99266503D01*
X161769735Y-99266498D01*
X161709397Y-99120827D01*
X161709390Y-99120814D01*
X161621789Y-98989711D01*
X161621786Y-98989707D01*
X161510292Y-98878213D01*
X161510288Y-98878210D01*
X161379185Y-98790609D01*
X161379172Y-98790602D01*
X161233501Y-98730264D01*
X161233489Y-98730261D01*
X161078845Y-98699500D01*
X161078842Y-98699500D01*
X160921158Y-98699500D01*
X160921155Y-98699500D01*
X160766510Y-98730261D01*
X160766498Y-98730264D01*
X160620827Y-98790602D01*
X160620814Y-98790609D01*
X160489125Y-98878602D01*
X160422447Y-98899480D01*
X160420234Y-98899500D01*
X159024618Y-98899500D01*
X158957579Y-98879815D01*
X158936937Y-98863181D01*
X154227996Y-94154240D01*
X149499467Y-89425712D01*
X149465983Y-89364390D01*
X149470967Y-89294698D01*
X149512839Y-89238765D01*
X149578303Y-89214348D01*
X149606547Y-89215559D01*
X149631303Y-89219480D01*
X149828697Y-89219480D01*
X150023646Y-89188603D01*
X150211373Y-89127606D01*
X150387241Y-89037996D01*
X150422988Y-89012023D01*
X150422988Y-89012021D01*
X149859408Y-88448442D01*
X149922993Y-88431405D01*
X150037007Y-88365579D01*
X150130099Y-88272487D01*
X150195925Y-88158473D01*
X150212962Y-88094889D01*
X150776541Y-88658468D01*
X150776543Y-88658468D01*
X150802516Y-88622721D01*
X150889235Y-88452526D01*
X150937210Y-88401730D01*
X151005031Y-88384935D01*
X151071165Y-88407472D01*
X151110202Y-88452522D01*
X151194423Y-88617814D01*
X151197058Y-88622985D01*
X151313115Y-88782726D01*
X151452753Y-88922364D01*
X151576158Y-89012021D01*
X151612499Y-89038424D01*
X151788439Y-89128071D01*
X151913637Y-89168750D01*
X151976236Y-89189090D01*
X152171264Y-89219980D01*
X152171269Y-89219980D01*
X152368736Y-89219980D01*
X152568575Y-89188328D01*
X152568852Y-89190080D01*
X152631001Y-89193176D01*
X152677872Y-89222587D01*
X169649659Y-106194374D01*
X169649669Y-106194385D01*
X169653999Y-106198715D01*
X169654000Y-106198716D01*
X169765804Y-106310520D01*
X169765806Y-106310521D01*
X169765810Y-106310524D01*
X169902729Y-106389573D01*
X169902736Y-106389577D01*
X170014539Y-106419534D01*
X170055462Y-106430500D01*
X170055463Y-106430500D01*
X175509787Y-106430500D01*
X175576826Y-106450185D01*
X175622581Y-106502989D01*
X175632525Y-106572147D01*
X175603500Y-106635703D01*
X175566082Y-106664985D01*
X175463830Y-106717084D01*
X175380894Y-106777340D01*
X176079766Y-107476212D01*
X176037708Y-107487482D01*
X175912292Y-107559890D01*
X175809890Y-107662292D01*
X175737482Y-107787708D01*
X175726212Y-107829765D01*
X175027340Y-107130894D01*
X174967084Y-107213830D01*
X174859897Y-107424197D01*
X174786934Y-107648752D01*
X174750000Y-107881947D01*
X174750000Y-108118052D01*
X174786934Y-108351247D01*
X174859897Y-108575802D01*
X174967087Y-108786174D01*
X175027338Y-108869104D01*
X175027340Y-108869105D01*
X175726212Y-108170233D01*
X175737482Y-108212292D01*
X175809890Y-108337708D01*
X175912292Y-108440110D01*
X176037708Y-108512518D01*
X176079765Y-108523787D01*
X175380893Y-109222658D01*
X175463828Y-109282914D01*
X175674197Y-109390102D01*
X175898752Y-109463065D01*
X175898751Y-109463065D01*
X176131948Y-109500000D01*
X176368052Y-109500000D01*
X176601247Y-109463065D01*
X176825802Y-109390102D01*
X177036163Y-109282918D01*
X177036169Y-109282914D01*
X177119104Y-109222658D01*
X177119105Y-109222658D01*
X176420233Y-108523787D01*
X176462292Y-108512518D01*
X176587708Y-108440110D01*
X176690110Y-108337708D01*
X176762518Y-108212292D01*
X176773787Y-108170233D01*
X177472658Y-108869105D01*
X177472658Y-108869104D01*
X177532914Y-108786169D01*
X177532918Y-108786163D01*
X177640102Y-108575802D01*
X177713065Y-108351247D01*
X177750000Y-108118052D01*
X177750000Y-107881947D01*
X177713065Y-107648752D01*
X177640102Y-107424197D01*
X177532914Y-107213828D01*
X177472658Y-107130894D01*
X177472658Y-107130893D01*
X176773787Y-107829765D01*
X176762518Y-107787708D01*
X176690110Y-107662292D01*
X176587708Y-107559890D01*
X176462292Y-107487482D01*
X176420234Y-107476212D01*
X177119105Y-106777340D01*
X177119104Y-106777338D01*
X177036174Y-106717087D01*
X176933919Y-106664985D01*
X176883123Y-106617010D01*
X176866328Y-106549189D01*
X176888865Y-106483054D01*
X176943581Y-106439603D01*
X176990214Y-106430500D01*
X182009787Y-106430500D01*
X182076826Y-106450185D01*
X182122581Y-106502989D01*
X182132525Y-106572147D01*
X182103500Y-106635703D01*
X182066082Y-106664985D01*
X181963830Y-106717084D01*
X181880894Y-106777340D01*
X182579766Y-107476212D01*
X182537708Y-107487482D01*
X182412292Y-107559890D01*
X182309890Y-107662292D01*
X182237482Y-107787708D01*
X182226212Y-107829766D01*
X181527340Y-107130894D01*
X181467084Y-107213830D01*
X181359897Y-107424197D01*
X181286934Y-107648752D01*
X181250000Y-107881947D01*
X181250000Y-108118052D01*
X181286934Y-108351247D01*
X181359897Y-108575802D01*
X181467087Y-108786174D01*
X181527338Y-108869104D01*
X181527340Y-108869105D01*
X182226212Y-108170233D01*
X182237482Y-108212292D01*
X182309890Y-108337708D01*
X182412292Y-108440110D01*
X182537708Y-108512518D01*
X182579765Y-108523787D01*
X181880893Y-109222658D01*
X181963828Y-109282914D01*
X182174197Y-109390102D01*
X182398752Y-109463065D01*
X182398751Y-109463065D01*
X182631948Y-109500000D01*
X182868052Y-109500000D01*
X183101247Y-109463065D01*
X183325802Y-109390102D01*
X183536163Y-109282918D01*
X183536169Y-109282914D01*
X183619104Y-109222658D01*
X183619105Y-109222658D01*
X182920233Y-108523787D01*
X182962292Y-108512518D01*
X183087708Y-108440110D01*
X183190110Y-108337708D01*
X183262518Y-108212292D01*
X183273787Y-108170233D01*
X183972658Y-108869105D01*
X183972658Y-108869104D01*
X184032914Y-108786169D01*
X184032918Y-108786163D01*
X184140102Y-108575802D01*
X184213065Y-108351247D01*
X184250000Y-108118052D01*
X184250000Y-107881947D01*
X184213065Y-107648752D01*
X184140102Y-107424197D01*
X184032914Y-107213828D01*
X183972658Y-107130894D01*
X183972658Y-107130893D01*
X183273787Y-107829765D01*
X183262518Y-107787708D01*
X183190110Y-107662292D01*
X183087708Y-107559890D01*
X182962292Y-107487482D01*
X182920234Y-107476212D01*
X183619105Y-106777340D01*
X183619104Y-106777338D01*
X183536174Y-106717087D01*
X183433919Y-106664985D01*
X183383123Y-106617010D01*
X183366328Y-106549189D01*
X183388865Y-106483054D01*
X183443581Y-106439603D01*
X183490214Y-106430500D01*
X194443270Y-106430500D01*
X194510309Y-106450185D01*
X194547191Y-106487866D01*
X194547349Y-106487752D01*
X194548127Y-106488823D01*
X194549000Y-106489715D01*
X194550210Y-106491690D01*
X194550213Y-106491694D01*
X194667019Y-106652464D01*
X194807536Y-106792981D01*
X194968306Y-106909787D01*
X195086832Y-106970179D01*
X195124780Y-106989515D01*
X195175576Y-107037490D01*
X195192371Y-107105311D01*
X195169833Y-107171446D01*
X195124780Y-107210485D01*
X194968305Y-107290213D01*
X194807533Y-107407021D01*
X194667021Y-107547533D01*
X194550213Y-107708305D01*
X194459994Y-107885367D01*
X194459993Y-107885370D01*
X194398587Y-108074362D01*
X194398587Y-108074364D01*
X194367500Y-108270639D01*
X194367500Y-108469361D01*
X194374726Y-108514982D01*
X194398587Y-108665637D01*
X194459993Y-108854629D01*
X194459994Y-108854632D01*
X194518602Y-108969654D01*
X194550213Y-109031694D01*
X194667019Y-109192464D01*
X194807536Y-109332981D01*
X194968306Y-109449787D01*
X195055149Y-109494035D01*
X195145367Y-109540005D01*
X195145370Y-109540006D01*
X195215472Y-109562783D01*
X195334364Y-109601413D01*
X195530639Y-109632500D01*
X195530640Y-109632500D01*
X195729360Y-109632500D01*
X195729361Y-109632500D01*
X195925636Y-109601413D01*
X196114632Y-109540005D01*
X196291694Y-109449787D01*
X196452464Y-109332981D01*
X196592981Y-109192464D01*
X196709787Y-109031694D01*
X196800005Y-108854632D01*
X196861413Y-108665636D01*
X196892500Y-108469361D01*
X196892500Y-108270639D01*
X196861413Y-108074364D01*
X196812142Y-107922721D01*
X196800006Y-107885370D01*
X196800005Y-107885367D01*
X196750447Y-107788106D01*
X196709787Y-107708306D01*
X196592981Y-107547536D01*
X196452464Y-107407019D01*
X196291694Y-107290213D01*
X196135218Y-107210484D01*
X196084423Y-107162510D01*
X196067628Y-107094689D01*
X196090165Y-107028554D01*
X196135218Y-106989515D01*
X196291694Y-106909787D01*
X196452464Y-106792981D01*
X196592981Y-106652464D01*
X196709787Y-106491694D01*
X196800005Y-106314632D01*
X196861413Y-106125636D01*
X196892500Y-105929361D01*
X196892500Y-105730639D01*
X196861413Y-105534364D01*
X196800005Y-105345368D01*
X196800005Y-105345367D01*
X196726121Y-105200363D01*
X196709787Y-105168306D01*
X196592981Y-105007536D01*
X196452464Y-104867019D01*
X196291694Y-104750213D01*
X196135218Y-104670484D01*
X196084423Y-104622510D01*
X196067628Y-104554689D01*
X196090165Y-104488554D01*
X196135218Y-104449515D01*
X196291694Y-104369787D01*
X196452464Y-104252981D01*
X196592981Y-104112464D01*
X196709787Y-103951694D01*
X196800005Y-103774632D01*
X196861413Y-103585636D01*
X196892500Y-103389361D01*
X196892500Y-103190639D01*
X196861413Y-102994364D01*
X196828471Y-102892978D01*
X196800006Y-102805370D01*
X196800005Y-102805367D01*
X196709786Y-102628305D01*
X196666490Y-102568713D01*
X196592981Y-102467536D01*
X196452464Y-102327019D01*
X196291694Y-102210213D01*
X196135218Y-102130484D01*
X196084423Y-102082510D01*
X196067628Y-102014689D01*
X196090165Y-101948554D01*
X196135218Y-101909515D01*
X196291694Y-101829787D01*
X196452464Y-101712981D01*
X196592981Y-101572464D01*
X196709787Y-101411694D01*
X196800005Y-101234632D01*
X196861413Y-101045636D01*
X196892500Y-100849361D01*
X196892500Y-100650639D01*
X196861413Y-100454364D01*
X196811420Y-100300499D01*
X196799177Y-100262818D01*
X196797182Y-100192977D01*
X196833263Y-100133144D01*
X196895964Y-100102316D01*
X196917108Y-100100500D01*
X209493332Y-100100500D01*
X209500939Y-100100500D01*
X209500943Y-100100501D01*
X209582893Y-100100501D01*
X209649933Y-100120186D01*
X209695687Y-100172991D01*
X209703080Y-100224416D01*
X209705630Y-100242148D01*
X209700823Y-100262819D01*
X209638587Y-100454362D01*
X209607500Y-100650639D01*
X209607500Y-100849360D01*
X209638587Y-101045637D01*
X209699993Y-101234629D01*
X209699994Y-101234632D01*
X209781330Y-101394260D01*
X209790213Y-101411694D01*
X209907019Y-101572464D01*
X210047536Y-101712981D01*
X210208306Y-101829787D01*
X210311708Y-101882473D01*
X210364780Y-101909515D01*
X210415576Y-101957490D01*
X210432371Y-102025311D01*
X210409833Y-102091446D01*
X210364780Y-102130485D01*
X210208305Y-102210213D01*
X210047533Y-102327021D01*
X209907021Y-102467533D01*
X209790213Y-102628305D01*
X209699994Y-102805367D01*
X209699993Y-102805370D01*
X209638587Y-102994362D01*
X209607500Y-103190639D01*
X209607500Y-103389360D01*
X209638587Y-103585637D01*
X209699993Y-103774629D01*
X209699994Y-103774632D01*
X209757102Y-103886711D01*
X209790213Y-103951694D01*
X209907019Y-104112464D01*
X210047536Y-104252981D01*
X210208306Y-104369787D01*
X210320924Y-104427169D01*
X210364780Y-104449515D01*
X210415576Y-104497490D01*
X210432371Y-104565311D01*
X210409833Y-104631446D01*
X210364780Y-104670485D01*
X210208305Y-104750213D01*
X210047533Y-104867021D01*
X209907021Y-105007533D01*
X209790213Y-105168305D01*
X209699994Y-105345367D01*
X209699993Y-105345370D01*
X209638587Y-105534362D01*
X209607500Y-105730639D01*
X209607500Y-105929360D01*
X209638587Y-106125637D01*
X209699993Y-106314629D01*
X209699994Y-106314632D01*
X209753443Y-106419529D01*
X209790213Y-106491694D01*
X209907019Y-106652464D01*
X210047536Y-106792981D01*
X210208306Y-106909787D01*
X210326832Y-106970179D01*
X210364780Y-106989515D01*
X210415576Y-107037490D01*
X210432371Y-107105311D01*
X210409833Y-107171446D01*
X210364780Y-107210485D01*
X210208305Y-107290213D01*
X210047533Y-107407021D01*
X209907021Y-107547533D01*
X209790213Y-107708305D01*
X209699994Y-107885367D01*
X209699993Y-107885370D01*
X209638587Y-108074362D01*
X209638587Y-108074364D01*
X209607500Y-108270639D01*
X209607500Y-108469361D01*
X209614726Y-108514982D01*
X209638587Y-108665637D01*
X209699993Y-108854629D01*
X209699994Y-108854632D01*
X209758602Y-108969654D01*
X209790213Y-109031694D01*
X209907019Y-109192464D01*
X210047536Y-109332981D01*
X210208306Y-109449787D01*
X210295149Y-109494035D01*
X210385367Y-109540005D01*
X210385370Y-109540006D01*
X210455472Y-109562783D01*
X210574364Y-109601413D01*
X210770639Y-109632500D01*
X210770640Y-109632500D01*
X210969360Y-109632500D01*
X210969361Y-109632500D01*
X211165636Y-109601413D01*
X211354632Y-109540005D01*
X211531694Y-109449787D01*
X211692464Y-109332981D01*
X211832981Y-109192464D01*
X211949787Y-109031694D01*
X212040005Y-108854632D01*
X212101413Y-108665636D01*
X212132500Y-108469361D01*
X212132500Y-108270639D01*
X212101413Y-108074364D01*
X212052142Y-107922721D01*
X212040006Y-107885370D01*
X212040005Y-107885367D01*
X211990447Y-107788106D01*
X211949787Y-107708306D01*
X211832981Y-107547536D01*
X211692464Y-107407019D01*
X211531694Y-107290213D01*
X211375218Y-107210484D01*
X211324423Y-107162510D01*
X211307628Y-107094689D01*
X211330165Y-107028554D01*
X211375218Y-106989515D01*
X211531694Y-106909787D01*
X211692464Y-106792981D01*
X211832981Y-106652464D01*
X211949787Y-106491694D01*
X212040005Y-106314632D01*
X212101413Y-106125636D01*
X212132500Y-105929361D01*
X212132500Y-105730639D01*
X212101413Y-105534364D01*
X212040005Y-105345368D01*
X212040005Y-105345367D01*
X211966121Y-105200363D01*
X211949787Y-105168306D01*
X211832981Y-105007536D01*
X211692464Y-104867019D01*
X211531694Y-104750213D01*
X211375218Y-104670484D01*
X211324423Y-104622510D01*
X211307628Y-104554689D01*
X211330165Y-104488554D01*
X211375218Y-104449515D01*
X211531694Y-104369787D01*
X211692464Y-104252981D01*
X211832981Y-104112464D01*
X211949787Y-103951694D01*
X212040005Y-103774632D01*
X212101413Y-103585636D01*
X212132500Y-103389361D01*
X212132500Y-103190639D01*
X212101413Y-102994364D01*
X212068471Y-102892978D01*
X212040006Y-102805370D01*
X212040005Y-102805367D01*
X211949786Y-102628305D01*
X211906490Y-102568713D01*
X211832981Y-102467536D01*
X211692464Y-102327019D01*
X211531694Y-102210213D01*
X211375218Y-102130484D01*
X211324423Y-102082510D01*
X211307628Y-102014689D01*
X211330165Y-101948554D01*
X211375218Y-101909515D01*
X211531694Y-101829787D01*
X211692464Y-101712981D01*
X211832981Y-101572464D01*
X211949787Y-101411694D01*
X212040005Y-101234632D01*
X212101413Y-101045636D01*
X212132500Y-100849361D01*
X212132500Y-100650639D01*
X212130303Y-100636770D01*
X212139257Y-100567480D01*
X212184252Y-100514027D01*
X212251003Y-100493386D01*
X212318317Y-100512110D01*
X212340457Y-100529692D01*
X214575139Y-102764374D01*
X214575149Y-102764385D01*
X214579479Y-102768715D01*
X214579480Y-102768716D01*
X214691284Y-102880520D01*
X214761890Y-102921284D01*
X214828215Y-102959577D01*
X214980943Y-103000501D01*
X214980946Y-103000501D01*
X215146653Y-103000501D01*
X215146669Y-103000500D01*
X217325631Y-103000500D01*
X217392670Y-103020185D01*
X217438425Y-103072989D01*
X217449631Y-103124500D01*
X217449631Y-103886710D01*
X217452418Y-103933512D01*
X217452419Y-103933516D01*
X217496705Y-104137103D01*
X217496707Y-104137109D01*
X217546327Y-104252981D01*
X217578726Y-104328639D01*
X217578729Y-104328643D01*
X217695505Y-104501182D01*
X217695513Y-104501191D01*
X217842838Y-104648516D01*
X217842847Y-104648524D01*
X217947046Y-104719047D01*
X218015391Y-104765304D01*
X218015396Y-104765306D01*
X218206920Y-104847322D01*
X218206927Y-104847324D01*
X218274788Y-104862086D01*
X218410518Y-104891612D01*
X218457319Y-104894400D01*
X220442680Y-104894399D01*
X220489482Y-104891612D01*
X220645197Y-104857738D01*
X220693073Y-104847324D01*
X220693079Y-104847322D01*
X220756920Y-104819983D01*
X220884609Y-104765304D01*
X221057159Y-104648519D01*
X221204489Y-104501189D01*
X221321274Y-104328639D01*
X221403293Y-104137106D01*
X221447582Y-103933512D01*
X221450370Y-103886711D01*
X221450369Y-100913290D01*
X221447582Y-100866488D01*
X221403294Y-100662897D01*
X221403294Y-100662896D01*
X221403292Y-100662890D01*
X221321276Y-100471366D01*
X221321274Y-100471361D01*
X221247111Y-100361785D01*
X221204494Y-100298817D01*
X221204486Y-100298808D01*
X221057161Y-100151483D01*
X221057152Y-100151475D01*
X221021562Y-100127388D01*
X220977076Y-100073510D01*
X220968781Y-100004135D01*
X220999309Y-99941288D01*
X221007533Y-99933054D01*
X221067153Y-99878711D01*
X228525040Y-99878711D01*
X228525040Y-100121288D01*
X228556701Y-100361785D01*
X228619487Y-100596104D01*
X228647154Y-100662897D01*
X228712316Y-100820212D01*
X228833604Y-101030289D01*
X228833606Y-101030292D01*
X228833607Y-101030293D01*
X228981273Y-101222736D01*
X228981279Y-101222743D01*
X229152796Y-101394260D01*
X229152802Y-101394265D01*
X229345251Y-101541936D01*
X229555328Y-101663224D01*
X229779440Y-101756054D01*
X230013751Y-101818838D01*
X230194126Y-101842584D01*
X230254251Y-101850500D01*
X230254252Y-101850500D01*
X230496829Y-101850500D01*
X230544928Y-101844167D01*
X230737329Y-101818838D01*
X230971640Y-101756054D01*
X231195752Y-101663224D01*
X231405829Y-101541936D01*
X231598278Y-101394265D01*
X231769805Y-101222738D01*
X231917476Y-101030289D01*
X232038764Y-100820212D01*
X232131594Y-100596100D01*
X232194378Y-100361789D01*
X232226040Y-100121288D01*
X232226040Y-99878712D01*
X232194378Y-99638211D01*
X232131594Y-99403900D01*
X232038764Y-99179788D01*
X231917476Y-98969711D01*
X231807979Y-98827011D01*
X231769806Y-98777263D01*
X231769800Y-98777256D01*
X231598283Y-98605739D01*
X231598276Y-98605733D01*
X231405833Y-98458067D01*
X231405832Y-98458066D01*
X231405829Y-98458064D01*
X231195752Y-98336776D01*
X231195745Y-98336773D01*
X230971644Y-98243947D01*
X230737325Y-98181161D01*
X230496829Y-98149500D01*
X230496828Y-98149500D01*
X230254252Y-98149500D01*
X230254251Y-98149500D01*
X230013754Y-98181161D01*
X229779435Y-98243947D01*
X229555334Y-98336773D01*
X229555325Y-98336777D01*
X229345246Y-98458067D01*
X229152803Y-98605733D01*
X229152796Y-98605739D01*
X228981279Y-98777256D01*
X228981273Y-98777263D01*
X228833607Y-98969706D01*
X228712317Y-99179785D01*
X228712313Y-99179794D01*
X228619487Y-99403895D01*
X228556701Y-99638214D01*
X228525040Y-99878711D01*
X221067153Y-99878711D01*
X221170024Y-99784945D01*
X221204100Y-99750869D01*
X221320834Y-99578393D01*
X221402813Y-99386954D01*
X221402816Y-99386943D01*
X221447082Y-99183457D01*
X221449870Y-99136654D01*
X221449870Y-97900000D01*
X217450130Y-97900000D01*
X217450130Y-99136654D01*
X217452917Y-99183457D01*
X217497183Y-99386943D01*
X217497186Y-99386954D01*
X217579165Y-99578393D01*
X217695899Y-99750869D01*
X217843157Y-99898127D01*
X217843164Y-99898133D01*
X217878437Y-99922006D01*
X217922923Y-99975883D01*
X217931218Y-100045259D01*
X217900690Y-100108106D01*
X217878438Y-100127387D01*
X217842850Y-100151473D01*
X217842838Y-100151483D01*
X217695513Y-100298808D01*
X217695505Y-100298817D01*
X217578729Y-100471356D01*
X217578723Y-100471366D01*
X217496707Y-100662890D01*
X217496705Y-100662897D01*
X217452419Y-100866482D01*
X217452418Y-100866488D01*
X217449630Y-100913289D01*
X217449630Y-100913299D01*
X217449630Y-100913301D01*
X217449630Y-101675500D01*
X217429945Y-101742539D01*
X217377141Y-101788294D01*
X217325630Y-101799500D01*
X215360097Y-101799500D01*
X215293058Y-101779815D01*
X215272416Y-101763181D01*
X212133762Y-98624527D01*
X212100277Y-98563204D01*
X212100843Y-98510478D01*
X212100651Y-98510448D01*
X212100857Y-98509143D01*
X212100871Y-98507891D01*
X212101409Y-98505646D01*
X212101413Y-98505636D01*
X212132500Y-98309361D01*
X212132500Y-98110639D01*
X212101413Y-97914364D01*
X212040005Y-97725368D01*
X212040005Y-97725367D01*
X211949786Y-97548305D01*
X211832981Y-97387536D01*
X211692464Y-97247019D01*
X211531694Y-97130213D01*
X211374667Y-97050203D01*
X211323872Y-97002229D01*
X211307077Y-96934408D01*
X211329614Y-96868273D01*
X211374669Y-96829234D01*
X211531422Y-96749364D01*
X211568716Y-96722268D01*
X210954095Y-96107647D01*
X211041571Y-96084208D01*
X211142930Y-96025689D01*
X211225689Y-95942930D01*
X211284208Y-95841571D01*
X211307647Y-95754094D01*
X211922268Y-96368715D01*
X211949362Y-96331425D01*
X212035003Y-96163345D01*
X217450130Y-96163345D01*
X217450130Y-97400000D01*
X219200000Y-97400000D01*
X219700000Y-97400000D01*
X221449870Y-97400000D01*
X221449870Y-96163345D01*
X221447082Y-96116542D01*
X221402816Y-95913056D01*
X221402813Y-95913045D01*
X221320834Y-95721606D01*
X221204100Y-95549130D01*
X221056839Y-95401869D01*
X220884363Y-95285135D01*
X220692924Y-95203156D01*
X220692913Y-95203153D01*
X220489427Y-95158887D01*
X220442625Y-95156100D01*
X219700000Y-95156100D01*
X219700000Y-97400000D01*
X219200000Y-97400000D01*
X219200000Y-95156100D01*
X218457375Y-95156100D01*
X218410572Y-95158887D01*
X218207086Y-95203153D01*
X218207075Y-95203156D01*
X218015636Y-95285135D01*
X217843160Y-95401869D01*
X217695899Y-95549130D01*
X217579165Y-95721606D01*
X217497186Y-95913045D01*
X217497183Y-95913056D01*
X217452917Y-96116542D01*
X217450130Y-96163345D01*
X212035003Y-96163345D01*
X212039541Y-96154438D01*
X212049702Y-96123170D01*
X212049702Y-96123169D01*
X212100924Y-95965523D01*
X212100924Y-95965520D01*
X212132000Y-95769321D01*
X212132000Y-95570678D01*
X212100924Y-95374479D01*
X212100924Y-95374476D01*
X212039542Y-95185562D01*
X211949358Y-95008567D01*
X211922268Y-94971283D01*
X211307647Y-95585904D01*
X211284208Y-95498429D01*
X211225689Y-95397070D01*
X211142930Y-95314311D01*
X211041571Y-95255792D01*
X210954094Y-95232352D01*
X211568716Y-94617731D01*
X211568715Y-94617730D01*
X211531432Y-94590641D01*
X211374668Y-94510765D01*
X211323872Y-94462790D01*
X211307077Y-94394969D01*
X211329615Y-94328834D01*
X211374667Y-94289796D01*
X211531694Y-94209787D01*
X211692464Y-94092981D01*
X211832981Y-93952464D01*
X211949787Y-93791694D01*
X212040005Y-93614632D01*
X212101413Y-93425636D01*
X212132500Y-93229361D01*
X212132500Y-93030639D01*
X212101413Y-92834364D01*
X212040005Y-92645368D01*
X212040005Y-92645367D01*
X211949786Y-92468305D01*
X211944911Y-92461595D01*
X211832981Y-92307536D01*
X211692464Y-92167019D01*
X211531694Y-92050213D01*
X211354632Y-91959994D01*
X211354629Y-91959993D01*
X211165637Y-91898587D01*
X211067498Y-91883043D01*
X210969361Y-91867500D01*
X210770639Y-91867500D01*
X210705214Y-91877862D01*
X210574362Y-91898587D01*
X210385370Y-91959993D01*
X210385367Y-91959994D01*
X210208305Y-92050213D01*
X210047533Y-92167021D01*
X209907021Y-92307533D01*
X209790213Y-92468305D01*
X209699994Y-92645367D01*
X209699993Y-92645370D01*
X209638587Y-92834362D01*
X209607500Y-93030639D01*
X209607500Y-93229360D01*
X209638587Y-93425637D01*
X209699993Y-93614629D01*
X209699994Y-93614632D01*
X209773736Y-93759356D01*
X209790213Y-93791694D01*
X209907019Y-93952464D01*
X210047536Y-94092981D01*
X210208306Y-94209787D01*
X210365332Y-94289796D01*
X210416127Y-94337769D01*
X210432922Y-94405590D01*
X210410385Y-94471725D01*
X210365332Y-94510764D01*
X210208566Y-94590641D01*
X210171283Y-94617729D01*
X210171282Y-94617730D01*
X210785906Y-95232352D01*
X210698429Y-95255792D01*
X210597070Y-95314311D01*
X210514311Y-95397070D01*
X210455792Y-95498429D01*
X210432352Y-95585905D01*
X209817730Y-94971282D01*
X209817729Y-94971283D01*
X209790643Y-95008564D01*
X209700457Y-95185562D01*
X209639075Y-95374476D01*
X209639075Y-95374479D01*
X209608000Y-95570678D01*
X209608000Y-95769321D01*
X209639075Y-95965520D01*
X209639075Y-95965523D01*
X209700457Y-96154437D01*
X209790641Y-96331432D01*
X209817730Y-96368715D01*
X209817731Y-96368716D01*
X210432352Y-95754094D01*
X210455792Y-95841571D01*
X210514311Y-95942930D01*
X210597070Y-96025689D01*
X210698429Y-96084208D01*
X210785905Y-96107647D01*
X210171283Y-96722268D01*
X210171283Y-96722269D01*
X210208567Y-96749358D01*
X210365331Y-96829234D01*
X210416127Y-96877209D01*
X210432922Y-96945030D01*
X210410384Y-97011165D01*
X210365331Y-97050204D01*
X210208305Y-97130213D01*
X210047533Y-97247021D01*
X209907021Y-97387533D01*
X209790213Y-97548305D01*
X209699994Y-97725367D01*
X209699993Y-97725370D01*
X209638587Y-97914362D01*
X209607500Y-98110639D01*
X209607500Y-98309360D01*
X209638586Y-98505636D01*
X209639131Y-98507903D01*
X209639086Y-98508790D01*
X209639349Y-98510448D01*
X209639000Y-98510503D01*
X209635638Y-98577685D01*
X209606237Y-98624526D01*
X209367582Y-98863182D01*
X209306262Y-98896666D01*
X209279903Y-98899500D01*
X196897969Y-98899500D01*
X196830930Y-98879815D01*
X196785175Y-98827011D01*
X196775231Y-98757853D01*
X196787485Y-98719203D01*
X196800005Y-98694632D01*
X196861413Y-98505636D01*
X196892500Y-98309361D01*
X196892500Y-98110639D01*
X196861413Y-97914364D01*
X196800005Y-97725368D01*
X196800005Y-97725367D01*
X196709786Y-97548305D01*
X196592981Y-97387536D01*
X196452464Y-97247019D01*
X196291694Y-97130213D01*
X196135218Y-97050484D01*
X196084423Y-97002510D01*
X196067628Y-96934689D01*
X196090165Y-96868554D01*
X196135218Y-96829515D01*
X196291694Y-96749787D01*
X196452464Y-96632981D01*
X196592981Y-96492464D01*
X196709787Y-96331694D01*
X196800005Y-96154632D01*
X196861413Y-95965636D01*
X196892500Y-95769361D01*
X196892500Y-95570639D01*
X196861413Y-95374364D01*
X196800005Y-95185368D01*
X196800005Y-95185367D01*
X196725681Y-95039500D01*
X196709787Y-95008306D01*
X196592981Y-94847536D01*
X196452464Y-94707019D01*
X196291694Y-94590213D01*
X196135218Y-94510484D01*
X196084423Y-94462510D01*
X196067628Y-94394689D01*
X196090165Y-94328554D01*
X196135218Y-94289515D01*
X196291694Y-94209787D01*
X196452464Y-94092981D01*
X196592981Y-93952464D01*
X196709787Y-93791694D01*
X196800005Y-93614632D01*
X196861413Y-93425636D01*
X196892500Y-93229361D01*
X196892500Y-93030639D01*
X196861413Y-92834364D01*
X196800005Y-92645368D01*
X196800005Y-92645367D01*
X196709786Y-92468305D01*
X196704911Y-92461595D01*
X196592981Y-92307536D01*
X196452464Y-92167019D01*
X196291694Y-92050213D01*
X196114632Y-91959994D01*
X196114629Y-91959993D01*
X195925637Y-91898587D01*
X195827498Y-91883043D01*
X195729361Y-91867500D01*
X195530639Y-91867500D01*
X195465214Y-91877862D01*
X195334362Y-91898587D01*
X195145370Y-91959993D01*
X195145367Y-91959994D01*
X194968305Y-92050213D01*
X194807533Y-92167021D01*
X194667021Y-92307533D01*
X194550213Y-92468305D01*
X194459994Y-92645367D01*
X194459993Y-92645370D01*
X194398587Y-92834362D01*
X194367500Y-93030639D01*
X194367500Y-93229360D01*
X194398587Y-93425637D01*
X194459993Y-93614629D01*
X194459994Y-93614632D01*
X194533736Y-93759356D01*
X194550213Y-93791694D01*
X194667019Y-93952464D01*
X194807536Y-94092981D01*
X194968306Y-94209787D01*
X195084861Y-94269175D01*
X195124780Y-94289515D01*
X195175576Y-94337490D01*
X195192371Y-94405311D01*
X195169833Y-94471446D01*
X195124780Y-94510485D01*
X194968305Y-94590213D01*
X194807533Y-94707021D01*
X194667021Y-94847533D01*
X194550213Y-95008305D01*
X194459994Y-95185367D01*
X194459993Y-95185370D01*
X194398587Y-95374362D01*
X194372752Y-95537477D01*
X194367500Y-95570639D01*
X194367500Y-95769361D01*
X194368764Y-95777339D01*
X194398587Y-95965637D01*
X194459993Y-96154629D01*
X194459994Y-96154632D01*
X194550076Y-96331425D01*
X194550213Y-96331694D01*
X194667019Y-96492464D01*
X194807536Y-96632981D01*
X194968306Y-96749787D01*
X195042730Y-96787708D01*
X195124780Y-96829515D01*
X195175576Y-96877490D01*
X195192371Y-96945311D01*
X195169833Y-97011446D01*
X195124780Y-97050485D01*
X194968305Y-97130213D01*
X194807533Y-97247021D01*
X194667021Y-97387533D01*
X194550213Y-97548305D01*
X194459994Y-97725367D01*
X194459993Y-97725370D01*
X194398587Y-97914362D01*
X194367500Y-98110639D01*
X194367500Y-98309360D01*
X194398587Y-98505637D01*
X194459993Y-98694629D01*
X194459994Y-98694631D01*
X194472515Y-98719203D01*
X194485412Y-98787872D01*
X194459137Y-98852613D01*
X194402031Y-98892871D01*
X194362031Y-98899500D01*
X169579766Y-98899500D01*
X169512727Y-98879815D01*
X169510875Y-98878602D01*
X169379185Y-98790609D01*
X169379172Y-98790602D01*
X169233501Y-98730264D01*
X169233489Y-98730261D01*
X169078845Y-98699500D01*
X169078842Y-98699500D01*
X168921158Y-98699500D01*
X168921155Y-98699500D01*
X168766510Y-98730261D01*
X168766498Y-98730264D01*
X168620827Y-98790602D01*
X168620814Y-98790609D01*
X168489711Y-98878210D01*
X168489707Y-98878213D01*
X168378213Y-98989707D01*
X168378210Y-98989711D01*
X168290609Y-99120814D01*
X168290602Y-99120827D01*
X168230264Y-99266498D01*
X168230261Y-99266510D01*
X168199500Y-99421153D01*
X168199500Y-99578846D01*
X168230261Y-99733489D01*
X168230264Y-99733501D01*
X168290602Y-99879172D01*
X168290609Y-99879185D01*
X168378210Y-100010288D01*
X168378213Y-100010292D01*
X168489707Y-100121786D01*
X168489711Y-100121789D01*
X168620814Y-100209390D01*
X168620827Y-100209397D01*
X168749799Y-100262818D01*
X168766503Y-100269737D01*
X168912652Y-100298808D01*
X168921153Y-100300499D01*
X168921156Y-100300500D01*
X168921158Y-100300500D01*
X169078844Y-100300500D01*
X169078845Y-100300499D01*
X169233497Y-100269737D01*
X169379179Y-100209394D01*
X169465864Y-100151473D01*
X169510875Y-100121398D01*
X169577553Y-100100520D01*
X169579766Y-100100500D01*
X194342892Y-100100500D01*
X194409931Y-100120185D01*
X194455686Y-100172989D01*
X194465630Y-100242147D01*
X194460823Y-100262818D01*
X194398587Y-100454362D01*
X194367500Y-100650639D01*
X194367500Y-100849360D01*
X194398587Y-101045637D01*
X194459993Y-101234629D01*
X194459994Y-101234632D01*
X194552425Y-101416035D01*
X194551214Y-101416651D01*
X194567855Y-101478144D01*
X194546745Y-101544748D01*
X194492978Y-101589367D01*
X194443883Y-101599500D01*
X169344617Y-101599500D01*
X169277578Y-101579815D01*
X169256936Y-101563181D01*
X164575702Y-96881947D01*
X174750000Y-96881947D01*
X174750000Y-97118052D01*
X174786934Y-97351247D01*
X174859897Y-97575802D01*
X174967087Y-97786174D01*
X175027338Y-97869104D01*
X175027340Y-97869105D01*
X175726212Y-97170233D01*
X175737482Y-97212292D01*
X175809890Y-97337708D01*
X175912292Y-97440110D01*
X176037708Y-97512518D01*
X176079765Y-97523787D01*
X175380893Y-98222658D01*
X175463828Y-98282914D01*
X175674197Y-98390102D01*
X175898752Y-98463065D01*
X175898751Y-98463065D01*
X176131948Y-98500000D01*
X176368052Y-98500000D01*
X176601247Y-98463065D01*
X176825802Y-98390102D01*
X177036163Y-98282918D01*
X177036169Y-98282914D01*
X177119104Y-98222658D01*
X177119105Y-98222658D01*
X176420233Y-97523787D01*
X176462292Y-97512518D01*
X176587708Y-97440110D01*
X176690110Y-97337708D01*
X176762518Y-97212292D01*
X176773787Y-97170233D01*
X177472658Y-97869105D01*
X177472658Y-97869104D01*
X177532914Y-97786169D01*
X177532918Y-97786163D01*
X177640102Y-97575802D01*
X177713065Y-97351247D01*
X177750000Y-97118052D01*
X177750000Y-96881947D01*
X181250000Y-96881947D01*
X181250000Y-97118052D01*
X181286934Y-97351247D01*
X181359897Y-97575802D01*
X181467087Y-97786174D01*
X181527338Y-97869104D01*
X181527340Y-97869105D01*
X182226212Y-97170233D01*
X182237482Y-97212292D01*
X182309890Y-97337708D01*
X182412292Y-97440110D01*
X182537708Y-97512518D01*
X182579765Y-97523787D01*
X181880893Y-98222658D01*
X181963828Y-98282914D01*
X182174197Y-98390102D01*
X182398752Y-98463065D01*
X182398751Y-98463065D01*
X182631948Y-98500000D01*
X182868052Y-98500000D01*
X183101247Y-98463065D01*
X183325802Y-98390102D01*
X183536163Y-98282918D01*
X183536169Y-98282914D01*
X183619104Y-98222658D01*
X183619105Y-98222658D01*
X182920233Y-97523787D01*
X182962292Y-97512518D01*
X183087708Y-97440110D01*
X183190110Y-97337708D01*
X183262518Y-97212292D01*
X183273787Y-97170233D01*
X183972658Y-97869105D01*
X183972658Y-97869104D01*
X184032914Y-97786169D01*
X184032918Y-97786163D01*
X184140102Y-97575802D01*
X184213065Y-97351247D01*
X184250000Y-97118052D01*
X184250000Y-96881947D01*
X184213065Y-96648752D01*
X184140102Y-96424197D01*
X184032914Y-96213828D01*
X183972658Y-96130894D01*
X183972658Y-96130893D01*
X183273787Y-96829765D01*
X183262518Y-96787708D01*
X183190110Y-96662292D01*
X183087708Y-96559890D01*
X182962292Y-96487482D01*
X182920234Y-96476212D01*
X183619105Y-95777340D01*
X183619104Y-95777338D01*
X183536174Y-95717087D01*
X183325802Y-95609897D01*
X183101247Y-95536934D01*
X183101248Y-95536934D01*
X182868052Y-95500000D01*
X182631948Y-95500000D01*
X182398752Y-95536934D01*
X182174197Y-95609897D01*
X181963830Y-95717084D01*
X181880894Y-95777340D01*
X182579766Y-96476212D01*
X182537708Y-96487482D01*
X182412292Y-96559890D01*
X182309890Y-96662292D01*
X182237482Y-96787708D01*
X182226212Y-96829766D01*
X181527340Y-96130894D01*
X181467084Y-96213830D01*
X181359897Y-96424197D01*
X181286934Y-96648752D01*
X181250000Y-96881947D01*
X177750000Y-96881947D01*
X177713065Y-96648752D01*
X177640102Y-96424197D01*
X177532914Y-96213828D01*
X177472658Y-96130894D01*
X177472658Y-96130893D01*
X176773787Y-96829765D01*
X176762518Y-96787708D01*
X176690110Y-96662292D01*
X176587708Y-96559890D01*
X176462292Y-96487482D01*
X176420234Y-96476212D01*
X177119105Y-95777340D01*
X177119104Y-95777339D01*
X177036174Y-95717087D01*
X176825802Y-95609897D01*
X176601247Y-95536934D01*
X176601248Y-95536934D01*
X176368052Y-95500000D01*
X176131948Y-95500000D01*
X175898752Y-95536934D01*
X175674197Y-95609897D01*
X175463830Y-95717084D01*
X175380894Y-95777340D01*
X176079766Y-96476212D01*
X176037708Y-96487482D01*
X175912292Y-96559890D01*
X175809890Y-96662292D01*
X175737482Y-96787708D01*
X175726212Y-96829765D01*
X175027340Y-96130894D01*
X174967084Y-96213830D01*
X174859897Y-96424197D01*
X174786934Y-96648752D01*
X174750000Y-96881947D01*
X164575702Y-96881947D01*
X160075657Y-92381902D01*
X174749500Y-92381902D01*
X174749500Y-92618097D01*
X174786446Y-92851368D01*
X174859433Y-93075996D01*
X174912441Y-93180029D01*
X174966657Y-93286433D01*
X175105483Y-93477510D01*
X175272490Y-93644517D01*
X175463567Y-93783343D01*
X175562991Y-93834002D01*
X175674003Y-93890566D01*
X175674005Y-93890566D01*
X175674008Y-93890568D01*
X175794412Y-93929689D01*
X175898631Y-93963553D01*
X176131903Y-94000500D01*
X176131908Y-94000500D01*
X176368097Y-94000500D01*
X176601368Y-93963553D01*
X176635496Y-93952464D01*
X176825992Y-93890568D01*
X177036433Y-93783343D01*
X177227510Y-93644517D01*
X177394517Y-93477510D01*
X177533343Y-93286433D01*
X177640568Y-93075992D01*
X177713553Y-92851368D01*
X177716246Y-92834364D01*
X177750500Y-92618097D01*
X177750500Y-92381902D01*
X181249500Y-92381902D01*
X181249500Y-92618097D01*
X181286446Y-92851368D01*
X181359433Y-93075996D01*
X181412441Y-93180029D01*
X181466657Y-93286433D01*
X181605483Y-93477510D01*
X181772490Y-93644517D01*
X181963567Y-93783343D01*
X182062991Y-93834002D01*
X182174003Y-93890566D01*
X182174005Y-93890566D01*
X182174008Y-93890568D01*
X182294412Y-93929689D01*
X182398631Y-93963553D01*
X182631903Y-94000500D01*
X182631908Y-94000500D01*
X182868097Y-94000500D01*
X183101368Y-93963553D01*
X183135496Y-93952464D01*
X183325992Y-93890568D01*
X183536433Y-93783343D01*
X183727510Y-93644517D01*
X183894517Y-93477510D01*
X184033343Y-93286433D01*
X184140568Y-93075992D01*
X184213553Y-92851368D01*
X184216246Y-92834364D01*
X184250500Y-92618097D01*
X184250500Y-92381902D01*
X184213553Y-92148631D01*
X184152261Y-91959995D01*
X184140568Y-91924008D01*
X184140566Y-91924005D01*
X184140566Y-91924003D01*
X184033342Y-91713566D01*
X183894517Y-91522490D01*
X183727510Y-91355483D01*
X183536433Y-91216657D01*
X183325996Y-91109433D01*
X183101368Y-91036446D01*
X182868097Y-90999500D01*
X182868092Y-90999500D01*
X182631908Y-90999500D01*
X182631903Y-90999500D01*
X182398631Y-91036446D01*
X182174003Y-91109433D01*
X181963566Y-91216657D01*
X181854550Y-91295862D01*
X181772490Y-91355483D01*
X181772488Y-91355485D01*
X181772487Y-91355485D01*
X181605485Y-91522487D01*
X181605485Y-91522488D01*
X181605483Y-91522490D01*
X181565750Y-91577178D01*
X181466657Y-91713566D01*
X181359433Y-91924003D01*
X181286446Y-92148631D01*
X181249500Y-92381902D01*
X177750500Y-92381902D01*
X177713553Y-92148631D01*
X177652261Y-91959995D01*
X177640568Y-91924008D01*
X177640566Y-91924005D01*
X177640566Y-91924003D01*
X177533342Y-91713566D01*
X177394517Y-91522490D01*
X177227510Y-91355483D01*
X177036433Y-91216657D01*
X176825996Y-91109433D01*
X176601368Y-91036446D01*
X176368097Y-90999500D01*
X176368092Y-90999500D01*
X176131908Y-90999500D01*
X176131903Y-90999500D01*
X175898631Y-91036446D01*
X175674003Y-91109433D01*
X175463566Y-91216657D01*
X175354550Y-91295862D01*
X175272490Y-91355483D01*
X175272488Y-91355485D01*
X175272487Y-91355485D01*
X175105485Y-91522487D01*
X175105485Y-91522488D01*
X175105483Y-91522490D01*
X175065750Y-91577178D01*
X174966657Y-91713566D01*
X174859433Y-91924003D01*
X174786446Y-92148631D01*
X174749500Y-92381902D01*
X160075657Y-92381902D01*
X156067107Y-88373352D01*
X156033622Y-88312029D01*
X156034138Y-88264259D01*
X156032848Y-88264055D01*
X156064500Y-88064216D01*
X156064500Y-87866743D01*
X156033610Y-87671716D01*
X155994771Y-87552182D01*
X155972591Y-87483919D01*
X155882944Y-87307979D01*
X155857159Y-87272489D01*
X155766884Y-87148233D01*
X155627246Y-87008595D01*
X155467504Y-86892538D01*
X155467503Y-86892537D01*
X155467501Y-86892536D01*
X155291561Y-86802889D01*
X155291558Y-86802888D01*
X155103763Y-86741869D01*
X154908736Y-86710980D01*
X154908731Y-86710980D01*
X154711269Y-86710980D01*
X154711264Y-86710980D01*
X154516236Y-86741869D01*
X154328441Y-86802888D01*
X154152495Y-86892538D01*
X153992753Y-87008595D01*
X153853115Y-87148233D01*
X153737058Y-87307975D01*
X153737056Y-87307979D01*
X153652270Y-87474380D01*
X153650485Y-87477883D01*
X153602510Y-87528679D01*
X153534689Y-87545474D01*
X153468554Y-87522936D01*
X153429515Y-87477883D01*
X153342944Y-87307979D01*
X153317159Y-87272489D01*
X153226884Y-87148233D01*
X153087246Y-87008595D01*
X152927504Y-86892538D01*
X152927503Y-86892537D01*
X152927501Y-86892536D01*
X152751561Y-86802889D01*
X152751558Y-86802888D01*
X152563763Y-86741869D01*
X152368736Y-86710980D01*
X152368731Y-86710980D01*
X152171269Y-86710980D01*
X152171264Y-86710980D01*
X151976236Y-86741869D01*
X151788441Y-86802888D01*
X151612495Y-86892538D01*
X151452753Y-87008595D01*
X151313115Y-87148233D01*
X151197058Y-87307975D01*
X151197056Y-87307979D01*
X151110203Y-87478434D01*
X151062230Y-87529229D01*
X150994409Y-87546024D01*
X150928274Y-87523486D01*
X150889235Y-87478433D01*
X150802520Y-87308248D01*
X150802512Y-87308235D01*
X150776542Y-87272490D01*
X150776541Y-87272489D01*
X150212962Y-87836069D01*
X150195925Y-87772487D01*
X150130099Y-87658473D01*
X150037007Y-87565381D01*
X149922993Y-87499555D01*
X149859409Y-87482517D01*
X150422989Y-86918937D01*
X150387239Y-86892963D01*
X150211373Y-86803353D01*
X150023646Y-86742356D01*
X149828697Y-86711480D01*
X149631303Y-86711480D01*
X149436353Y-86742356D01*
X149248626Y-86803353D01*
X149072762Y-86892962D01*
X149072760Y-86892963D01*
X149037010Y-86918936D01*
X149037010Y-86918937D01*
X149600591Y-87482517D01*
X149537007Y-87499555D01*
X149422993Y-87565381D01*
X149329901Y-87658473D01*
X149264075Y-87772487D01*
X149247037Y-87836071D01*
X148683457Y-87272490D01*
X148683456Y-87272490D01*
X148668818Y-87292639D01*
X148613489Y-87335306D01*
X148543875Y-87341286D01*
X148482080Y-87308680D01*
X148447722Y-87247842D01*
X148444499Y-87219755D01*
X148444499Y-87163609D01*
X148444498Y-87163603D01*
X148444497Y-87163596D01*
X148438091Y-87103997D01*
X148437750Y-87103084D01*
X148402857Y-87009529D01*
X148387797Y-86969151D01*
X148387793Y-86969144D01*
X148301547Y-86853935D01*
X148301544Y-86853932D01*
X148186335Y-86767686D01*
X148186328Y-86767682D01*
X148051482Y-86717388D01*
X148051483Y-86717388D01*
X147991883Y-86710981D01*
X147991881Y-86710980D01*
X147991873Y-86710980D01*
X147991864Y-86710980D01*
X146388129Y-86710980D01*
X146388123Y-86710981D01*
X146328516Y-86717388D01*
X146193671Y-86767682D01*
X146193664Y-86767686D01*
X146078455Y-86853932D01*
X146078452Y-86853935D01*
X145992206Y-86969144D01*
X145992202Y-86969151D01*
X145941908Y-87103997D01*
X145937153Y-87148228D01*
X145935501Y-87163603D01*
X145935500Y-87163615D01*
X141218553Y-87163615D01*
X141200449Y-87128085D01*
X141200448Y-87128084D01*
X141059778Y-86934467D01*
X141059774Y-86934462D01*
X140890537Y-86765225D01*
X140890532Y-86765221D01*
X140696919Y-86624554D01*
X140696918Y-86624553D01*
X140696916Y-86624552D01*
X140630324Y-86590621D01*
X140483674Y-86515898D01*
X140296037Y-86454931D01*
X140238362Y-86415493D01*
X140211164Y-86351134D01*
X140223079Y-86282288D01*
X140270323Y-86230812D01*
X140334356Y-86213000D01*
X161638703Y-86213000D01*
X161705742Y-86232685D01*
X161751497Y-86285489D01*
X161761441Y-86354647D01*
X161732416Y-86418203D01*
X161677022Y-86454931D01*
X161566325Y-86490898D01*
X161353080Y-86599554D01*
X161159467Y-86740221D01*
X161159462Y-86740225D01*
X160990225Y-86909462D01*
X160990221Y-86909467D01*
X160849554Y-87103080D01*
X160740898Y-87316325D01*
X160666939Y-87543948D01*
X160629500Y-87780328D01*
X160629500Y-88019671D01*
X160666939Y-88256051D01*
X160740898Y-88483674D01*
X160849554Y-88696919D01*
X160990221Y-88890532D01*
X160990225Y-88890537D01*
X161159462Y-89059774D01*
X161159467Y-89059778D01*
X161252825Y-89127606D01*
X161353084Y-89200448D01*
X161462695Y-89256298D01*
X161566325Y-89309101D01*
X161566327Y-89309101D01*
X161566330Y-89309103D01*
X161793949Y-89383061D01*
X161915735Y-89402349D01*
X162030329Y-89420500D01*
X162030334Y-89420500D01*
X162269671Y-89420500D01*
X162374135Y-89403953D01*
X162506051Y-89383061D01*
X162733670Y-89309103D01*
X162946916Y-89200448D01*
X163140539Y-89059773D01*
X163309773Y-88890539D01*
X163450448Y-88696916D01*
X163559103Y-88483670D01*
X163633061Y-88256051D01*
X163653953Y-88124135D01*
X163670500Y-88019671D01*
X163670500Y-87780328D01*
X163643827Y-87611926D01*
X163633061Y-87543949D01*
X163559103Y-87316330D01*
X163559101Y-87316327D01*
X163559101Y-87316325D01*
X163481287Y-87163609D01*
X163450448Y-87103084D01*
X163391225Y-87021570D01*
X163309778Y-86909467D01*
X163309774Y-86909462D01*
X163140537Y-86740225D01*
X163140532Y-86740221D01*
X162946919Y-86599554D01*
X162946918Y-86599553D01*
X162946916Y-86599552D01*
X162880324Y-86565621D01*
X162733674Y-86490898D01*
X162622978Y-86454931D01*
X162565303Y-86415493D01*
X162538105Y-86351134D01*
X162550020Y-86282288D01*
X162597264Y-86230812D01*
X162661297Y-86213000D01*
X226864669Y-86213000D01*
X226872455Y-86213245D01*
X227470611Y-86250877D01*
X227478349Y-86251609D01*
X228072956Y-86326724D01*
X228080628Y-86327939D01*
X228669413Y-86440256D01*
X228676957Y-86441943D01*
X229257474Y-86590994D01*
X229264951Y-86593166D01*
X229834967Y-86778377D01*
X229842271Y-86781007D01*
X230229851Y-86934461D01*
X230399513Y-87001635D01*
X230406662Y-87004728D01*
X230948962Y-87259914D01*
X230955886Y-87263441D01*
X231481101Y-87552182D01*
X231487798Y-87556143D01*
X231575699Y-87611926D01*
X231993841Y-87877287D01*
X232000285Y-87881666D01*
X232485140Y-88233935D01*
X232491295Y-88238709D01*
X232953096Y-88620744D01*
X232958939Y-88625896D01*
X233395823Y-89036155D01*
X233401331Y-89041663D01*
X233811596Y-89478551D01*
X233816748Y-89484394D01*
X234198795Y-89946209D01*
X234203569Y-89952365D01*
X234555832Y-90437215D01*
X234560211Y-90443657D01*
X234881355Y-90949698D01*
X234885320Y-90956403D01*
X235174046Y-91481591D01*
X235177583Y-91488533D01*
X235432767Y-92030829D01*
X235435860Y-92037977D01*
X235523607Y-92259599D01*
X235564268Y-92362298D01*
X235656491Y-92595224D01*
X235659128Y-92602548D01*
X235664180Y-92618097D01*
X235844331Y-93172549D01*
X235846504Y-93180029D01*
X235995547Y-93760512D01*
X235997247Y-93768115D01*
X236109557Y-94356861D01*
X236110775Y-94364555D01*
X236185888Y-94959139D01*
X236186621Y-94966894D01*
X236224254Y-95565042D01*
X236224499Y-95572828D01*
X236224499Y-104427169D01*
X236224254Y-104434955D01*
X236186621Y-105033103D01*
X236185888Y-105040858D01*
X236110775Y-105635443D01*
X236109557Y-105643137D01*
X235997247Y-106231883D01*
X235995547Y-106239486D01*
X235846504Y-106819969D01*
X235844331Y-106827449D01*
X235659130Y-107397444D01*
X235656491Y-107404774D01*
X235435860Y-107962021D01*
X235432767Y-107969169D01*
X235177583Y-108511465D01*
X235174046Y-108518407D01*
X234885320Y-109043595D01*
X234881355Y-109050300D01*
X234560211Y-109556341D01*
X234555832Y-109562783D01*
X234203569Y-110047633D01*
X234198795Y-110053789D01*
X233816748Y-110515604D01*
X233811596Y-110521447D01*
X233401331Y-110958335D01*
X233395823Y-110963843D01*
X232958939Y-111374102D01*
X232953096Y-111379254D01*
X232491295Y-111761289D01*
X232485140Y-111766063D01*
X232000285Y-112118332D01*
X231993841Y-112122711D01*
X231487805Y-112443851D01*
X231481101Y-112447816D01*
X230955895Y-112736552D01*
X230948953Y-112740089D01*
X230406662Y-112995270D01*
X230399513Y-112998363D01*
X229842283Y-113218986D01*
X229834954Y-113221625D01*
X229264948Y-113406832D01*
X229257468Y-113409005D01*
X228676990Y-113558047D01*
X228669387Y-113559747D01*
X228080639Y-113672057D01*
X228072945Y-113673275D01*
X227478358Y-113748388D01*
X227470603Y-113749121D01*
X226872456Y-113786754D01*
X226864670Y-113786999D01*
X162559359Y-113786999D01*
X162492320Y-113767314D01*
X162446565Y-113714510D01*
X162436621Y-113645352D01*
X162465646Y-113581796D01*
X162521040Y-113545068D01*
X162567722Y-113529899D01*
X162708670Y-113484103D01*
X162921916Y-113375448D01*
X163115539Y-113234773D01*
X163284773Y-113065539D01*
X163425448Y-112871916D01*
X163534103Y-112658670D01*
X163608061Y-112431051D01*
X163628953Y-112299135D01*
X163645500Y-112194671D01*
X163645500Y-111955328D01*
X163625644Y-111829970D01*
X163608061Y-111718949D01*
X163534103Y-111491330D01*
X163534101Y-111491327D01*
X163534101Y-111491325D01*
X163474369Y-111374096D01*
X163425448Y-111278084D01*
X163389626Y-111228779D01*
X163284778Y-111084467D01*
X163284774Y-111084462D01*
X163115537Y-110915225D01*
X163115532Y-110915221D01*
X162921919Y-110774554D01*
X162921918Y-110774553D01*
X162921916Y-110774552D01*
X162805495Y-110715232D01*
X162708674Y-110665898D01*
X162481051Y-110591939D01*
X162244671Y-110554500D01*
X162244666Y-110554500D01*
X162005334Y-110554500D01*
X162005329Y-110554500D01*
X161768948Y-110591939D01*
X161541325Y-110665898D01*
X161328080Y-110774554D01*
X161134467Y-110915221D01*
X161134462Y-110915225D01*
X160965225Y-111084462D01*
X160965221Y-111084467D01*
X160824554Y-111278080D01*
X160715898Y-111491325D01*
X160641939Y-111718948D01*
X160604500Y-111955328D01*
X160604500Y-112194671D01*
X160641939Y-112431051D01*
X160715898Y-112658674D01*
X160824554Y-112871919D01*
X160965221Y-113065532D01*
X160965225Y-113065537D01*
X161134462Y-113234774D01*
X161134467Y-113234778D01*
X161303347Y-113357476D01*
X161328084Y-113375448D01*
X161463961Y-113444681D01*
X161541325Y-113484101D01*
X161541327Y-113484101D01*
X161541330Y-113484103D01*
X161657302Y-113521784D01*
X161728960Y-113545068D01*
X161786635Y-113584506D01*
X161813833Y-113648865D01*
X161801918Y-113717711D01*
X161754674Y-113769187D01*
X161690641Y-113786999D01*
X140259359Y-113786999D01*
X140192320Y-113767314D01*
X140146565Y-113714510D01*
X140136621Y-113645352D01*
X140165646Y-113581796D01*
X140221040Y-113545068D01*
X140267722Y-113529899D01*
X140408670Y-113484103D01*
X140621916Y-113375448D01*
X140815539Y-113234773D01*
X140984773Y-113065539D01*
X141125448Y-112871916D01*
X141234103Y-112658670D01*
X141308061Y-112431051D01*
X141328953Y-112299135D01*
X141345500Y-112194671D01*
X141345500Y-111955328D01*
X141325644Y-111829970D01*
X141308061Y-111718949D01*
X141234103Y-111491330D01*
X141234101Y-111491327D01*
X141234101Y-111491325D01*
X141174369Y-111374096D01*
X141125448Y-111278084D01*
X141089626Y-111228779D01*
X140984778Y-111084467D01*
X140984774Y-111084462D01*
X140815537Y-110915225D01*
X140815532Y-110915221D01*
X140621919Y-110774554D01*
X140621918Y-110774553D01*
X140621916Y-110774552D01*
X140505495Y-110715232D01*
X140408674Y-110665898D01*
X140181051Y-110591939D01*
X139944671Y-110554500D01*
X139944666Y-110554500D01*
X139705334Y-110554500D01*
X139705329Y-110554500D01*
X139468948Y-110591939D01*
X139241325Y-110665898D01*
X139028080Y-110774554D01*
X138834467Y-110915221D01*
X138834462Y-110915225D01*
X138665225Y-111084462D01*
X138665221Y-111084467D01*
X138524554Y-111278080D01*
X138415898Y-111491325D01*
X138341939Y-111718948D01*
X138304500Y-111955328D01*
X138304500Y-112194671D01*
X138341939Y-112431051D01*
X138415898Y-112658674D01*
X138524554Y-112871919D01*
X138665221Y-113065532D01*
X138665225Y-113065537D01*
X138834462Y-113234774D01*
X138834467Y-113234778D01*
X139003347Y-113357476D01*
X139028084Y-113375448D01*
X139163961Y-113444681D01*
X139241325Y-113484101D01*
X139241327Y-113484101D01*
X139241330Y-113484103D01*
X139357302Y-113521784D01*
X139428960Y-113545068D01*
X139486635Y-113584506D01*
X139513833Y-113648865D01*
X139501918Y-113717711D01*
X139454674Y-113769187D01*
X139390641Y-113786999D01*
X75135330Y-113786999D01*
X75127544Y-113786754D01*
X74529395Y-113749121D01*
X74521640Y-113748388D01*
X73927055Y-113673275D01*
X73919361Y-113672057D01*
X73330615Y-113559747D01*
X73323012Y-113558047D01*
X72742529Y-113409004D01*
X72735049Y-113406831D01*
X72205520Y-113234778D01*
X72165048Y-113221628D01*
X72157730Y-113218993D01*
X71770151Y-113065539D01*
X71600477Y-112998360D01*
X71593329Y-112995267D01*
X71051033Y-112740083D01*
X71044091Y-112736546D01*
X70518903Y-112447820D01*
X70512198Y-112443855D01*
X70006157Y-112122711D01*
X69999715Y-112118332D01*
X69514865Y-111766069D01*
X69508709Y-111761295D01*
X69046894Y-111379248D01*
X69041051Y-111374096D01*
X68604163Y-110963831D01*
X68598655Y-110958323D01*
X68188396Y-110521439D01*
X68183244Y-110515596D01*
X67801209Y-110053795D01*
X67796435Y-110047640D01*
X67444166Y-109562785D01*
X67439795Y-109556354D01*
X67118644Y-109050300D01*
X67114682Y-109043601D01*
X67041356Y-108910222D01*
X66825941Y-108518386D01*
X66822409Y-108511453D01*
X66802602Y-108469361D01*
X66567228Y-107969162D01*
X66564138Y-107962021D01*
X66343503Y-107404761D01*
X66340873Y-107397454D01*
X66328135Y-107358252D01*
X66155666Y-106827448D01*
X66153493Y-106819968D01*
X66142548Y-106777340D01*
X66004746Y-106240638D01*
X107750340Y-106240638D01*
X107750340Y-106459361D01*
X107784554Y-106675376D01*
X107852137Y-106883380D01*
X107852138Y-106883383D01*
X107906216Y-106989515D01*
X107942850Y-107061413D01*
X107951435Y-107078260D01*
X108079982Y-107255193D01*
X108234646Y-107409857D01*
X108341490Y-107487482D01*
X108411583Y-107538407D01*
X108538972Y-107603315D01*
X108606456Y-107637701D01*
X108606459Y-107637702D01*
X108682141Y-107662292D01*
X108814465Y-107705286D01*
X108914512Y-107721132D01*
X109030479Y-107739500D01*
X109030484Y-107739500D01*
X109249201Y-107739500D01*
X109353922Y-107722912D01*
X109465215Y-107705286D01*
X109673223Y-107637701D01*
X109868097Y-107538407D01*
X110025295Y-107424197D01*
X110045033Y-107409857D01*
X110045035Y-107409854D01*
X110045039Y-107409852D01*
X110199692Y-107255199D01*
X110309523Y-107104028D01*
X110364851Y-107061364D01*
X110434464Y-107055385D01*
X110496260Y-107087990D01*
X110510153Y-107104023D01*
X110589932Y-107213830D01*
X110619988Y-107255199D01*
X110774646Y-107409857D01*
X110881490Y-107487482D01*
X110951583Y-107538407D01*
X111078972Y-107603315D01*
X111146456Y-107637701D01*
X111146459Y-107637702D01*
X111222141Y-107662292D01*
X111354465Y-107705286D01*
X111454512Y-107721132D01*
X111570479Y-107739500D01*
X111570484Y-107739500D01*
X111789201Y-107739500D01*
X111893922Y-107722912D01*
X112005215Y-107705286D01*
X112213223Y-107637701D01*
X112408097Y-107538407D01*
X112565295Y-107424197D01*
X112585033Y-107409857D01*
X112585035Y-107409854D01*
X112585039Y-107409852D01*
X112739692Y-107255199D01*
X112849831Y-107103603D01*
X112905160Y-107060939D01*
X112974773Y-107054960D01*
X113036569Y-107087565D01*
X113050468Y-107103606D01*
X113076646Y-107139638D01*
X113076647Y-107139638D01*
X113740714Y-106475571D01*
X113758294Y-106541179D01*
X113823501Y-106654121D01*
X113915719Y-106746339D01*
X114028661Y-106811546D01*
X114094267Y-106829125D01*
X113430200Y-107493191D01*
X113491848Y-107537980D01*
X113686648Y-107637237D01*
X113686651Y-107637238D01*
X113894580Y-107704797D01*
X114110524Y-107739000D01*
X114329156Y-107739000D01*
X114545099Y-107704797D01*
X114753028Y-107637238D01*
X114753031Y-107637237D01*
X114947835Y-107537978D01*
X115009478Y-107493191D01*
X115009479Y-107493191D01*
X114345412Y-106829125D01*
X114411019Y-106811546D01*
X114523961Y-106746339D01*
X114616179Y-106654121D01*
X114681386Y-106541179D01*
X114698965Y-106475573D01*
X115363031Y-107139639D01*
X115363031Y-107139638D01*
X115389212Y-107103605D01*
X115444542Y-107060939D01*
X115514155Y-107054960D01*
X115575950Y-107087565D01*
X115589848Y-107103605D01*
X115699982Y-107255192D01*
X115699986Y-107255197D01*
X115854646Y-107409857D01*
X115961490Y-107487482D01*
X116031583Y-107538407D01*
X116158972Y-107603315D01*
X116226456Y-107637701D01*
X116226459Y-107637702D01*
X116302141Y-107662292D01*
X116434465Y-107705286D01*
X116534512Y-107721132D01*
X116650479Y-107739500D01*
X116650484Y-107739500D01*
X116869201Y-107739500D01*
X116973922Y-107722912D01*
X117085215Y-107705286D01*
X117293223Y-107637701D01*
X117488097Y-107538407D01*
X117645295Y-107424197D01*
X117665033Y-107409857D01*
X117665035Y-107409854D01*
X117665039Y-107409852D01*
X117819692Y-107255199D01*
X117929523Y-107104028D01*
X117984851Y-107061364D01*
X118054464Y-107055385D01*
X118116260Y-107087990D01*
X118130153Y-107104023D01*
X118209932Y-107213830D01*
X118239988Y-107255199D01*
X118394646Y-107409857D01*
X118501490Y-107487482D01*
X118571583Y-107538407D01*
X118698972Y-107603315D01*
X118766456Y-107637701D01*
X118766459Y-107637702D01*
X118842141Y-107662292D01*
X118974465Y-107705286D01*
X119074512Y-107721132D01*
X119190479Y-107739500D01*
X119190484Y-107739500D01*
X119409201Y-107739500D01*
X119513922Y-107722912D01*
X119625215Y-107705286D01*
X119833223Y-107637701D01*
X120028097Y-107538407D01*
X120185295Y-107424197D01*
X120205033Y-107409857D01*
X120205035Y-107409854D01*
X120205039Y-107409852D01*
X120359692Y-107255199D01*
X120469523Y-107104028D01*
X120524851Y-107061364D01*
X120594464Y-107055385D01*
X120656260Y-107087990D01*
X120670153Y-107104023D01*
X120749932Y-107213830D01*
X120779988Y-107255199D01*
X120934646Y-107409857D01*
X121041490Y-107487482D01*
X121111583Y-107538407D01*
X121238972Y-107603315D01*
X121306456Y-107637701D01*
X121306459Y-107637702D01*
X121382141Y-107662292D01*
X121514465Y-107705286D01*
X121614512Y-107721132D01*
X121730479Y-107739500D01*
X121730484Y-107739500D01*
X121949201Y-107739500D01*
X122053922Y-107722912D01*
X122165215Y-107705286D01*
X122373223Y-107637701D01*
X122568097Y-107538407D01*
X122725295Y-107424197D01*
X122745033Y-107409857D01*
X122745035Y-107409854D01*
X122745039Y-107409852D01*
X122899692Y-107255199D01*
X122899694Y-107255195D01*
X122899697Y-107255193D01*
X122960542Y-107171446D01*
X123028247Y-107078257D01*
X123127541Y-106883383D01*
X123195126Y-106675375D01*
X123222358Y-106503440D01*
X123229340Y-106459361D01*
X123229340Y-106240638D01*
X123198492Y-106045879D01*
X123195126Y-106024625D01*
X123127541Y-105816617D01*
X123127541Y-105816616D01*
X123083733Y-105730639D01*
X123028247Y-105621743D01*
X122983650Y-105560360D01*
X122899697Y-105444806D01*
X122745033Y-105290142D01*
X122568100Y-105161595D01*
X122568099Y-105161594D01*
X122568097Y-105161593D01*
X122505665Y-105129782D01*
X122373223Y-105062298D01*
X122373220Y-105062297D01*
X122165216Y-104994714D01*
X121949201Y-104960500D01*
X121949196Y-104960500D01*
X121730484Y-104960500D01*
X121730479Y-104960500D01*
X121514463Y-104994714D01*
X121306459Y-105062297D01*
X121306456Y-105062298D01*
X121111579Y-105161595D01*
X120934646Y-105290142D01*
X120779982Y-105444806D01*
X120670158Y-105595969D01*
X120614829Y-105638635D01*
X120545215Y-105644614D01*
X120483420Y-105612009D01*
X120469522Y-105595969D01*
X120359697Y-105444806D01*
X120205033Y-105290142D01*
X120028100Y-105161595D01*
X120028099Y-105161594D01*
X120028097Y-105161593D01*
X119965665Y-105129782D01*
X119833223Y-105062298D01*
X119833220Y-105062297D01*
X119625216Y-104994714D01*
X119409201Y-104960500D01*
X119409196Y-104960500D01*
X119190484Y-104960500D01*
X119190479Y-104960500D01*
X118974463Y-104994714D01*
X118766459Y-105062297D01*
X118766456Y-105062298D01*
X118571579Y-105161595D01*
X118394646Y-105290142D01*
X118239982Y-105444806D01*
X118130158Y-105595969D01*
X118074829Y-105638635D01*
X118005215Y-105644614D01*
X117943420Y-105612009D01*
X117929522Y-105595969D01*
X117819697Y-105444806D01*
X117665033Y-105290142D01*
X117488100Y-105161595D01*
X117488099Y-105161594D01*
X117488097Y-105161593D01*
X117425665Y-105129782D01*
X117293223Y-105062298D01*
X117293220Y-105062297D01*
X117085216Y-104994714D01*
X116869201Y-104960500D01*
X116869196Y-104960500D01*
X116650484Y-104960500D01*
X116650479Y-104960500D01*
X116434463Y-104994714D01*
X116226459Y-105062297D01*
X116226456Y-105062298D01*
X116031579Y-105161595D01*
X115854646Y-105290142D01*
X115699986Y-105444802D01*
X115699982Y-105444807D01*
X115589848Y-105596394D01*
X115534518Y-105639060D01*
X115464905Y-105645039D01*
X115403110Y-105612433D01*
X115389212Y-105596394D01*
X115363032Y-105560360D01*
X115363031Y-105560360D01*
X114698964Y-106224426D01*
X114681386Y-106158821D01*
X114616179Y-106045879D01*
X114523961Y-105953661D01*
X114411019Y-105888454D01*
X114345410Y-105870874D01*
X115009478Y-105206807D01*
X115009478Y-105206806D01*
X114947835Y-105162021D01*
X114947833Y-105162020D01*
X114753031Y-105062762D01*
X114753028Y-105062761D01*
X114545099Y-104995202D01*
X114329156Y-104961000D01*
X114110524Y-104961000D01*
X113894580Y-104995202D01*
X113686651Y-105062761D01*
X113686648Y-105062762D01*
X113491841Y-105162023D01*
X113430200Y-105206806D01*
X113430200Y-105206807D01*
X114094267Y-105870874D01*
X114028661Y-105888454D01*
X113915719Y-105953661D01*
X113823501Y-106045879D01*
X113758294Y-106158821D01*
X113740714Y-106224427D01*
X113076647Y-105560360D01*
X113076645Y-105560360D01*
X113050466Y-105596394D01*
X112995137Y-105639060D01*
X112925523Y-105645039D01*
X112863728Y-105612434D01*
X112849835Y-105596401D01*
X112739692Y-105444801D01*
X112585039Y-105290148D01*
X112585033Y-105290142D01*
X112408100Y-105161595D01*
X112408099Y-105161594D01*
X112408097Y-105161593D01*
X112345665Y-105129782D01*
X112213223Y-105062298D01*
X112213220Y-105062297D01*
X112005216Y-104994714D01*
X111789201Y-104960500D01*
X111789196Y-104960500D01*
X111570484Y-104960500D01*
X111570479Y-104960500D01*
X111354463Y-104994714D01*
X111146459Y-105062297D01*
X111146456Y-105062298D01*
X110951579Y-105161595D01*
X110774646Y-105290142D01*
X110619982Y-105444806D01*
X110510158Y-105595969D01*
X110454829Y-105638635D01*
X110385215Y-105644614D01*
X110323420Y-105612009D01*
X110309522Y-105595969D01*
X110199697Y-105444806D01*
X110045033Y-105290142D01*
X109868100Y-105161595D01*
X109868099Y-105161594D01*
X109868097Y-105161593D01*
X109805665Y-105129782D01*
X109673223Y-105062298D01*
X109673220Y-105062297D01*
X109465216Y-104994714D01*
X109249201Y-104960500D01*
X109249196Y-104960500D01*
X109030484Y-104960500D01*
X109030479Y-104960500D01*
X108814463Y-104994714D01*
X108606459Y-105062297D01*
X108606456Y-105062298D01*
X108411579Y-105161595D01*
X108234646Y-105290142D01*
X108079982Y-105444806D01*
X107951435Y-105621739D01*
X107852138Y-105816616D01*
X107852137Y-105816619D01*
X107784554Y-106024623D01*
X107750340Y-106240638D01*
X66004746Y-106240638D01*
X66004437Y-106239434D01*
X66002756Y-106231913D01*
X65890439Y-105643128D01*
X65889223Y-105635445D01*
X65886262Y-105612009D01*
X65814109Y-105040849D01*
X65813377Y-105033103D01*
X65812109Y-105012956D01*
X65775745Y-104434955D01*
X65775500Y-104427170D01*
X65775500Y-99878711D01*
X69773580Y-99878711D01*
X69773580Y-100121288D01*
X69805241Y-100361785D01*
X69868027Y-100596104D01*
X69895694Y-100662897D01*
X69960856Y-100820212D01*
X70082144Y-101030289D01*
X70082146Y-101030292D01*
X70082147Y-101030293D01*
X70229813Y-101222736D01*
X70229819Y-101222743D01*
X70401336Y-101394260D01*
X70401342Y-101394265D01*
X70593791Y-101541936D01*
X70803868Y-101663224D01*
X71027980Y-101756054D01*
X71262291Y-101818838D01*
X71442666Y-101842584D01*
X71502791Y-101850500D01*
X71502792Y-101850500D01*
X71745369Y-101850500D01*
X71793468Y-101844167D01*
X71985869Y-101818838D01*
X72220180Y-101756054D01*
X72444292Y-101663224D01*
X72654369Y-101541936D01*
X72846818Y-101394265D01*
X73018345Y-101222738D01*
X73166016Y-101030289D01*
X73287304Y-100820212D01*
X73380134Y-100596100D01*
X73442918Y-100361789D01*
X73474580Y-100121288D01*
X73474580Y-99878712D01*
X73442918Y-99638211D01*
X73380134Y-99403900D01*
X73287304Y-99179788D01*
X73166016Y-98969711D01*
X73056519Y-98827011D01*
X73018346Y-98777263D01*
X73018340Y-98777256D01*
X72846823Y-98605739D01*
X72846816Y-98605733D01*
X72654373Y-98458067D01*
X72654372Y-98458066D01*
X72654369Y-98458064D01*
X72444292Y-98336776D01*
X72444285Y-98336773D01*
X72220184Y-98243947D01*
X71985865Y-98181161D01*
X71745369Y-98149500D01*
X71745368Y-98149500D01*
X71502792Y-98149500D01*
X71502791Y-98149500D01*
X71262294Y-98181161D01*
X71027975Y-98243947D01*
X70803874Y-98336773D01*
X70803865Y-98336777D01*
X70593786Y-98458067D01*
X70401343Y-98605733D01*
X70401336Y-98605739D01*
X70229819Y-98777256D01*
X70229813Y-98777263D01*
X70082147Y-98969706D01*
X69960857Y-99179785D01*
X69960853Y-99179794D01*
X69868027Y-99403895D01*
X69805241Y-99638214D01*
X69773580Y-99878711D01*
X65775500Y-99878711D01*
X65775500Y-95572829D01*
X65775745Y-95565043D01*
X65777479Y-95537476D01*
X65813377Y-94966884D01*
X65814110Y-94959140D01*
X65889225Y-94364538D01*
X65890441Y-94356861D01*
X66002758Y-93768078D01*
X66004442Y-93760548D01*
X66060905Y-93540638D01*
X110290340Y-93540638D01*
X110290340Y-93759361D01*
X110324554Y-93975376D01*
X110392137Y-94183380D01*
X110392138Y-94183383D01*
X110446216Y-94289515D01*
X110484451Y-94364555D01*
X110491435Y-94378260D01*
X110619982Y-94555193D01*
X110774646Y-94709857D01*
X110903668Y-94803595D01*
X110951583Y-94838407D01*
X111078972Y-94903315D01*
X111146456Y-94937701D01*
X111146459Y-94937702D01*
X111224339Y-94963006D01*
X111354465Y-95005286D01*
X111454512Y-95021132D01*
X111570479Y-95039500D01*
X111570484Y-95039500D01*
X111789201Y-95039500D01*
X111893922Y-95022912D01*
X112005215Y-95005286D01*
X112213223Y-94937701D01*
X112408097Y-94838407D01*
X112507441Y-94766229D01*
X112585033Y-94709857D01*
X112585035Y-94709854D01*
X112585039Y-94709852D01*
X112739692Y-94555199D01*
X112849523Y-94404028D01*
X112904851Y-94361364D01*
X112974464Y-94355385D01*
X113036260Y-94387990D01*
X113050153Y-94404023D01*
X113127705Y-94510765D01*
X113159988Y-94555199D01*
X113314646Y-94709857D01*
X113443668Y-94803595D01*
X113491583Y-94838407D01*
X113618972Y-94903315D01*
X113686456Y-94937701D01*
X113686459Y-94937702D01*
X113764339Y-94963006D01*
X113894465Y-95005286D01*
X113994512Y-95021132D01*
X114110479Y-95039500D01*
X114110484Y-95039500D01*
X114329201Y-95039500D01*
X114433922Y-95022912D01*
X114545215Y-95005286D01*
X114753223Y-94937701D01*
X114948097Y-94838407D01*
X115047441Y-94766229D01*
X115125033Y-94709857D01*
X115125035Y-94709854D01*
X115125039Y-94709852D01*
X115279692Y-94555199D01*
X115389523Y-94404028D01*
X115444851Y-94361364D01*
X115514464Y-94355385D01*
X115576260Y-94387990D01*
X115590153Y-94404023D01*
X115667705Y-94510765D01*
X115699988Y-94555199D01*
X115854646Y-94709857D01*
X115983668Y-94803595D01*
X116031583Y-94838407D01*
X116158972Y-94903315D01*
X116226456Y-94937701D01*
X116226459Y-94937702D01*
X116304339Y-94963006D01*
X116434465Y-95005286D01*
X116534512Y-95021132D01*
X116650479Y-95039500D01*
X116650484Y-95039500D01*
X116869201Y-95039500D01*
X116973922Y-95022912D01*
X117085215Y-95005286D01*
X117293223Y-94937701D01*
X117488097Y-94838407D01*
X117587441Y-94766229D01*
X117665033Y-94709857D01*
X117665035Y-94709854D01*
X117665039Y-94709852D01*
X117819692Y-94555199D01*
X117929523Y-94404028D01*
X117984851Y-94361364D01*
X118054464Y-94355385D01*
X118116260Y-94387990D01*
X118130153Y-94404023D01*
X118207705Y-94510765D01*
X118239988Y-94555199D01*
X118394646Y-94709857D01*
X118523668Y-94803595D01*
X118571583Y-94838407D01*
X118698972Y-94903315D01*
X118766456Y-94937701D01*
X118766459Y-94937702D01*
X118844339Y-94963006D01*
X118974465Y-95005286D01*
X119074512Y-95021132D01*
X119190479Y-95039500D01*
X119190484Y-95039500D01*
X119409201Y-95039500D01*
X119513922Y-95022912D01*
X119625215Y-95005286D01*
X119833223Y-94937701D01*
X120028097Y-94838407D01*
X120127441Y-94766229D01*
X120205033Y-94709857D01*
X120205035Y-94709854D01*
X120205039Y-94709852D01*
X120359692Y-94555199D01*
X120359694Y-94555195D01*
X120359697Y-94555193D01*
X120420542Y-94471446D01*
X120488247Y-94378257D01*
X120587541Y-94183383D01*
X120655126Y-93975375D01*
X120672752Y-93864082D01*
X120689340Y-93759361D01*
X120689340Y-93540638D01*
X120669435Y-93414971D01*
X120655126Y-93324625D01*
X120606917Y-93176250D01*
X120587542Y-93116619D01*
X120587541Y-93116616D01*
X120543733Y-93030639D01*
X120488247Y-92921743D01*
X120424771Y-92834375D01*
X120359697Y-92744806D01*
X120205033Y-92590142D01*
X120028100Y-92461595D01*
X120028099Y-92461594D01*
X120028097Y-92461593D01*
X119965665Y-92429782D01*
X119833223Y-92362298D01*
X119833220Y-92362297D01*
X119625216Y-92294714D01*
X119409201Y-92260500D01*
X119409196Y-92260500D01*
X119190484Y-92260500D01*
X119190479Y-92260500D01*
X118974463Y-92294714D01*
X118766459Y-92362297D01*
X118766456Y-92362298D01*
X118571579Y-92461595D01*
X118394646Y-92590142D01*
X118239982Y-92744806D01*
X118130158Y-92895969D01*
X118074829Y-92938635D01*
X118005215Y-92944614D01*
X117943420Y-92912009D01*
X117929522Y-92895969D01*
X117819697Y-92744806D01*
X117665033Y-92590142D01*
X117488100Y-92461595D01*
X117488099Y-92461594D01*
X117488097Y-92461593D01*
X117425665Y-92429782D01*
X117293223Y-92362298D01*
X117293220Y-92362297D01*
X117085216Y-92294714D01*
X116869201Y-92260500D01*
X116869196Y-92260500D01*
X116650484Y-92260500D01*
X116650479Y-92260500D01*
X116434463Y-92294714D01*
X116226459Y-92362297D01*
X116226456Y-92362298D01*
X116031579Y-92461595D01*
X115854646Y-92590142D01*
X115699982Y-92744806D01*
X115590158Y-92895969D01*
X115534829Y-92938635D01*
X115465215Y-92944614D01*
X115403420Y-92912009D01*
X115389522Y-92895969D01*
X115279697Y-92744806D01*
X115125033Y-92590142D01*
X114948100Y-92461595D01*
X114948099Y-92461594D01*
X114948097Y-92461593D01*
X114885665Y-92429782D01*
X114753223Y-92362298D01*
X114753220Y-92362297D01*
X114545216Y-92294714D01*
X114329201Y-92260500D01*
X114329196Y-92260500D01*
X114110484Y-92260500D01*
X114110479Y-92260500D01*
X113894463Y-92294714D01*
X113686459Y-92362297D01*
X113686456Y-92362298D01*
X113491579Y-92461595D01*
X113314646Y-92590142D01*
X113159982Y-92744806D01*
X113050158Y-92895969D01*
X112994829Y-92938635D01*
X112925215Y-92944614D01*
X112863420Y-92912009D01*
X112849522Y-92895969D01*
X112739697Y-92744806D01*
X112585033Y-92590142D01*
X112408100Y-92461595D01*
X112408099Y-92461594D01*
X112408097Y-92461593D01*
X112345665Y-92429782D01*
X112213223Y-92362298D01*
X112213220Y-92362297D01*
X112005216Y-92294714D01*
X111789201Y-92260500D01*
X111789196Y-92260500D01*
X111570484Y-92260500D01*
X111570479Y-92260500D01*
X111354463Y-92294714D01*
X111146459Y-92362297D01*
X111146456Y-92362298D01*
X110951579Y-92461595D01*
X110774646Y-92590142D01*
X110619982Y-92744806D01*
X110491435Y-92921739D01*
X110392138Y-93116616D01*
X110392137Y-93116619D01*
X110324554Y-93324623D01*
X110290340Y-93540638D01*
X66060905Y-93540638D01*
X66153494Y-93180024D01*
X66155666Y-93172550D01*
X66340881Y-92602521D01*
X66343509Y-92595224D01*
X66564139Y-92037974D01*
X66567228Y-92030836D01*
X66822420Y-91488522D01*
X66825934Y-91481624D01*
X67114693Y-90956378D01*
X67118636Y-90949711D01*
X67439795Y-90443644D01*
X67444165Y-90437215D01*
X67796446Y-89952342D01*
X67801196Y-89946218D01*
X68183252Y-89484392D01*
X68188396Y-89478559D01*
X68188404Y-89478551D01*
X68598672Y-89041657D01*
X68604145Y-89036184D01*
X69041059Y-88625894D01*
X69046884Y-88620757D01*
X69508728Y-88238687D01*
X69514845Y-88233944D01*
X69999731Y-87881654D01*
X70006141Y-87877297D01*
X70512221Y-87556129D01*
X70518880Y-87552191D01*
X71044112Y-87263440D01*
X71051011Y-87259926D01*
X71593349Y-87004721D01*
X71600456Y-87001646D01*
X72157758Y-86780994D01*
X72165020Y-86778380D01*
X72735063Y-86593162D01*
X72742514Y-86590998D01*
X73323021Y-86441948D01*
X73330606Y-86440252D01*
X73919376Y-86327938D01*
X73927040Y-86326725D01*
X74521651Y-86251608D01*
X74529383Y-86250877D01*
X75127543Y-86213245D01*
X75135329Y-86213000D01*
X139465644Y-86213000D01*
X139532683Y-86232685D01*
G37*
%TD.AperFunction*%
%TD*%
M02*
