%TF.GenerationSoftware,KiCad,Pcbnew,10.0.0*%
%TF.CreationDate,2026-04-01T07:05:39-07:00*%
%TF.ProjectId,digitalLevel,64696769-7461-46c4-9c65-76656c2e6b69,rev?*%
%TF.SameCoordinates,Original*%
%TF.FileFunction,Legend,Bot*%
%TF.FilePolarity,Positive*%
%FSLAX46Y46*%
G04 Gerber Fmt 4.6, Leading zero omitted, Abs format (unit mm)*
G04 Created by KiCad (PCBNEW 10.0.0) date 2026-04-01 07:05:39*
%MOMM*%
%LPD*%
G01*
G04 APERTURE LIST*
%ADD10C,0.100000*%
G04 APERTURE END LIST*
D10*
X217125369Y-104011639D02*
X217125369Y-103697163D01*
X217125369Y-103697163D02*
X216931845Y-103866496D01*
X216931845Y-103866496D02*
X216931845Y-103793925D01*
X216931845Y-103793925D02*
X216907655Y-103745544D01*
X216907655Y-103745544D02*
X216883464Y-103721353D01*
X216883464Y-103721353D02*
X216835083Y-103697163D01*
X216835083Y-103697163D02*
X216714131Y-103697163D01*
X216714131Y-103697163D02*
X216665750Y-103721353D01*
X216665750Y-103721353D02*
X216641560Y-103745544D01*
X216641560Y-103745544D02*
X216617369Y-103793925D01*
X216617369Y-103793925D02*
X216617369Y-103939068D01*
X216617369Y-103939068D02*
X216641560Y-103987449D01*
X216641560Y-103987449D02*
X216665750Y-104011639D01*
X216665750Y-103479448D02*
X216641560Y-103455258D01*
X216641560Y-103455258D02*
X216617369Y-103479448D01*
X216617369Y-103479448D02*
X216641560Y-103503639D01*
X216641560Y-103503639D02*
X216665750Y-103479448D01*
X216665750Y-103479448D02*
X216617369Y-103479448D01*
X217125369Y-103285924D02*
X217125369Y-102971448D01*
X217125369Y-102971448D02*
X216931845Y-103140781D01*
X216931845Y-103140781D02*
X216931845Y-103068210D01*
X216931845Y-103068210D02*
X216907655Y-103019829D01*
X216907655Y-103019829D02*
X216883464Y-102995638D01*
X216883464Y-102995638D02*
X216835083Y-102971448D01*
X216835083Y-102971448D02*
X216714131Y-102971448D01*
X216714131Y-102971448D02*
X216665750Y-102995638D01*
X216665750Y-102995638D02*
X216641560Y-103019829D01*
X216641560Y-103019829D02*
X216617369Y-103068210D01*
X216617369Y-103068210D02*
X216617369Y-103213353D01*
X216617369Y-103213353D02*
X216641560Y-103261734D01*
X216641560Y-103261734D02*
X216665750Y-103285924D01*
X217125369Y-102826305D02*
X216617369Y-102656971D01*
X216617369Y-102656971D02*
X217125369Y-102487638D01*
X216423845Y-101786113D02*
X216448036Y-101810304D01*
X216448036Y-101810304D02*
X216520607Y-101858685D01*
X216520607Y-101858685D02*
X216568988Y-101882875D01*
X216568988Y-101882875D02*
X216641560Y-101907066D01*
X216641560Y-101907066D02*
X216762512Y-101931256D01*
X216762512Y-101931256D02*
X216859274Y-101931256D01*
X216859274Y-101931256D02*
X216980226Y-101907066D01*
X216980226Y-101907066D02*
X217052798Y-101882875D01*
X217052798Y-101882875D02*
X217101179Y-101858685D01*
X217101179Y-101858685D02*
X217173750Y-101810304D01*
X217173750Y-101810304D02*
X217197940Y-101786113D01*
X216810893Y-101592589D02*
X216810893Y-101205542D01*
X216617369Y-101399065D02*
X217004417Y-101399065D01*
X216423845Y-101012018D02*
X216448036Y-100987828D01*
X216448036Y-100987828D02*
X216520607Y-100939447D01*
X216520607Y-100939447D02*
X216568988Y-100915256D01*
X216568988Y-100915256D02*
X216641560Y-100891066D01*
X216641560Y-100891066D02*
X216762512Y-100866875D01*
X216762512Y-100866875D02*
X216859274Y-100866875D01*
X216859274Y-100866875D02*
X216980226Y-100891066D01*
X216980226Y-100891066D02*
X217052798Y-100915256D01*
X217052798Y-100915256D02*
X217101179Y-100939447D01*
X217101179Y-100939447D02*
X217173750Y-100987828D01*
X217173750Y-100987828D02*
X217197940Y-101012018D01*
X217101179Y-98747163D02*
X217125369Y-98795544D01*
X217125369Y-98795544D02*
X217125369Y-98868115D01*
X217125369Y-98868115D02*
X217101179Y-98940687D01*
X217101179Y-98940687D02*
X217052798Y-98989068D01*
X217052798Y-98989068D02*
X217004417Y-99013258D01*
X217004417Y-99013258D02*
X216907655Y-99037449D01*
X216907655Y-99037449D02*
X216835083Y-99037449D01*
X216835083Y-99037449D02*
X216738321Y-99013258D01*
X216738321Y-99013258D02*
X216689940Y-98989068D01*
X216689940Y-98989068D02*
X216641560Y-98940687D01*
X216641560Y-98940687D02*
X216617369Y-98868115D01*
X216617369Y-98868115D02*
X216617369Y-98819734D01*
X216617369Y-98819734D02*
X216641560Y-98747163D01*
X216641560Y-98747163D02*
X216665750Y-98722972D01*
X216665750Y-98722972D02*
X216835083Y-98722972D01*
X216835083Y-98722972D02*
X216835083Y-98819734D01*
X216617369Y-98505258D02*
X217125369Y-98505258D01*
X217125369Y-98505258D02*
X216617369Y-98214972D01*
X216617369Y-98214972D02*
X217125369Y-98214972D01*
X216617369Y-97973068D02*
X217125369Y-97973068D01*
X217125369Y-97973068D02*
X217125369Y-97852116D01*
X217125369Y-97852116D02*
X217101179Y-97779544D01*
X217101179Y-97779544D02*
X217052798Y-97731163D01*
X217052798Y-97731163D02*
X217004417Y-97706973D01*
X217004417Y-97706973D02*
X216907655Y-97682782D01*
X216907655Y-97682782D02*
X216835083Y-97682782D01*
X216835083Y-97682782D02*
X216738321Y-97706973D01*
X216738321Y-97706973D02*
X216689940Y-97731163D01*
X216689940Y-97731163D02*
X216641560Y-97779544D01*
X216641560Y-97779544D02*
X216617369Y-97852116D01*
X216617369Y-97852116D02*
X216617369Y-97973068D01*
X216423845Y-96932877D02*
X216448036Y-96957068D01*
X216448036Y-96957068D02*
X216520607Y-97005449D01*
X216520607Y-97005449D02*
X216568988Y-97029639D01*
X216568988Y-97029639D02*
X216641560Y-97053830D01*
X216641560Y-97053830D02*
X216762512Y-97078020D01*
X216762512Y-97078020D02*
X216859274Y-97078020D01*
X216859274Y-97078020D02*
X216980226Y-97053830D01*
X216980226Y-97053830D02*
X217052798Y-97029639D01*
X217052798Y-97029639D02*
X217101179Y-97005449D01*
X217101179Y-97005449D02*
X217173750Y-96957068D01*
X217173750Y-96957068D02*
X217197940Y-96932877D01*
X216810893Y-96739353D02*
X216810893Y-96352306D01*
X216423845Y-96158782D02*
X216448036Y-96134592D01*
X216448036Y-96134592D02*
X216520607Y-96086211D01*
X216520607Y-96086211D02*
X216568988Y-96062020D01*
X216568988Y-96062020D02*
X216641560Y-96037830D01*
X216641560Y-96037830D02*
X216762512Y-96013639D01*
X216762512Y-96013639D02*
X216859274Y-96013639D01*
X216859274Y-96013639D02*
X216980226Y-96037830D01*
X216980226Y-96037830D02*
X217052798Y-96062020D01*
X217052798Y-96062020D02*
X217101179Y-96086211D01*
X217101179Y-96086211D02*
X217173750Y-96134592D01*
X217173750Y-96134592D02*
X217197940Y-96158782D01*
M02*
